<svg width="25" height="24" viewBox="0 0 25 24" fill="none" xmlns="http://www.w3.org/2000/svg">
<ellipse cx="7.76526" cy="22.5882" rx="1.41178" ry="1.41175" transform="rotate(-90 7.76526 22.5882)" fill="#D3D1CE"/>
<ellipse cx="7.76526" cy="22.5882" rx="1.41178" ry="1.41175" transform="rotate(-90 7.76526 22.5882)" fill="black" fill-opacity="0.02"/>
<path d="M7.76526 21.4264C8.40687 21.4264 8.92701 21.9466 8.92701 22.5882C8.92701 23.2299 8.40687 23.75 7.76526 23.75C7.12365 23.75 6.60352 23.2299 6.60352 22.5882C6.60352 21.9466 7.12365 21.4264 7.76526 21.4264Z" stroke="black" stroke-opacity="0.16" stroke-width="0.5"/>
<ellipse cx="1.41174" cy="22.5882" rx="1.41178" ry="1.41175" transform="rotate(-90 1.41174 22.5882)" fill="#D3D1CE"/>
<ellipse cx="1.41174" cy="22.5882" rx="1.41178" ry="1.41175" transform="rotate(-90 1.41174 22.5882)" fill="black" fill-opacity="0.02"/>
<path d="M1.41174 21.4264C2.05335 21.4264 2.57349 21.9466 2.57349 22.5882C2.57349 23.2299 2.05335 23.75 1.41175 23.75C0.770136 23.75 0.25 23.2299 0.25 22.5882C0.25 21.9466 0.770136 21.4264 1.41174 21.4264Z" stroke="black" stroke-opacity="0.16" stroke-width="0.5"/>
<ellipse cx="16.234" cy="22.5882" rx="1.41178" ry="1.41175" transform="rotate(-90 16.234 22.5882)" fill="#D3D1CE"/>
<ellipse cx="16.234" cy="22.5882" rx="1.41178" ry="1.41175" transform="rotate(-90 16.234 22.5882)" fill="black" fill-opacity="0.02"/>
<path d="M16.234 21.4264C16.8756 21.4264 17.3958 21.9466 17.3958 22.5882C17.3958 23.2299 16.8756 23.75 16.234 23.75C15.5924 23.75 15.0723 23.2299 15.0723 22.5882C15.0723 21.9466 15.5924 21.4264 16.234 21.4264Z" stroke="black" stroke-opacity="0.16" stroke-width="0.5"/>
<ellipse cx="22.4117" cy="7.76432" rx="1.41175" ry="1.41178" fill="#D3D1CE"/>
<ellipse cx="22.4117" cy="7.76432" rx="1.41175" ry="1.41178" fill="black" fill-opacity="0.02"/>
<path d="M23.5735 7.76432C23.5735 8.40595 23.0534 8.92609 22.4117 8.92609C21.7701 8.92609 21.25 8.40595 21.25 7.76432C21.25 7.12268 21.7701 6.60254 22.4117 6.60254C23.0534 6.60254 23.5735 7.12268 23.5735 7.76432Z" stroke="black" stroke-opacity="0.16" stroke-width="0.5"/>
<ellipse cx="22.5895" cy="22.4118" rx="1.41175" ry="1.41178" fill="#D3D1CE"/>
<ellipse cx="22.5895" cy="22.4118" rx="1.41175" ry="1.41178" fill="black" fill-opacity="0.02"/>
<path d="M23.7512 22.4118C23.7512 23.0534 23.2311 23.5736 22.5895 23.5736C21.9479 23.5736 21.4277 23.0534 21.4277 22.4118C21.4277 21.7701 21.9479 21.25 22.5895 21.25C23.2311 21.25 23.7512 21.7701 23.7512 22.4118Z" stroke="black" stroke-opacity="0.16" stroke-width="0.5"/>
<ellipse cx="22.5895" cy="16.235" rx="1.41175" ry="1.41178" fill="#D3D1CE"/>
<ellipse cx="22.5895" cy="16.235" rx="1.41175" ry="1.41178" fill="black" fill-opacity="0.02"/>
<path d="M23.7512 16.235C23.7512 16.8767 23.2311 17.3968 22.5895 17.3968C21.9479 17.3968 21.4277 16.8767 21.4277 16.235C21.4277 15.5934 21.9479 15.0732 22.5895 15.0732C23.2311 15.0732 23.7512 15.5934 23.7512 16.235Z" stroke="black" stroke-opacity="0.16" stroke-width="0.5"/>
<ellipse cx="1.41175" cy="7.76432" rx="1.41175" ry="1.41178" fill="#D3D1CE"/>
<ellipse cx="1.41175" cy="7.76432" rx="1.41175" ry="1.41178" fill="black" fill-opacity="0.02"/>
<path d="M2.57349 7.76432C2.57349 8.40595 2.05335 8.92609 1.41175 8.92609C0.770136 8.92609 0.25 8.40595 0.25 7.76432C0.25 7.12268 0.770136 6.60254 1.41175 6.60254C2.05335 6.60254 2.57349 7.12268 2.57349 7.76432Z" stroke="black" stroke-opacity="0.16" stroke-width="0.5"/>
<ellipse cx="1.41175" cy="1.41178" rx="1.41175" ry="1.41178" fill="#D3D1CE"/>
<ellipse cx="1.41175" cy="1.41178" rx="1.41175" ry="1.41178" fill="black" fill-opacity="0.02"/>
<path d="M2.57349 1.41178C2.57349 2.05341 2.05335 2.57355 1.41175 2.57355C0.770136 2.57355 0.25 2.05341 0.25 1.41178C0.25 0.77014 0.770136 0.25 1.41175 0.25C2.05335 0.25 2.57349 0.77014 2.57349 1.41178Z" stroke="black" stroke-opacity="0.16" stroke-width="0.5"/>
<ellipse cx="1.41175" cy="16.235" rx="1.41175" ry="1.41178" fill="#D3D1CE"/>
<ellipse cx="1.41175" cy="16.235" rx="1.41175" ry="1.41178" fill="black" fill-opacity="0.02"/>
<path d="M2.57349 16.235C2.57349 16.8767 2.05335 17.3968 1.41175 17.3968C0.770136 17.3968 0.25 16.8767 0.25 16.235C0.25 15.5934 0.770136 15.0732 1.41175 15.0732C2.05335 15.0732 2.57349 15.5934 2.57349 16.235Z" stroke="black" stroke-opacity="0.16" stroke-width="0.5"/>
<ellipse cx="7.76526" cy="1.41147" rx="1.41178" ry="1.41175" transform="rotate(-90 7.76526 1.41147)" fill="#D3D1CE"/>
<ellipse cx="7.76526" cy="1.41147" rx="1.41178" ry="1.41175" transform="rotate(-90 7.76526 1.41147)" fill="black" fill-opacity="0.02"/>
<path d="M7.76526 0.24969C8.40687 0.249689 8.92701 0.769829 8.92701 1.41147C8.92701 2.0531 8.40687 2.57324 7.76526 2.57324C7.12365 2.57324 6.60352 2.0531 6.60352 1.41147C6.60352 0.76983 7.12365 0.24969 7.76526 0.24969Z" stroke="black" stroke-opacity="0.16" stroke-width="0.5"/>
<ellipse cx="22.4137" cy="1.41147" rx="1.41178" ry="1.41175" transform="rotate(-90 22.4137 1.41147)" fill="#D3D1CE"/>
<ellipse cx="22.4137" cy="1.41147" rx="1.41178" ry="1.41175" transform="rotate(-90 22.4137 1.41147)" fill="black" fill-opacity="0.02"/>
<path d="M22.4137 0.24969C23.0553 0.249689 23.5754 0.769829 23.5754 1.41147C23.5754 2.0531 23.0553 2.57324 22.4137 2.57324C21.7721 2.57324 21.252 2.0531 21.252 1.41147C21.252 0.76983 21.7721 0.24969 22.4137 0.24969Z" stroke="black" stroke-opacity="0.16" stroke-width="0.5"/>
<ellipse cx="16.236" cy="1.41147" rx="1.41178" ry="1.41175" transform="rotate(-90 16.236 1.41147)" fill="#D3D1CE"/>
<ellipse cx="16.236" cy="1.41147" rx="1.41178" ry="1.41175" transform="rotate(-90 16.236 1.41147)" fill="black" fill-opacity="0.02"/>
<path d="M16.236 0.24969C16.8776 0.249689 17.3977 0.769829 17.3977 1.41147C17.3977 2.0531 16.8776 2.57324 16.236 2.57324C15.5944 2.57324 15.0742 2.0531 15.0742 1.41147C15.0742 0.76983 15.5944 0.24969 16.236 0.24969Z" stroke="black" stroke-opacity="0.16" stroke-width="0.5"/>
<mask id="path-25-inside-1" fill="white">
<path fill-rule="evenodd" clip-rule="evenodd" d="M9.6012 5.2002C9.6012 4.64791 9.15349 4.2002 8.6012 4.2002L5.20117 4.2002C4.64889 4.2002 4.20117 4.64791 4.20117 5.2002L4.20117 8.60023C4.20117 9.15251 4.64889 9.60023 5.20117 9.60023H8.6012C9.15349 9.60023 9.6012 9.15251 9.6012 8.60022V5.2002ZM9.6012 15.4002C9.6012 14.848 9.15349 14.4002 8.6012 14.4002H5.20117C4.64889 14.4002 4.20117 14.848 4.20117 15.4002L4.20117 18.8003C4.20117 19.3526 4.64889 19.8003 5.20117 19.8003H8.6012C9.15349 19.8003 9.6012 19.3526 9.6012 18.8003V15.4002ZM18.8012 4.2002C19.3535 4.2002 19.8012 4.64791 19.8012 5.2002V8.60022C19.8012 9.15251 19.3535 9.60023 18.8012 9.60023H15.4012C14.8489 9.60023 14.4012 9.15251 14.4012 8.60023V5.2002C14.4012 4.64791 14.8489 4.2002 15.4012 4.2002L18.8012 4.2002ZM19.8012 15.4002C19.8012 14.848 19.3535 14.4002 18.8012 14.4002H15.4012C14.8489 14.4002 14.4012 14.848 14.4012 15.4002V18.8003C14.4012 19.3526 14.8489 19.8003 15.4012 19.8003H18.8012C19.3535 19.8003 19.8012 19.3526 19.8012 18.8003V15.4002Z"/>
</mask>
<path fill-rule="evenodd" clip-rule="evenodd" d="M9.6012 5.2002C9.6012 4.64791 9.15349 4.2002 8.6012 4.2002L5.20117 4.2002C4.64889 4.2002 4.20117 4.64791 4.20117 5.2002L4.20117 8.60023C4.20117 9.15251 4.64889 9.60023 5.20117 9.60023H8.6012C9.15349 9.60023 9.6012 9.15251 9.6012 8.60022V5.2002ZM9.6012 15.4002C9.6012 14.848 9.15349 14.4002 8.6012 14.4002H5.20117C4.64889 14.4002 4.20117 14.848 4.20117 15.4002L4.20117 18.8003C4.20117 19.3526 4.64889 19.8003 5.20117 19.8003H8.6012C9.15349 19.8003 9.6012 19.3526 9.6012 18.8003V15.4002ZM18.8012 4.2002C19.3535 4.2002 19.8012 4.64791 19.8012 5.2002V8.60022C19.8012 9.15251 19.3535 9.60023 18.8012 9.60023H15.4012C14.8489 9.60023 14.4012 9.15251 14.4012 8.60023V5.2002C14.4012 4.64791 14.8489 4.2002 15.4012 4.2002L18.8012 4.2002ZM19.8012 15.4002C19.8012 14.848 19.3535 14.4002 18.8012 14.4002H15.4012C14.8489 14.4002 14.4012 14.848 14.4012 15.4002V18.8003C14.4012 19.3526 14.8489 19.8003 15.4012 19.8003H18.8012C19.3535 19.8003 19.8012 19.3526 19.8012 18.8003V15.4002Z" fill="#D3D1CE"/>
<path fill-rule="evenodd" clip-rule="evenodd" d="M9.6012 5.2002C9.6012 4.64791 9.15349 4.2002 8.6012 4.2002L5.20117 4.2002C4.64889 4.2002 4.20117 4.64791 4.20117 5.2002L4.20117 8.60023C4.20117 9.15251 4.64889 9.60023 5.20117 9.60023H8.6012C9.15349 9.60023 9.6012 9.15251 9.6012 8.60022V5.2002ZM9.6012 15.4002C9.6012 14.848 9.15349 14.4002 8.6012 14.4002H5.20117C4.64889 14.4002 4.20117 14.848 4.20117 15.4002L4.20117 18.8003C4.20117 19.3526 4.64889 19.8003 5.20117 19.8003H8.6012C9.15349 19.8003 9.6012 19.3526 9.6012 18.8003V15.4002ZM18.8012 4.2002C19.3535 4.2002 19.8012 4.64791 19.8012 5.2002V8.60022C19.8012 9.15251 19.3535 9.60023 18.8012 9.60023H15.4012C14.8489 9.60023 14.4012 9.15251 14.4012 8.60023V5.2002C14.4012 4.64791 14.8489 4.2002 15.4012 4.2002L18.8012 4.2002ZM19.8012 15.4002C19.8012 14.848 19.3535 14.4002 18.8012 14.4002H15.4012C14.8489 14.4002 14.4012 14.848 14.4012 15.4002V18.8003C14.4012 19.3526 14.8489 19.8003 15.4012 19.8003H18.8012C19.3535 19.8003 19.8012 19.3526 19.8012 18.8003V15.4002Z" fill="black" fill-opacity="0.02"/>
<path d="M8.6012 4.2002V4.7002V4.2002ZM5.20117 4.2002V3.7002V4.2002ZM4.20117 5.2002H3.70117H4.20117ZM4.20117 8.60023H4.70117H4.20117ZM4.20117 15.4002H3.70117H4.20117ZM4.20117 18.8003H4.70117H4.20117ZM18.8012 4.2002V4.7002V4.2002ZM15.4012 4.2002V3.7002V4.2002ZM8.6012 4.7002C8.87735 4.7002 9.1012 4.92405 9.1012 5.2002H10.1012C10.1012 4.37177 9.42963 3.7002 8.6012 3.7002V4.7002ZM5.20117 4.7002L8.6012 4.7002V3.7002L5.20117 3.7002L5.20117 4.7002ZM4.70117 5.2002C4.70117 4.92405 4.92503 4.7002 5.20117 4.7002L5.20117 3.7002C4.37274 3.7002 3.70117 4.37177 3.70117 5.2002H4.70117ZM4.70117 8.60023L4.70117 5.2002H3.70117L3.70117 8.60023H4.70117ZM5.20117 9.10023C4.92503 9.10023 4.70117 8.87637 4.70117 8.60023H3.70117C3.70117 9.42865 4.37275 10.1002 5.20117 10.1002V9.10023ZM8.6012 9.10023H5.20117V10.1002H8.6012V9.10023ZM9.1012 8.60022C9.1012 8.87637 8.87734 9.10023 8.6012 9.10023V10.1002C9.42963 10.1002 10.1012 9.42865 10.1012 8.60022H9.1012ZM9.1012 5.2002V8.60022H10.1012V5.2002H9.1012ZM8.6012 14.9002C8.87734 14.9002 9.1012 15.1241 9.1012 15.4002H10.1012C10.1012 14.5718 9.42963 13.9002 8.6012 13.9002V14.9002ZM5.20117 14.9002H8.6012V13.9002H5.20117V14.9002ZM4.70117 15.4002C4.70117 15.1241 4.92503 14.9002 5.20117 14.9002V13.9002C4.37274 13.9002 3.70117 14.5718 3.70117 15.4002H4.70117ZM4.70117 18.8003L4.70117 15.4002H3.70117L3.70117 18.8003H4.70117ZM5.20117 19.3003C4.92503 19.3003 4.70117 19.0764 4.70117 18.8003H3.70117C3.70117 19.6287 4.37275 20.3003 5.20117 20.3003V19.3003ZM8.6012 19.3003H5.20117V20.3003H8.6012V19.3003ZM9.1012 18.8003C9.1012 19.0764 8.87734 19.3003 8.6012 19.3003V20.3003C9.42963 20.3003 10.1012 19.6287 10.1012 18.8003H9.1012ZM9.1012 15.4002V18.8003H10.1012V15.4002H9.1012ZM20.3012 5.2002C20.3012 4.37177 19.6297 3.7002 18.8012 3.7002V4.7002C19.0774 4.7002 19.3012 4.92405 19.3012 5.2002H20.3012ZM20.3012 8.60022V5.2002H19.3012V8.60022H20.3012ZM18.8012 10.1002C19.6297 10.1002 20.3012 9.42865 20.3012 8.60022H19.3012C19.3012 8.87637 19.0774 9.10023 18.8012 9.10023V10.1002ZM15.4012 10.1002H18.8012V9.10023H15.4012V10.1002ZM13.9012 8.60023C13.9012 9.42865 14.5728 10.1002 15.4012 10.1002V9.10023C15.1251 9.10023 14.9012 8.87637 14.9012 8.60023H13.9012ZM13.9012 5.2002V8.60023H14.9012V5.2002H13.9012ZM15.4012 3.7002C14.5728 3.7002 13.9012 4.37177 13.9012 5.2002H14.9012C14.9012 4.92405 15.1251 4.7002 15.4012 4.7002V3.7002ZM18.8012 3.7002L15.4012 3.7002V4.7002L18.8012 4.7002V3.7002ZM18.8012 14.9002C19.0774 14.9002 19.3012 15.1241 19.3012 15.4002H20.3012C20.3012 14.5718 19.6297 13.9002 18.8012 13.9002V14.9002ZM15.4012 14.9002H18.8012V13.9002H15.4012V14.9002ZM14.9012 15.4002C14.9012 15.1241 15.1251 14.9002 15.4012 14.9002V13.9002C14.5728 13.9002 13.9012 14.5718 13.9012 15.4002H14.9012ZM14.9012 18.8003V15.4002H13.9012V18.8003H14.9012ZM15.4012 19.3003C15.1251 19.3003 14.9012 19.0764 14.9012 18.8003H13.9012C13.9012 19.6287 14.5728 20.3003 15.4012 20.3003V19.3003ZM18.8012 19.3003H15.4012V20.3003H18.8012V19.3003ZM19.3012 18.8003C19.3012 19.0764 19.0774 19.3003 18.8012 19.3003V20.3003C19.6297 20.3003 20.3012 19.6287 20.3012 18.8003H19.3012ZM19.3012 15.4002V18.8003H20.3012V15.4002H19.3012Z" fill="black" fill-opacity="0.16" mask="url(#path-25-inside-1)"/>
</svg>
