<svg width="24" height="24" viewBox="0 0 24 24" fill="none" xmlns="http://www.w3.org/2000/svg">
<mask id="path-1-inside-1" fill="white">
<path fill-rule="evenodd" clip-rule="evenodd" d="M23.9993 4.67668C23.8978 4.8957 23.6295 5.01259 23.4001 4.93776L13.9266 1.84873C13.6972 1.77391 13.5934 1.5357 13.6948 1.31668L19.6377 0.0263807C20.035 -0.059877 20.4308 0.0691971 20.6544 0.357912L23.9993 4.67668ZM17.4963 3.96472C17.6422 3.66665 18.0149 3.51268 18.3287 3.62083C18.6424 3.72897 18.7785 4.05826 18.6325 4.35633L17.3668 6.94159C17.2209 7.23966 16.8482 7.39362 16.5345 7.28548C16.2207 7.17734 16.0847 6.84804 16.2306 6.54997L17.4963 3.96472ZM11.6694 16.6713L11.6823 16.6611L22.1105 8.26639C22.1105 7.83271 21.7589 7.48115 21.3253 7.48115L0.785249 7.48115C0.351568 7.48115 0 7.83271 0 8.26639L10.4282 16.6611L10.4411 16.6713V21.6118L5.52756 23.6755C5.52756 23.8389 5.66003 23.9714 5.82345 23.9714H16.2869C16.4503 23.9714 16.5828 23.8389 16.5828 23.6755L11.6694 21.6119V16.6713Z"/>
</mask>
<path fill-rule="evenodd" clip-rule="evenodd" d="M23.9993 4.67668C23.8978 4.8957 23.6295 5.01259 23.4001 4.93776L13.9266 1.84873C13.6972 1.77391 13.5934 1.5357 13.6948 1.31668L19.6377 0.0263807C20.035 -0.059877 20.4308 0.0691971 20.6544 0.357912L23.9993 4.67668ZM17.4963 3.96472C17.6422 3.66665 18.0149 3.51268 18.3287 3.62083C18.6424 3.72897 18.7785 4.05826 18.6325 4.35633L17.3668 6.94159C17.2209 7.23966 16.8482 7.39362 16.5345 7.28548C16.2207 7.17734 16.0847 6.84804 16.2306 6.54997L17.4963 3.96472ZM11.6694 16.6713L11.6823 16.6611L22.1105 8.26639C22.1105 7.83271 21.7589 7.48115 21.3253 7.48115L0.785249 7.48115C0.351568 7.48115 0 7.83271 0 8.26639L10.4282 16.6611L10.4411 16.6713V21.6118L5.52756 23.6755C5.52756 23.8389 5.66003 23.9714 5.82345 23.9714H16.2869C16.4503 23.9714 16.5828 23.8389 16.5828 23.6755L11.6694 21.6119V16.6713Z" fill="#D3D1CE"/>
<path fill-rule="evenodd" clip-rule="evenodd" d="M23.9993 4.67668C23.8978 4.8957 23.6295 5.01259 23.4001 4.93776L13.9266 1.84873C13.6972 1.77391 13.5934 1.5357 13.6948 1.31668L19.6377 0.0263807C20.035 -0.059877 20.4308 0.0691971 20.6544 0.357912L23.9993 4.67668ZM17.4963 3.96472C17.6422 3.66665 18.0149 3.51268 18.3287 3.62083C18.6424 3.72897 18.7785 4.05826 18.6325 4.35633L17.3668 6.94159C17.2209 7.23966 16.8482 7.39362 16.5345 7.28548C16.2207 7.17734 16.0847 6.84804 16.2306 6.54997L17.4963 3.96472ZM11.6694 16.6713L11.6823 16.6611L22.1105 8.26639C22.1105 7.83271 21.7589 7.48115 21.3253 7.48115L0.785249 7.48115C0.351568 7.48115 0 7.83271 0 8.26639L10.4282 16.6611L10.4411 16.6713V21.6118L5.52756 23.6755C5.52756 23.8389 5.66003 23.9714 5.82345 23.9714H16.2869C16.4503 23.9714 16.5828 23.8389 16.5828 23.6755L11.6694 21.6119V16.6713Z" fill="black" fill-opacity="0.02"/>
<path d="M23.4001 4.93776L23.5551 4.4624L23.4001 4.93776ZM23.9993 4.67668L24.453 4.88682L24.5808 4.61092L24.3946 4.37052L23.9993 4.67668ZM13.9266 1.84873L13.7716 2.3241L13.9266 1.84873ZM13.6948 1.31668L13.5887 0.828059L13.3457 0.880834L13.2411 1.10653L13.6948 1.31668ZM19.6377 0.0263807L19.5316 -0.462235V-0.462235L19.6377 0.0263807ZM20.6544 0.357912L20.2591 0.664071V0.664071L20.6544 0.357912ZM18.3287 3.62083L18.4916 3.14811V3.14811L18.3287 3.62083ZM17.4963 3.96472L17.0472 3.74486V3.74486L17.4963 3.96472ZM18.6325 4.35633L18.1835 4.13647V4.13648L18.6325 4.35633ZM17.3668 6.94159L16.9178 6.72173L16.9178 6.72173L17.3668 6.94159ZM16.5345 7.28548L16.6974 6.81277V6.81277L16.5345 7.28548ZM16.2306 6.54997L15.7815 6.33012L15.7815 6.33012L16.2306 6.54997ZM11.6823 16.6611L11.9927 17.0531L11.9959 17.0506L11.6823 16.6611ZM11.6694 16.6713L11.3591 16.2793L11.1694 16.4294V16.6713H11.6694ZM22.1105 8.26639L22.424 8.65588L22.6105 8.50577V8.26639H22.1105ZM21.3253 7.48115V7.98115V7.48115ZM0.785249 7.48115V6.98115V7.48115ZM0 8.26639H-0.5V8.50577L-0.313534 8.65588L0 8.26639ZM10.4282 16.6611L10.1146 17.0506L10.1178 17.0531L10.4282 16.6611ZM10.4411 16.6713H10.9411V16.4294L10.7514 16.2793L10.4411 16.6713ZM10.4411 21.6118L10.6347 22.0728L10.9411 21.9441V21.6118H10.4411ZM5.52756 23.6755L5.33394 23.2145L5.02756 23.3432V23.6755H5.52756ZM16.5828 23.6755H17.0828V23.3432L16.7764 23.2145L16.5828 23.6755ZM11.6694 21.6119H11.1694V21.9442L11.4758 22.0728L11.6694 21.6119ZM23.2451 5.41313C23.7153 5.56647 24.2451 5.33566 24.453 4.88682L23.5456 4.46654C23.5485 4.46017 23.5515 4.45721 23.5519 4.45679C23.5522 4.45656 23.5508 4.45778 23.548 4.45904C23.5451 4.46029 23.5433 4.46042 23.5436 4.4604C23.5442 4.46036 23.5484 4.46022 23.5551 4.4624L23.2451 5.41313ZM13.7716 2.3241L23.2451 5.41313L23.5551 4.4624L14.0816 1.37337L13.7716 2.3241ZM13.2411 1.10653C13.0138 1.59739 13.2573 2.1564 13.7716 2.3241L14.0816 1.37337C14.0985 1.37887 14.1281 1.39829 14.145 1.43705C14.1619 1.47582 14.156 1.5107 14.1485 1.52682L13.2411 1.10653ZM19.5316 -0.462235L13.5887 0.828059L13.8009 1.80529L19.7438 0.514997L19.5316 -0.462235ZM21.0497 0.0517524C20.6922 -0.409821 20.0905 -0.583578 19.5316 -0.462235L19.7438 0.514997C19.9795 0.463824 20.1694 0.548216 20.2591 0.664071L21.0497 0.0517524ZM24.3946 4.37052L21.0497 0.0517521L20.2591 0.664071L23.604 4.98284L24.3946 4.37052ZM18.4916 3.14811C17.9392 2.95775 17.3041 3.22015 17.0472 3.74486L17.9454 4.18458C17.9803 4.11315 18.0905 4.06762 18.1657 4.09354L18.4916 3.14811ZM19.0816 4.57619C19.3597 4.00818 19.0895 3.35419 18.4916 3.14811L18.1657 4.09354C18.1802 4.09853 18.1866 4.10385 18.1887 4.10572C18.1899 4.10684 18.1904 4.10759 18.1906 4.10788C18.1907 4.10805 18.1908 4.10816 18.1908 4.1082C18.1909 4.10825 18.1909 4.10828 18.1909 4.10828C18.1909 4.10829 18.1909 4.10831 18.1909 4.10837C18.1909 4.10842 18.1909 4.10854 18.191 4.10874C18.191 4.10909 18.1912 4.11002 18.1911 4.11166C18.191 4.1144 18.1902 4.12271 18.1835 4.13647L19.0816 4.57619ZM17.8159 7.16145L19.0816 4.57619L18.1835 4.13648L16.9178 6.72173L17.8159 7.16145ZM16.3716 7.75819C16.9239 7.94856 17.559 7.68616 17.8159 7.16144L16.9178 6.72173C16.8828 6.79315 16.7726 6.83869 16.6974 6.81277L16.3716 7.75819ZM15.7815 6.33012C15.5034 6.89812 15.7737 7.55212 16.3716 7.75819L16.6974 6.81277C16.6829 6.80778 16.6765 6.80246 16.6745 6.80059C16.6733 6.79947 16.6727 6.79872 16.6725 6.79843C16.6724 6.79826 16.6723 6.79815 16.6723 6.7981C16.6723 6.79806 16.6723 6.79803 16.6723 6.79802C16.6723 6.79802 16.6723 6.79799 16.6722 6.79794C16.6722 6.79789 16.6722 6.79777 16.6722 6.79757C16.6721 6.79721 16.672 6.79629 16.672 6.79465C16.6721 6.7919 16.6729 6.7836 16.6797 6.76983L15.7815 6.33012ZM17.0472 3.74486L15.7815 6.33012L16.6797 6.76983L17.9454 4.18458L17.0472 3.74486ZM11.372 16.2691L11.3591 16.2793L11.9798 17.0633L11.9927 17.0531L11.372 16.2691ZM21.797 7.87691L11.3688 16.2716L11.9959 17.0506L22.424 8.65588L21.797 7.87691ZM21.3253 7.98115C21.4828 7.98115 21.6105 8.10886 21.6105 8.26639H22.6105C22.6105 7.55657 22.0351 6.98115 21.3253 6.98115V7.98115ZM0.785249 7.98115L21.3253 7.98115V6.98115L0.785249 6.98115V7.98115ZM0.5 8.26639C0.5 8.10886 0.62771 7.98115 0.785249 7.98115V6.98115C0.075427 6.98115 -0.5 7.55657 -0.5 8.26639H0.5ZM10.7417 16.2716L0.313534 7.87691L-0.313534 8.65588L10.1147 17.0506L10.7417 16.2716ZM10.7514 16.2793L10.7386 16.2691L10.1178 17.0531L10.1307 17.0633L10.7514 16.2793ZM10.9411 21.6118V16.6713H9.94105V21.6118H10.9411ZM5.72117 24.1365L10.6347 22.0728L10.2474 21.1508L5.33394 23.2145L5.72117 24.1365ZM5.82345 23.4714C5.93617 23.4714 6.02756 23.5628 6.02756 23.6755H5.02756C5.02756 24.115 5.38389 24.4714 5.82345 24.4714V23.4714ZM16.2869 23.4714H5.82345V24.4714H16.2869V23.4714ZM16.0828 23.6755C16.0828 23.5628 16.1742 23.4714 16.2869 23.4714V24.4714C16.7265 24.4714 17.0828 24.115 17.0828 23.6755H16.0828ZM11.4758 22.0728L16.3892 24.1365L16.7764 23.2145L11.863 21.1509L11.4758 22.0728ZM11.1694 16.6713V21.6119H12.1694V16.6713H11.1694Z" fill="black" fill-opacity="0.16" mask="url(#path-1-inside-1)"/>
</svg>
