<svg width="24" height="24" viewBox="0 0 24 24" fill="none" xmlns="http://www.w3.org/2000/svg">
<ellipse cx="7.76524" cy="22.5882" rx="1.41176" ry="1.41173" transform="rotate(-90 7.76524 22.5882)" fill="#D3D1CE"/>
<ellipse cx="7.76524" cy="22.5882" rx="1.41176" ry="1.41173" transform="rotate(-90 7.76524 22.5882)" fill="black" fill-opacity="0.02"/>
<path d="M7.76524 21.4265C8.40684 21.4265 8.92697 21.9466 8.92697 22.5882C8.92697 23.2299 8.40684 23.75 7.76524 23.75C7.12364 23.75 6.60352 23.2299 6.60352 22.5882C6.60352 21.9466 7.12364 21.4265 7.76524 21.4265Z" stroke="black" stroke-opacity="0.16" stroke-width="0.5"/>
<ellipse cx="11.9996" cy="22.5882" rx="1.41176" ry="1.41173" transform="rotate(-90 11.9996 22.5882)" fill="#D3D1CE"/>
<ellipse cx="11.9996" cy="22.5882" rx="1.41176" ry="1.41173" transform="rotate(-90 11.9996 22.5882)" fill="black" fill-opacity="0.02"/>
<path d="M11.9996 21.4265C12.6412 21.4265 13.1613 21.9466 13.1613 22.5882C13.1613 23.2299 12.6412 23.75 11.9996 23.75C11.358 23.75 10.8379 23.2299 10.8379 22.5882C10.8379 21.9466 11.358 21.4265 11.9996 21.4265Z" stroke="black" stroke-opacity="0.16" stroke-width="0.5"/>
<ellipse cx="16.2359" cy="22.5882" rx="1.41176" ry="1.41173" transform="rotate(-90 16.2359 22.5882)" fill="#D3D1CE"/>
<ellipse cx="16.2359" cy="22.5882" rx="1.41176" ry="1.41173" transform="rotate(-90 16.2359 22.5882)" fill="black" fill-opacity="0.02"/>
<path d="M16.2359 21.4265C16.8775 21.4265 17.3977 21.9466 17.3977 22.5882C17.3977 23.2299 16.8775 23.75 16.2359 23.75C15.5943 23.75 15.0742 23.2299 15.0742 22.5882C15.0742 21.9466 15.5943 21.4265 16.2359 21.4265Z" stroke="black" stroke-opacity="0.16" stroke-width="0.5"/>
<ellipse cx="22.5875" cy="7.7643" rx="1.41173" ry="1.41176" fill="#D3D1CE"/>
<ellipse cx="22.5875" cy="7.7643" rx="1.41173" ry="1.41176" fill="black" fill-opacity="0.02"/>
<path d="M23.7492 7.7643C23.7492 8.40592 23.2291 8.92606 22.5875 8.92606C21.9459 8.92606 21.4258 8.40592 21.4258 7.7643C21.4258 7.12267 21.9459 6.60254 22.5875 6.60254C23.2291 6.60254 23.7492 7.12267 23.7492 7.7643Z" stroke="black" stroke-opacity="0.16" stroke-width="0.5"/>
<ellipse cx="22.5875" cy="11.9996" rx="1.41173" ry="1.41176" fill="#D3D1CE"/>
<ellipse cx="22.5875" cy="11.9996" rx="1.41173" ry="1.41176" fill="black" fill-opacity="0.02"/>
<path d="M23.7492 11.9996C23.7492 12.6413 23.2291 13.1614 22.5875 13.1614C21.9459 13.1614 21.4258 12.6413 21.4258 11.9996C21.4258 11.358 21.9459 10.8379 22.5875 10.8379C23.2291 10.8379 23.7492 11.358 23.7492 11.9996Z" stroke="black" stroke-opacity="0.16" stroke-width="0.5"/>
<ellipse cx="22.5875" cy="16.235" rx="1.41173" ry="1.41176" fill="#D3D1CE"/>
<ellipse cx="22.5875" cy="16.235" rx="1.41173" ry="1.41176" fill="black" fill-opacity="0.02"/>
<path d="M23.7492 16.235C23.7492 16.8766 23.2291 17.3968 22.5875 17.3968C21.9459 17.3968 21.4258 16.8766 21.4258 16.235C21.4258 15.5934 21.9459 15.0732 22.5875 15.0732C23.2291 15.0732 23.7492 15.5934 23.7492 16.235Z" stroke="black" stroke-opacity="0.16" stroke-width="0.5"/>
<ellipse cx="1.41173" cy="7.7643" rx="1.41173" ry="1.41176" fill="#D3D1CE"/>
<ellipse cx="1.41173" cy="7.7643" rx="1.41173" ry="1.41176" fill="black" fill-opacity="0.02"/>
<path d="M2.57345 7.7643C2.57345 8.40592 2.05333 8.92606 1.41173 8.92606C0.770128 8.92606 0.25 8.40592 0.25 7.7643C0.25 7.12267 0.770128 6.60254 1.41173 6.60254C2.05333 6.60254 2.57345 7.12267 2.57345 7.7643Z" stroke="black" stroke-opacity="0.16" stroke-width="0.5"/>
<ellipse cx="1.41173" cy="11.9996" rx="1.41173" ry="1.41176" fill="#D3D1CE"/>
<ellipse cx="1.41173" cy="11.9996" rx="1.41173" ry="1.41176" fill="black" fill-opacity="0.02"/>
<path d="M2.57345 11.9996C2.57345 12.6413 2.05333 13.1614 1.41173 13.1614C0.770128 13.1614 0.25 12.6413 0.25 11.9996C0.25 11.358 0.770128 10.8379 1.41173 10.8379C2.05333 10.8379 2.57345 11.358 2.57345 11.9996Z" stroke="black" stroke-opacity="0.16" stroke-width="0.5"/>
<ellipse cx="1.41173" cy="16.235" rx="1.41173" ry="1.41176" fill="#D3D1CE"/>
<ellipse cx="1.41173" cy="16.235" rx="1.41173" ry="1.41176" fill="black" fill-opacity="0.02"/>
<path d="M2.57345 16.235C2.57345 16.8766 2.05333 17.3968 1.41173 17.3968C0.770128 17.3968 0.25 16.8766 0.25 16.235C0.25 15.5934 0.770128 15.0732 1.41173 15.0732C2.05333 15.0732 2.57345 15.5934 2.57345 16.235Z" stroke="black" stroke-opacity="0.16" stroke-width="0.5"/>
<ellipse cx="7.76524" cy="1.41148" rx="1.41176" ry="1.41173" transform="rotate(-90 7.76524 1.41148)" fill="#D3D1CE"/>
<ellipse cx="7.76524" cy="1.41148" rx="1.41176" ry="1.41173" transform="rotate(-90 7.76524 1.41148)" fill="black" fill-opacity="0.02"/>
<path d="M7.76524 0.249726C8.40684 0.249726 8.92697 0.769858 8.92697 1.41148C8.92697 2.05311 8.40684 2.57324 7.76524 2.57324C7.12364 2.57324 6.60352 2.05311 6.60352 1.41148C6.60352 0.769858 7.12364 0.249726 7.76524 0.249726Z" stroke="black" stroke-opacity="0.16" stroke-width="0.5"/>
<ellipse cx="11.9996" cy="1.41148" rx="1.41176" ry="1.41173" transform="rotate(-90 11.9996 1.41148)" fill="#D3D1CE"/>
<ellipse cx="11.9996" cy="1.41148" rx="1.41176" ry="1.41173" transform="rotate(-90 11.9996 1.41148)" fill="black" fill-opacity="0.02"/>
<path d="M11.9996 0.249726C12.6412 0.249726 13.1613 0.769858 13.1613 1.41148C13.1613 2.05311 12.6412 2.57324 11.9996 2.57324C11.358 2.57324 10.8379 2.05311 10.8379 1.41148C10.8379 0.769858 11.358 0.249726 11.9996 0.249726Z" stroke="black" stroke-opacity="0.16" stroke-width="0.5"/>
<ellipse cx="16.2359" cy="1.41148" rx="1.41176" ry="1.41173" transform="rotate(-90 16.2359 1.41148)" fill="#D3D1CE"/>
<ellipse cx="16.2359" cy="1.41148" rx="1.41176" ry="1.41173" transform="rotate(-90 16.2359 1.41148)" fill="black" fill-opacity="0.02"/>
<path d="M16.2359 0.249726C16.8775 0.249726 17.3977 0.769858 17.3977 1.41148C17.3977 2.05311 16.8775 2.57324 16.2359 2.57324C15.5943 2.57324 15.0742 2.05311 15.0742 1.41148C15.0742 0.769858 15.5943 0.249726 16.2359 0.249726Z" stroke="black" stroke-opacity="0.16" stroke-width="0.5"/>
<mask id="path-25-inside-1" fill="white">
<path fill-rule="evenodd" clip-rule="evenodd" d="M6 5C5.96548 5 5.93137 5.00175 5.89776 5.00516C5.42712 5.05296 5.05296 5.42712 5.00516 5.89776C5.00175 5.93137 5 5.96548 5 6V8V16V18C5 18.5523 5.44772 19 6 19H8H16H18C18.5523 19 19 18.5523 19 18V16V8V6C19 5.44772 18.5523 5 18 5H16H8H6ZM15 15V9L9 9V15L15 15Z"/>
</mask>
<path fill-rule="evenodd" clip-rule="evenodd" d="M6 5C5.96548 5 5.93137 5.00175 5.89776 5.00516C5.42712 5.05296 5.05296 5.42712 5.00516 5.89776C5.00175 5.93137 5 5.96548 5 6V8V16V18C5 18.5523 5.44772 19 6 19H8H16H18C18.5523 19 19 18.5523 19 18V16V8V6C19 5.44772 18.5523 5 18 5H16H8H6ZM15 15V9L9 9V15L15 15Z" fill="#D3D1CE"/>
<path fill-rule="evenodd" clip-rule="evenodd" d="M6 5C5.96548 5 5.93137 5.00175 5.89776 5.00516C5.42712 5.05296 5.05296 5.42712 5.00516 5.89776C5.00175 5.93137 5 5.96548 5 6V8V16V18C5 18.5523 5.44772 19 6 19H8H16H18C18.5523 19 19 18.5523 19 18V16V8V6C19 5.44772 18.5523 5 18 5H16H8H6ZM15 15V9L9 9V15L15 15Z" fill="black" fill-opacity="0.02"/>
<path d="M5.89776 5.00516L5.84724 4.50772L5.89776 5.00516ZM5.00516 5.89776L4.50772 5.84724L5.00516 5.89776ZM15 15V15.5H15.5V15H15ZM15 9H15.5V8.5H15V9ZM9 9V8.5H8.5V9H9ZM9 15H8.5V15.5H9V15ZM5.94827 5.5026C5.96513 5.50089 5.98238 5.5 6 5.5V4.5C5.94858 4.5 5.89761 4.50261 5.84724 4.50772L5.94827 5.5026ZM5.5026 5.94827C5.52641 5.71382 5.71382 5.52641 5.94827 5.5026L5.84724 4.50772C5.14042 4.5795 4.5795 5.14042 4.50772 5.84724L5.5026 5.94827ZM5.5 6C5.5 5.98238 5.50089 5.96513 5.5026 5.94827L4.50772 5.84724C4.50261 5.89761 4.5 5.94858 4.5 6H5.5ZM5.5 8V6H4.5V8H5.5ZM5.5 16V8H4.5V16H5.5ZM5.5 18V16H4.5V18H5.5ZM6 18.5C5.72386 18.5 5.5 18.2761 5.5 18H4.5C4.5 18.8284 5.17157 19.5 6 19.5V18.5ZM8 18.5H6V19.5H8V18.5ZM16 18.5H8V19.5H16V18.5ZM18 18.5H16V19.5H18V18.5ZM18.5 18C18.5 18.2761 18.2761 18.5 18 18.5V19.5C18.8284 19.5 19.5 18.8284 19.5 18H18.5ZM18.5 16V18H19.5V16H18.5ZM18.5 8V16H19.5V8H18.5ZM18.5 6V8H19.5V6H18.5ZM18 5.5C18.2761 5.5 18.5 5.72386 18.5 6H19.5C19.5 5.17157 18.8284 4.5 18 4.5V5.5ZM16 5.5H18V4.5H16V5.5ZM8 5.5H16V4.5H8V5.5ZM6 5.5H8V4.5H6V5.5ZM15.5 15V9H14.5V15H15.5ZM15 8.5L9 8.5V9.5L15 9.5V8.5ZM8.5 9V15H9.5V9H8.5ZM9 15.5L15 15.5V14.5L9 14.5V15.5Z" fill="black" fill-opacity="0.16" mask="url(#path-25-inside-1)"/>
</svg>
