<svg width="24" height="22" viewBox="0 0 24 22" fill="none" xmlns="http://www.w3.org/2000/svg">
<ellipse cx="7.49992" cy="1.50005" rx="1.49995" ry="1.49992" transform="rotate(-90 7.49992 1.50005)" fill="#D3D1CE"/>
<ellipse cx="7.49992" cy="1.50005" rx="1.49995" ry="1.49992" transform="rotate(-90 7.49992 1.50005)" fill="black" fill-opacity="0.02"/>
<path d="M7.49992 0.250101C8.19022 0.250101 8.74983 0.809717 8.74983 1.50005C8.74983 2.19038 8.19022 2.75 7.49992 2.75C6.80961 2.75 6.25 2.19038 6.25 1.50005C6.25 0.809717 6.80961 0.250101 7.49992 0.250101Z" stroke="black" stroke-opacity="0.16" stroke-width="0.5"/>
<ellipse cx="11.9999" cy="1.50005" rx="1.49995" ry="1.49992" transform="rotate(-90 11.9999 1.50005)" fill="#D3D1CE"/>
<ellipse cx="11.9999" cy="1.50005" rx="1.49995" ry="1.49992" transform="rotate(-90 11.9999 1.50005)" fill="black" fill-opacity="0.02"/>
<path d="M11.9999 0.250101C12.6902 0.250101 13.2498 0.809717 13.2498 1.50005C13.2498 2.19038 12.6902 2.75 11.9999 2.75C11.3096 2.75 10.75 2.19038 10.75 1.50005C10.75 0.809717 11.3096 0.250101 11.9999 0.250101Z" stroke="black" stroke-opacity="0.16" stroke-width="0.5"/>
<ellipse cx="16.498" cy="1.50005" rx="1.49995" ry="1.49992" transform="rotate(-90 16.498 1.50005)" fill="#D3D1CE"/>
<ellipse cx="16.498" cy="1.50005" rx="1.49995" ry="1.49992" transform="rotate(-90 16.498 1.50005)" fill="black" fill-opacity="0.02"/>
<path d="M16.498 0.250101C17.1883 0.250101 17.7479 0.809717 17.7479 1.50005C17.7479 2.19038 17.1883 2.75 16.498 2.75C15.8077 2.75 15.248 2.19038 15.248 1.50005C15.248 0.809717 15.8077 0.250101 16.498 0.250101Z" stroke="black" stroke-opacity="0.16" stroke-width="0.5"/>
<mask id="path-7-inside-1" fill="white">
<path d="M18.1988 4.2002C18.7511 4.2002 19.1988 4.64791 19.1988 5.2002V7.4002C19.1988 7.95248 18.7511 8.4002 18.1988 8.4002L5.79883 8.4002C5.24654 8.4002 4.79883 7.95248 4.79883 7.4002L4.79883 5.2002C4.79883 4.64791 5.24654 4.2002 5.79883 4.2002L18.1988 4.2002Z"/>
</mask>
<path d="M18.1988 4.2002C18.7511 4.2002 19.1988 4.64791 19.1988 5.2002V7.4002C19.1988 7.95248 18.7511 8.4002 18.1988 8.4002L5.79883 8.4002C5.24654 8.4002 4.79883 7.95248 4.79883 7.4002L4.79883 5.2002C4.79883 4.64791 5.24654 4.2002 5.79883 4.2002L18.1988 4.2002Z" fill="#D3D1CE"/>
<path d="M18.1988 4.2002C18.7511 4.2002 19.1988 4.64791 19.1988 5.2002V7.4002C19.1988 7.95248 18.7511 8.4002 18.1988 8.4002L5.79883 8.4002C5.24654 8.4002 4.79883 7.95248 4.79883 7.4002L4.79883 5.2002C4.79883 4.64791 5.24654 4.2002 5.79883 4.2002L18.1988 4.2002Z" fill="black" fill-opacity="0.02"/>
<path d="M4.79883 5.2002H5.29883H4.79883ZM5.79883 4.2002L5.79883 3.7002L5.79883 4.2002ZM5.79883 8.4002L5.79883 7.9002L5.79883 8.4002ZM4.79883 7.4002H4.29883H4.79883ZM19.1988 7.4002H18.6988H19.1988ZM18.1988 8.4002V8.9002V8.4002ZM19.1988 5.2002H19.6988H19.1988ZM18.1988 4.2002V4.7002V4.2002ZM18.6988 5.2002V7.4002H19.6988V5.2002H18.6988ZM18.1988 7.9002L5.79883 7.9002L5.79883 8.9002L18.1988 8.9002V7.9002ZM5.29883 7.4002L5.29883 5.2002H4.29883L4.29883 7.4002H5.29883ZM5.79883 4.7002L18.1988 4.7002V3.7002L5.79883 3.7002L5.79883 4.7002ZM5.29883 5.2002C5.29883 4.92405 5.52269 4.7002 5.79883 4.7002L5.79883 3.7002C4.9704 3.7002 4.29883 4.37177 4.29883 5.2002H5.29883ZM5.79883 7.9002C5.52269 7.9002 5.29883 7.67634 5.29883 7.4002H4.29883C4.29883 8.22862 4.9704 8.9002 5.79883 8.9002L5.79883 7.9002ZM18.6988 7.4002C18.6988 7.67634 18.475 7.9002 18.1988 7.9002V8.9002C19.0273 8.9002 19.6988 8.22862 19.6988 7.4002H18.6988ZM19.6988 5.2002C19.6988 4.37177 19.0273 3.7002 18.1988 3.7002V4.7002C18.475 4.7002 18.6988 4.92405 18.6988 5.2002H19.6988Z" fill="black" fill-opacity="0.16" mask="url(#path-7-inside-1)"/>
<ellipse cx="2.69922" cy="20.1006" rx="1.5" ry="1.5" transform="rotate(-90 2.69922 20.1006)" fill="#D3D1CE"/>
<ellipse cx="2.69922" cy="20.1006" rx="1.5" ry="1.5" transform="rotate(-90 2.69922 20.1006)" fill="black" fill-opacity="0.02"/>
<path d="M2.69922 18.8506C3.38957 18.8506 3.94922 19.4102 3.94922 20.1006C3.94922 20.7909 3.38957 21.3506 2.69922 21.3506C2.00886 21.3506 1.44922 20.7909 1.44922 20.1006C1.44922 19.4102 2.00886 18.8506 2.69922 18.8506Z" stroke="black" stroke-opacity="0.16" stroke-width="0.5"/>
<ellipse cx="6.29883" cy="20.1006" rx="1.5" ry="1.5" transform="rotate(-90 6.29883 20.1006)" fill="#D3D1CE"/>
<ellipse cx="6.29883" cy="20.1006" rx="1.5" ry="1.5" transform="rotate(-90 6.29883 20.1006)" fill="black" fill-opacity="0.02"/>
<path d="M6.29883 18.8506C6.98918 18.8506 7.54883 19.4102 7.54883 20.1006C7.54883 20.7909 6.98918 21.3506 6.29883 21.3506C5.60847 21.3506 5.04883 20.7909 5.04883 20.1006C5.04883 19.4102 5.60847 18.8506 6.29883 18.8506Z" stroke="black" stroke-opacity="0.16" stroke-width="0.5"/>
<mask id="path-13-inside-2" fill="white">
<path d="M8 13.2002C8.55229 13.2002 9 13.6479 9 14.2002V16.4002C9 16.9525 8.55228 17.4002 8 17.4002L1 17.4002C0.447715 17.4002 -2.41406e-08 16.9525 0 16.4002L9.61631e-08 14.2002C1.20304e-07 13.6479 0.447715 13.2002 1 13.2002L8 13.2002Z"/>
</mask>
<path d="M8 13.2002C8.55229 13.2002 9 13.6479 9 14.2002V16.4002C9 16.9525 8.55228 17.4002 8 17.4002L1 17.4002C0.447715 17.4002 -2.41406e-08 16.9525 0 16.4002L9.61631e-08 14.2002C1.20304e-07 13.6479 0.447715 13.2002 1 13.2002L8 13.2002Z" fill="#D3D1CE"/>
<path d="M8 13.2002C8.55229 13.2002 9 13.6479 9 14.2002V16.4002C9 16.9525 8.55228 17.4002 8 17.4002L1 17.4002C0.447715 17.4002 -2.41406e-08 16.9525 0 16.4002L9.61631e-08 14.2002C1.20304e-07 13.6479 0.447715 13.2002 1 13.2002L8 13.2002Z" fill="black" fill-opacity="0.02"/>
<path d="M9.61631e-08 14.2002H0.5H9.61631e-08ZM1 13.2002V12.7002V13.2002ZM1 17.4002L1 16.9002L1 17.4002ZM0 16.4002H-0.5H0ZM9 16.4002H8.5H9ZM8 17.4002V17.9002V17.4002ZM9 14.2002H9.5H9ZM8 13.2002V13.7002V13.2002ZM8.5 14.2002V16.4002H9.5V14.2002H8.5ZM8 16.9002L1 16.9002L1 17.9002L8 17.9002V16.9002ZM0.5 16.4002L0.5 14.2002H-0.5L-0.5 16.4002H0.5ZM1 13.7002L8 13.7002V12.7002L1 12.7002V13.7002ZM0.5 14.2002C0.5 13.9241 0.723858 13.7002 1 13.7002V12.7002C0.171573 12.7002 -0.5 13.3718 -0.5 14.2002H0.5ZM1 16.9002C0.723858 16.9002 0.5 16.6763 0.5 16.4002H-0.5C-0.5 17.2286 0.171573 17.9002 1 17.9002L1 16.9002ZM8.5 16.4002C8.5 16.6763 8.27614 16.9002 8 16.9002V17.9002C8.82843 17.9002 9.5 17.2286 9.5 16.4002H8.5ZM9.5 14.2002C9.5 13.3718 8.82843 12.7002 8 12.7002V13.7002C8.27614 13.7002 8.5 13.9241 8.5 14.2002H9.5Z" fill="black" fill-opacity="0.16" mask="url(#path-13-inside-2)"/>
<ellipse cx="17.6992" cy="20.1006" rx="1.5" ry="1.5" transform="rotate(-90 17.6992 20.1006)" fill="#D3D1CE"/>
<ellipse cx="17.6992" cy="20.1006" rx="1.5" ry="1.5" transform="rotate(-90 17.6992 20.1006)" fill="black" fill-opacity="0.02"/>
<path d="M17.6992 18.8506C18.3896 18.8506 18.9492 19.4102 18.9492 20.1006C18.9492 20.7909 18.3896 21.3506 17.6992 21.3506C17.0089 21.3506 16.4492 20.7909 16.4492 20.1006C16.4492 19.4102 17.0089 18.8506 17.6992 18.8506Z" stroke="black" stroke-opacity="0.16" stroke-width="0.5"/>
<ellipse cx="21.2988" cy="20.1006" rx="1.5" ry="1.5" transform="rotate(-90 21.2988 20.1006)" fill="#D3D1CE"/>
<ellipse cx="21.2988" cy="20.1006" rx="1.5" ry="1.5" transform="rotate(-90 21.2988 20.1006)" fill="black" fill-opacity="0.02"/>
<path d="M21.2988 18.8506C21.9892 18.8506 22.5488 19.4102 22.5488 20.1006C22.5488 20.7909 21.9892 21.3506 21.2988 21.3506C20.6085 21.3506 20.0488 20.7909 20.0488 20.1006C20.0488 19.4102 20.6085 18.8506 21.2988 18.8506Z" stroke="black" stroke-opacity="0.16" stroke-width="0.5"/>
<mask id="path-19-inside-3" fill="white">
<path d="M23 13.2002C23.5523 13.2002 24 13.6479 24 14.2002V16.4002C24 16.9525 23.5523 17.4002 23 17.4002L16 17.4002C15.4477 17.4002 15 16.9525 15 16.4002L15 14.2002C15 13.6479 15.4477 13.2002 16 13.2002L23 13.2002Z"/>
</mask>
<path d="M23 13.2002C23.5523 13.2002 24 13.6479 24 14.2002V16.4002C24 16.9525 23.5523 17.4002 23 17.4002L16 17.4002C15.4477 17.4002 15 16.9525 15 16.4002L15 14.2002C15 13.6479 15.4477 13.2002 16 13.2002L23 13.2002Z" fill="#D3D1CE"/>
<path d="M23 13.2002C23.5523 13.2002 24 13.6479 24 14.2002V16.4002C24 16.9525 23.5523 17.4002 23 17.4002L16 17.4002C15.4477 17.4002 15 16.9525 15 16.4002L15 14.2002C15 13.6479 15.4477 13.2002 16 13.2002L23 13.2002Z" fill="black" fill-opacity="0.02"/>
<path d="M15 14.2002H15.5H15ZM16 13.2002V12.7002V13.2002ZM16 17.4002L16 16.9002L16 17.4002ZM15 16.4002H14.5H15ZM24 16.4002H23.5H24ZM23 17.4002V17.9002V17.4002ZM24 14.2002H24.5H24ZM23 13.2002V13.7002V13.2002ZM23.5 14.2002V16.4002H24.5V14.2002H23.5ZM23 16.9002L16 16.9002L16 17.9002L23 17.9002V16.9002ZM15.5 16.4002L15.5 14.2002H14.5L14.5 16.4002H15.5ZM16 13.7002L23 13.7002V12.7002L16 12.7002V13.7002ZM15.5 14.2002C15.5 13.9241 15.7239 13.7002 16 13.7002V12.7002C15.1716 12.7002 14.5 13.3718 14.5 14.2002H15.5ZM16 16.9002C15.7239 16.9002 15.5 16.6763 15.5 16.4002H14.5C14.5 17.2286 15.1716 17.9002 16 17.9002L16 16.9002ZM23.5 16.4002C23.5 16.6763 23.2761 16.9002 23 16.9002V17.9002C23.8284 17.9002 24.5 17.2286 24.5 16.4002H23.5ZM24.5 14.2002C24.5 13.3718 23.8284 12.7002 23 12.7002V13.7002C23.2761 13.7002 23.5 13.9241 23.5 14.2002H24.5Z" fill="black" fill-opacity="0.16" mask="url(#path-19-inside-3)"/>
</svg>
