<svg width="24" height="20" viewBox="0 0 24 20" fill="none" xmlns="http://www.w3.org/2000/svg">
<ellipse cx="22.5875" cy="7.7643" rx="1.41173" ry="1.41176" fill="#D3D1CE"/>
<ellipse cx="22.5875" cy="7.7643" rx="1.41173" ry="1.41176" fill="black" fill-opacity="0.02"/>
<path d="M23.7492 7.7643C23.7492 8.40592 23.2291 8.92606 22.5875 8.92606C21.9459 8.92606 21.4258 8.40592 21.4258 7.7643C21.4258 7.12267 21.9459 6.60254 22.5875 6.60254C23.2291 6.60254 23.7492 7.12267 23.7492 7.7643Z" stroke="black" stroke-opacity="0.16" stroke-width="0.5"/>
<ellipse cx="22.5875" cy="11.9996" rx="1.41173" ry="1.41176" fill="#D3D1CE"/>
<ellipse cx="22.5875" cy="11.9996" rx="1.41173" ry="1.41176" fill="black" fill-opacity="0.02"/>
<path d="M23.7492 11.9996C23.7492 12.6413 23.2291 13.1614 22.5875 13.1614C21.9459 13.1614 21.4258 12.6413 21.4258 11.9996C21.4258 11.358 21.9459 10.8379 22.5875 10.8379C23.2291 10.8379 23.7492 11.358 23.7492 11.9996Z" stroke="black" stroke-opacity="0.16" stroke-width="0.5"/>
<ellipse cx="22.5875" cy="16.235" rx="1.41173" ry="1.41176" fill="#D3D1CE"/>
<ellipse cx="22.5875" cy="16.235" rx="1.41173" ry="1.41176" fill="black" fill-opacity="0.02"/>
<path d="M23.7492 16.235C23.7492 16.8766 23.2291 17.3968 22.5875 17.3968C21.9459 17.3968 21.4258 16.8766 21.4258 16.235C21.4258 15.5934 21.9459 15.0732 22.5875 15.0732C23.2291 15.0732 23.7492 15.5934 23.7492 16.235Z" stroke="black" stroke-opacity="0.16" stroke-width="0.5"/>
<ellipse cx="1.41173" cy="7.7643" rx="1.41173" ry="1.41176" fill="#D3D1CE"/>
<ellipse cx="1.41173" cy="7.7643" rx="1.41173" ry="1.41176" fill="black" fill-opacity="0.02"/>
<path d="M2.57345 7.7643C2.57345 8.40592 2.05333 8.92606 1.41173 8.92606C0.770128 8.92606 0.25 8.40592 0.25 7.7643C0.25 7.12267 0.770128 6.60254 1.41173 6.60254C2.05333 6.60254 2.57345 7.12267 2.57345 7.7643Z" stroke="black" stroke-opacity="0.16" stroke-width="0.5"/>
<ellipse cx="1.41173" cy="11.9996" rx="1.41173" ry="1.41176" fill="#D3D1CE"/>
<ellipse cx="1.41173" cy="11.9996" rx="1.41173" ry="1.41176" fill="black" fill-opacity="0.02"/>
<path d="M2.57345 11.9996C2.57345 12.6413 2.05333 13.1614 1.41173 13.1614C0.770128 13.1614 0.25 12.6413 0.25 11.9996C0.25 11.358 0.770128 10.8379 1.41173 10.8379C2.05333 10.8379 2.57345 11.358 2.57345 11.9996Z" stroke="black" stroke-opacity="0.16" stroke-width="0.5"/>
<ellipse cx="1.41173" cy="16.235" rx="1.41173" ry="1.41176" fill="#D3D1CE"/>
<ellipse cx="1.41173" cy="16.235" rx="1.41173" ry="1.41176" fill="black" fill-opacity="0.02"/>
<path d="M2.57345 16.235C2.57345 16.8766 2.05333 17.3968 1.41173 17.3968C0.770128 17.3968 0.25 16.8766 0.25 16.235C0.25 15.5934 0.770128 15.0732 1.41173 15.0732C2.05333 15.0732 2.57345 15.5934 2.57345 16.235Z" stroke="black" stroke-opacity="0.16" stroke-width="0.5"/>
<ellipse cx="7.76524" cy="1.41148" rx="1.41176" ry="1.41173" transform="rotate(-90 7.76524 1.41148)" fill="#D3D1CE"/>
<ellipse cx="7.76524" cy="1.41148" rx="1.41176" ry="1.41173" transform="rotate(-90 7.76524 1.41148)" fill="black" fill-opacity="0.02"/>
<path d="M7.76524 0.249726C8.40684 0.249726 8.92697 0.769858 8.92697 1.41148C8.92697 2.05311 8.40684 2.57324 7.76524 2.57324C7.12364 2.57324 6.60352 2.05311 6.60352 1.41148C6.60352 0.769858 7.12364 0.249726 7.76524 0.249726Z" stroke="black" stroke-opacity="0.16" stroke-width="0.5"/>
<ellipse cx="11.9996" cy="1.41148" rx="1.41176" ry="1.41173" transform="rotate(-90 11.9996 1.41148)" fill="#D3D1CE"/>
<ellipse cx="11.9996" cy="1.41148" rx="1.41176" ry="1.41173" transform="rotate(-90 11.9996 1.41148)" fill="black" fill-opacity="0.02"/>
<path d="M11.9996 0.249726C12.6412 0.249726 13.1613 0.769858 13.1613 1.41148C13.1613 2.05311 12.6412 2.57324 11.9996 2.57324C11.358 2.57324 10.8379 2.05311 10.8379 1.41148C10.8379 0.769858 11.358 0.249726 11.9996 0.249726Z" stroke="black" stroke-opacity="0.16" stroke-width="0.5"/>
<ellipse cx="16.2359" cy="1.41148" rx="1.41176" ry="1.41173" transform="rotate(-90 16.2359 1.41148)" fill="#D3D1CE"/>
<ellipse cx="16.2359" cy="1.41148" rx="1.41176" ry="1.41173" transform="rotate(-90 16.2359 1.41148)" fill="black" fill-opacity="0.02"/>
<path d="M16.2359 0.249726C16.8775 0.249726 17.3977 0.769858 17.3977 1.41148C17.3977 2.05311 16.8775 2.57324 16.2359 2.57324C15.5943 2.57324 15.0742 2.05311 15.0742 1.41148C15.0742 0.769858 15.5943 0.249726 16.2359 0.249726Z" stroke="black" stroke-opacity="0.16" stroke-width="0.5"/>
<mask id="path-19-inside-1" fill="white">
<path fill-rule="evenodd" clip-rule="evenodd" d="M5.72753 4.80235C5.7513 4.80066 5.7753 4.7998 5.7995 4.7998H7.39948C7.40278 4.7998 7.40608 4.79982 7.40937 4.79985L18.1988 4.79985C18.2828 4.79985 18.3644 4.81022 18.4424 4.82974C18.8775 4.9381 19.1999 5.33147 19.1999 5.80015V18.2001C19.1999 18.7524 18.7522 19.2001 18.1999 19.2001H16.5999C16.0477 19.2001 15.5999 18.7524 15.5999 18.2001V8.39983L8.39948 8.39983V18.1997C8.39948 18.752 7.95177 19.1997 7.39948 19.1997H5.7995C5.24722 19.1997 4.7995 18.752 4.7995 18.1997V7.43694C4.79905 7.42463 4.79883 7.41226 4.79883 7.39983L4.79883 5.79985C4.79883 5.27154 5.20852 4.83892 5.72753 4.80235Z"/>
</mask>
<path fill-rule="evenodd" clip-rule="evenodd" d="M5.72753 4.80235C5.7513 4.80066 5.7753 4.7998 5.7995 4.7998H7.39948C7.40278 4.7998 7.40608 4.79982 7.40937 4.79985L18.1988 4.79985C18.2828 4.79985 18.3644 4.81022 18.4424 4.82974C18.8775 4.9381 19.1999 5.33147 19.1999 5.80015V18.2001C19.1999 18.7524 18.7522 19.2001 18.1999 19.2001H16.5999C16.0477 19.2001 15.5999 18.7524 15.5999 18.2001V8.39983L8.39948 8.39983V18.1997C8.39948 18.752 7.95177 19.1997 7.39948 19.1997H5.7995C5.24722 19.1997 4.7995 18.752 4.7995 18.1997V7.43694C4.79905 7.42463 4.79883 7.41226 4.79883 7.39983L4.79883 5.79985C4.79883 5.27154 5.20852 4.83892 5.72753 4.80235Z" fill="#D3D1CE"/>
<path fill-rule="evenodd" clip-rule="evenodd" d="M5.72753 4.80235C5.7513 4.80066 5.7753 4.7998 5.7995 4.7998H7.39948C7.40278 4.7998 7.40608 4.79982 7.40937 4.79985L18.1988 4.79985C18.2828 4.79985 18.3644 4.81022 18.4424 4.82974C18.8775 4.9381 19.1999 5.33147 19.1999 5.80015V18.2001C19.1999 18.7524 18.7522 19.2001 18.1999 19.2001H16.5999C16.0477 19.2001 15.5999 18.7524 15.5999 18.2001V8.39983L8.39948 8.39983V18.1997C8.39948 18.752 7.95177 19.1997 7.39948 19.1997H5.7995C5.24722 19.1997 4.7995 18.752 4.7995 18.1997V7.43694C4.79905 7.42463 4.79883 7.41226 4.79883 7.39983L4.79883 5.79985C4.79883 5.27154 5.20852 4.83892 5.72753 4.80235Z" fill="black" fill-opacity="0.02"/>
<path d="M5.72753 4.80235L5.76267 5.30112L5.763 5.3011L5.72753 4.80235ZM7.40937 4.79985L7.40453 5.29985H7.40937V4.79985ZM18.1988 4.79985V4.29985V4.79985ZM18.4424 4.82974L18.321 5.31477L18.3215 5.31492L18.4424 4.82974ZM15.5999 8.39983H16.0999V7.89983H15.5999V8.39983ZM8.39948 8.39983L8.39948 7.89983H7.89948V8.39983H8.39948ZM4.7995 7.43694H5.2995V7.42782L5.29917 7.41871L4.7995 7.43694ZM4.79883 7.39983H5.29883H4.79883ZM4.79883 5.79985H5.29883H4.79883ZM5.7995 4.2998C5.76346 4.2998 5.72763 4.30109 5.69206 4.30361L5.763 5.3011C5.77498 5.30024 5.78715 5.2998 5.7995 5.2998V4.2998ZM7.39948 4.2998H5.7995V5.2998H7.39948V4.2998ZM7.41422 4.29988C7.40931 4.29983 7.4044 4.2998 7.39948 4.2998V5.2998C7.40117 5.2998 7.40285 5.29981 7.40453 5.29983L7.41422 4.29988ZM7.40937 5.29985L18.1988 5.29985V4.29985L7.40937 4.29985L7.40937 5.29985ZM18.1988 5.29985C18.2415 5.29985 18.2824 5.30511 18.321 5.31477L18.5638 4.3447C18.4464 4.31532 18.324 4.29985 18.1988 4.29985V5.29985ZM19.6999 5.80015C19.6999 5.09646 19.2158 4.50708 18.5632 4.34455L18.3215 5.31492C18.5392 5.36911 18.6999 5.56648 18.6999 5.80015H19.6999ZM19.6999 18.2001V5.80015H18.6999V18.2001H19.6999ZM18.1999 19.7001C19.0283 19.7001 19.6999 19.0285 19.6999 18.2001H18.6999C18.6999 18.4762 18.4761 18.7001 18.1999 18.7001V19.7001ZM16.5999 19.7001H18.1999V18.7001H16.5999V19.7001ZM15.0999 18.2001C15.0999 19.0285 15.7715 19.7001 16.5999 19.7001V18.7001C16.3238 18.7001 16.0999 18.4762 16.0999 18.2001H15.0999ZM15.0999 8.39983V18.2001H16.0999V8.39983H15.0999ZM15.5999 7.89983L8.39948 7.89983L8.39948 8.89983L15.5999 8.89983V7.89983ZM8.89948 18.1997V8.39983H7.89948V18.1997H8.89948ZM7.39948 19.6997C8.22791 19.6997 8.89948 19.0282 8.89948 18.1997H7.89948C7.89948 18.4759 7.67563 18.6997 7.39948 18.6997V19.6997ZM5.7995 19.6997H7.39948V18.6997H5.7995V19.6997ZM4.2995 18.1997C4.2995 19.0282 4.97108 19.6997 5.7995 19.6997V18.6997C5.52336 18.6997 5.2995 18.4759 5.2995 18.1997H4.2995ZM4.2995 7.43694V18.1997H5.2995V7.43694H4.2995ZM5.29917 7.41871C5.29894 7.41247 5.29883 7.40618 5.29883 7.39983H4.29883C4.29883 7.41833 4.29917 7.43678 4.29984 7.45516L5.29917 7.41871ZM5.29883 7.39983L5.29883 5.79985H4.29883L4.29883 7.39983H5.29883ZM5.29883 5.79985C5.29883 5.53591 5.50365 5.31936 5.76267 5.30112L5.6924 4.30359C4.91339 4.35847 4.29883 5.00717 4.29883 5.79985H5.29883Z" fill="black" fill-opacity="0.16" mask="url(#path-19-inside-1)"/>
</svg>
