<svg width="16" height="20" viewBox="0 0 16 20" fill="none" xmlns="http://www.w3.org/2000/svg">
<ellipse cx="1.22321" cy="10.6404" rx="1.26487" ry="1.22321" transform="rotate(-90 1.22321 10.6404)" fill="#D3D1CE"/>
<ellipse cx="1.22321" cy="10.6404" rx="1.26487" ry="1.22321" transform="rotate(-90 1.22321 10.6404)" fill="black" fill-opacity="0.02"/>
<path d="M1.22321 9.62553C1.75287 9.62553 2.19642 10.0719 2.19642 10.6404C2.19642 11.2089 1.75287 11.6553 1.22321 11.6553C0.693548 11.6553 0.25 11.2089 0.25 10.6404C0.25 10.0719 0.693548 9.62553 1.22321 9.62553Z" stroke="black" stroke-opacity="0.16" stroke-width="0.5"/>
<ellipse cx="1.22321" cy="18.7351" rx="1.26487" ry="1.22321" transform="rotate(-90 1.22321 18.7351)" fill="#D3D1CE"/>
<ellipse cx="1.22321" cy="18.7351" rx="1.26487" ry="1.22321" transform="rotate(-90 1.22321 18.7351)" fill="black" fill-opacity="0.02"/>
<path d="M1.22321 17.7203C1.75287 17.7203 2.19642 18.1667 2.19642 18.7351C2.19642 19.3036 1.75287 19.75 1.22321 19.75C0.693548 19.75 0.25 19.3036 0.25 18.7351C0.25 18.1667 0.693548 17.7203 1.22321 17.7203Z" stroke="black" stroke-opacity="0.16" stroke-width="0.5"/>
<ellipse cx="1.22321" cy="14.6873" rx="1.26487" ry="1.22321" transform="rotate(-90 1.22321 14.6873)" fill="#D3D1CE"/>
<ellipse cx="1.22321" cy="14.6873" rx="1.26487" ry="1.22321" transform="rotate(-90 1.22321 14.6873)" fill="black" fill-opacity="0.02"/>
<path d="M1.22321 13.6724C1.75287 13.6724 2.19642 14.1188 2.19642 14.6873C2.19642 15.2557 1.75287 15.7021 1.22321 15.7021C0.693548 15.7021 0.25 15.2557 0.25 14.6873C0.25 14.1188 0.693548 13.6724 1.22321 13.6724Z" stroke="black" stroke-opacity="0.16" stroke-width="0.5"/>
<ellipse cx="14.4341" cy="10.6404" rx="1.26487" ry="1.22321" transform="rotate(-90 14.4341 10.6404)" fill="#D3D1CE"/>
<ellipse cx="14.4341" cy="10.6404" rx="1.26487" ry="1.22321" transform="rotate(-90 14.4341 10.6404)" fill="black" fill-opacity="0.02"/>
<path d="M14.4341 9.62553C14.9638 9.62553 15.4074 10.0719 15.4074 10.6404C15.4074 11.2089 14.9638 11.6553 14.4341 11.6553C13.9045 11.6553 13.4609 11.2089 13.4609 10.6404C13.4609 10.0719 13.9045 9.62553 14.4341 9.62553Z" stroke="black" stroke-opacity="0.16" stroke-width="0.5"/>
<ellipse cx="14.4341" cy="18.7351" rx="1.26487" ry="1.22321" transform="rotate(-90 14.4341 18.7351)" fill="#D3D1CE"/>
<ellipse cx="14.4341" cy="18.7351" rx="1.26487" ry="1.22321" transform="rotate(-90 14.4341 18.7351)" fill="black" fill-opacity="0.02"/>
<path d="M14.4341 17.7203C14.9638 17.7203 15.4074 18.1667 15.4074 18.7351C15.4074 19.3036 14.9638 19.75 14.4341 19.75C13.9045 19.75 13.4609 19.3036 13.4609 18.7351C13.4609 18.1667 13.9045 17.7203 14.4341 17.7203Z" stroke="black" stroke-opacity="0.16" stroke-width="0.5"/>
<ellipse cx="14.4341" cy="14.6873" rx="1.26487" ry="1.22321" transform="rotate(-90 14.4341 14.6873)" fill="#D3D1CE"/>
<ellipse cx="14.4341" cy="14.6873" rx="1.26487" ry="1.22321" transform="rotate(-90 14.4341 14.6873)" fill="black" fill-opacity="0.02"/>
<path d="M14.4341 13.6724C14.9638 13.6724 15.4074 14.1188 15.4074 14.6873C15.4074 15.2557 14.9638 15.7021 14.4341 15.7021C13.9045 15.7021 13.4609 15.2557 13.4609 14.6873C13.4609 14.1188 13.9045 13.6724 14.4341 13.6724Z" stroke="black" stroke-opacity="0.16" stroke-width="0.5"/>
<ellipse cx="5.62751" cy="10.6404" rx="1.26487" ry="1.22321" transform="rotate(-90 5.62751 10.6404)" fill="#D3D1CE"/>
<ellipse cx="5.62751" cy="10.6404" rx="1.26487" ry="1.22321" transform="rotate(-90 5.62751 10.6404)" fill="black" fill-opacity="0.02"/>
<path d="M5.62751 9.62553C6.15717 9.62553 6.60072 10.0719 6.60072 10.6404C6.60072 11.2089 6.15717 11.6553 5.62751 11.6553C5.09784 11.6553 4.6543 11.2089 4.6543 10.6404C4.6543 10.0719 5.09784 9.62553 5.62751 9.62553Z" stroke="black" stroke-opacity="0.16" stroke-width="0.5"/>
<ellipse cx="5.62751" cy="18.7351" rx="1.26487" ry="1.22321" transform="rotate(-90 5.62751 18.7351)" fill="#D3D1CE"/>
<ellipse cx="5.62751" cy="18.7351" rx="1.26487" ry="1.22321" transform="rotate(-90 5.62751 18.7351)" fill="black" fill-opacity="0.02"/>
<path d="M5.62751 17.7203C6.15717 17.7203 6.60072 18.1667 6.60072 18.7351C6.60072 19.3036 6.15717 19.75 5.62751 19.75C5.09784 19.75 4.6543 19.3036 4.6543 18.7351C4.6543 18.1667 5.09784 17.7203 5.62751 17.7203Z" stroke="black" stroke-opacity="0.16" stroke-width="0.5"/>
<ellipse cx="5.62751" cy="14.6873" rx="1.26487" ry="1.22321" transform="rotate(-90 5.62751 14.6873)" fill="#D3D1CE"/>
<ellipse cx="5.62751" cy="14.6873" rx="1.26487" ry="1.22321" transform="rotate(-90 5.62751 14.6873)" fill="black" fill-opacity="0.02"/>
<path d="M5.62751 13.6724C6.15717 13.6724 6.60072 14.1188 6.60072 14.6873C6.60072 15.2557 6.15717 15.7021 5.62751 15.7021C5.09784 15.7021 4.6543 15.2557 4.6543 14.6873C4.6543 14.1188 5.09784 13.6724 5.62751 13.6724Z" stroke="black" stroke-opacity="0.16" stroke-width="0.5"/>
<ellipse cx="10.0299" cy="10.6404" rx="1.26487" ry="1.22321" transform="rotate(-90 10.0299 10.6404)" fill="#D3D1CE"/>
<ellipse cx="10.0299" cy="10.6404" rx="1.26487" ry="1.22321" transform="rotate(-90 10.0299 10.6404)" fill="black" fill-opacity="0.02"/>
<path d="M10.0299 9.62553C10.5595 9.62553 11.0031 10.0719 11.0031 10.6404C11.0031 11.2089 10.5595 11.6553 10.0299 11.6553C9.50019 11.6553 9.05664 11.2089 9.05664 10.6404C9.05664 10.0719 9.50019 9.62553 10.0299 9.62553Z" stroke="black" stroke-opacity="0.16" stroke-width="0.5"/>
<ellipse cx="10.0299" cy="18.7351" rx="1.26487" ry="1.22321" transform="rotate(-90 10.0299 18.7351)" fill="#D3D1CE"/>
<ellipse cx="10.0299" cy="18.7351" rx="1.26487" ry="1.22321" transform="rotate(-90 10.0299 18.7351)" fill="black" fill-opacity="0.02"/>
<path d="M10.0299 17.7203C10.5595 17.7203 11.0031 18.1667 11.0031 18.7351C11.0031 19.3036 10.5595 19.75 10.0299 19.75C9.50019 19.75 9.05664 19.3036 9.05664 18.7351C9.05664 18.1667 9.50019 17.7203 10.0299 17.7203Z" stroke="black" stroke-opacity="0.16" stroke-width="0.5"/>
<ellipse cx="10.0299" cy="14.6873" rx="1.26487" ry="1.22321" transform="rotate(-90 10.0299 14.6873)" fill="#D3D1CE"/>
<ellipse cx="10.0299" cy="14.6873" rx="1.26487" ry="1.22321" transform="rotate(-90 10.0299 14.6873)" fill="black" fill-opacity="0.02"/>
<path d="M10.0299 13.6724C10.5595 13.6724 11.0031 14.1188 11.0031 14.6873C11.0031 15.2557 10.5595 15.7021 10.0299 15.7021C9.50019 15.7021 9.05664 15.2557 9.05664 14.6873C9.05664 14.1188 9.50019 13.6724 10.0299 13.6724Z" stroke="black" stroke-opacity="0.16" stroke-width="0.5"/>
<ellipse cx="4.19602" cy="1.25002" rx="1.24998" ry="1.21946" transform="rotate(-90 4.19602 1.25002)" fill="#D3D1CE"/>
<ellipse cx="4.19602" cy="1.25002" rx="1.24998" ry="1.21946" transform="rotate(-90 4.19602 1.25002)" fill="black" fill-opacity="0.02"/>
<path d="M4.19602 0.250045C4.72565 0.250045 5.16548 0.691888 5.16548 1.25002C5.16548 1.80816 4.72565 2.25 4.19602 2.25C3.66639 2.25 3.22656 1.80816 3.22656 1.25002C3.22656 0.691889 3.66639 0.250045 4.19602 0.250045Z" stroke="black" stroke-opacity="0.16" stroke-width="0.5"/>
<ellipse cx="7.85422" cy="1.25002" rx="1.24998" ry="1.21946" transform="rotate(-90 7.85422 1.25002)" fill="#D3D1CE"/>
<ellipse cx="7.85422" cy="1.25002" rx="1.24998" ry="1.21946" transform="rotate(-90 7.85422 1.25002)" fill="black" fill-opacity="0.02"/>
<path d="M7.85422 0.250045C8.38385 0.250045 8.82368 0.691888 8.82368 1.25002C8.82368 1.80816 8.38385 2.25 7.85422 2.25C7.3246 2.25 6.88477 1.80816 6.88477 1.25002C6.88477 0.691889 7.3246 0.250045 7.85422 0.250045Z" stroke="black" stroke-opacity="0.16" stroke-width="0.5"/>
<ellipse cx="11.5124" cy="1.25002" rx="1.24998" ry="1.21946" transform="rotate(-90 11.5124 1.25002)" fill="#D3D1CE"/>
<ellipse cx="11.5124" cy="1.25002" rx="1.24998" ry="1.21946" transform="rotate(-90 11.5124 1.25002)" fill="black" fill-opacity="0.02"/>
<path d="M11.5124 0.250045C12.0421 0.250045 12.4819 0.691888 12.4819 1.25002C12.4819 1.80816 12.0421 2.25 11.5124 2.25C10.9828 2.25 10.543 1.80816 10.543 1.25002C10.543 0.691889 10.9828 0.250045 11.5124 0.250045Z" stroke="black" stroke-opacity="0.16" stroke-width="0.5"/>
<mask id="path-31-inside-1" fill="white">
<path d="M12.7075 3.5C13.2597 3.5 13.7075 3.94772 13.7075 4.5V6.00006C13.7075 6.55234 13.2597 7.00006 12.7075 7.00006L3 7.00006C2.44772 7.00006 2 6.55234 2 6.00006L2 4.5C2 3.94772 2.44772 3.5 3 3.5L12.7075 3.5Z"/>
</mask>
<path d="M12.7075 3.5C13.2597 3.5 13.7075 3.94772 13.7075 4.5V6.00006C13.7075 6.55234 13.2597 7.00006 12.7075 7.00006L3 7.00006C2.44772 7.00006 2 6.55234 2 6.00006L2 4.5C2 3.94772 2.44772 3.5 3 3.5L12.7075 3.5Z" fill="#D3D1CE"/>
<path d="M12.7075 3.5C13.2597 3.5 13.7075 3.94772 13.7075 4.5V6.00006C13.7075 6.55234 13.2597 7.00006 12.7075 7.00006L3 7.00006C2.44772 7.00006 2 6.55234 2 6.00006L2 4.5C2 3.94772 2.44772 3.5 3 3.5L12.7075 3.5Z" fill="black" fill-opacity="0.02"/>
<path d="M2 4.5H1.5H2ZM3 3.5V3V3.5ZM3 7.00006V6.50006V7.00006ZM2 6.00006H2.5H2ZM13.7075 6.00006H14.2075H13.7075ZM12.7075 7.00006V7.50006V7.00006ZM13.7075 4.5H13.2075H13.7075ZM12.7075 3.5V4V3.5ZM13.2075 4.5V6.00006H14.2075V4.5H13.2075ZM12.7075 6.50006L3 6.50006V7.50006H12.7075V6.50006ZM2.5 6.00006L2.5 4.5L1.5 4.5L1.5 6.00006H2.5ZM3 4L12.7075 4V3L3 3L3 4ZM2.5 4.5C2.5 4.22386 2.72386 4 3 4L3 3C2.17157 3 1.5 3.67157 1.5 4.5L2.5 4.5ZM3 6.50006C2.72386 6.50006 2.5 6.2762 2.5 6.00006H1.5C1.5 6.82848 2.17157 7.50005 3 7.50006V6.50006ZM13.2075 6.00006C13.2075 6.2762 12.9836 6.50006 12.7075 6.50006V7.50006C13.5359 7.50006 14.2075 6.82848 14.2075 6.00006H13.2075ZM14.2075 4.5C14.2075 3.67157 13.5359 3 12.7075 3V4C12.9836 4 13.2075 4.22386 13.2075 4.5H14.2075Z" fill="black" fill-opacity="0.16" mask="url(#path-31-inside-1)"/>
</svg>
