<svg width="40" height="40" viewBox="0 0 40 40" fill="none" xmlns="http://www.w3.org/2000/svg">
<circle cx="20" cy="20" r="19.5" fill="#FBFBFB" stroke="#F5F5F5"/>
<path d="M21.7602 18.5823H18.2257C16.6344 18.5823 15.3398 19.8228 15.3398 21.3476V26.9468C15.3398 27.2523 15.5982 27.4999 15.917 27.4999H24.0689C24.3877 27.4999 24.6461 27.2523 24.6461 26.9468V21.3476C24.6461 19.8228 23.3515 18.5823 21.7602 18.5823Z" fill="#D9BD94"/>
<path d="M20.0097 11.25C18.096 11.25 16.5391 12.7419 16.5391 14.5757C16.5391 15.8196 17.2555 16.906 18.3136 17.4763C18.8154 17.7468 19.394 17.9014 20.0097 17.9014C20.6254 17.9014 21.2039 17.7468 21.7058 17.4763C22.7639 16.906 23.4803 15.8196 23.4803 14.5757C23.4803 12.7419 21.9234 11.25 20.0097 11.25Z" fill="#D9BD94"/>
</svg>
