<svg width="40" height="40" viewBox="0 0 40 40" fill="none" xmlns="http://www.w3.org/2000/svg">
<circle cx="20" cy="20" r="19.5" fill="#FBFBFB" stroke="#F5F5F5"/>
<path d="M27.1125 20.0229H25.5664C25.724 20.4364 25.8101 20.8826 25.8101 21.3476V26.9468C25.8101 27.1407 25.7749 27.3268 25.7108 27.4999H28.2668C29.2216 27.4999 29.9983 26.7555 29.9983 25.8407V22.7883C29.9983 21.2635 28.7037 20.0229 27.1125 20.0229Z" fill="#D9BD94"/>
<path d="M14.1921 21.3476C14.1921 20.8825 14.2782 20.4364 14.4358 20.0229H12.8898C11.2985 20.0229 10.0039 21.2635 10.0039 22.7883V25.8407C10.0039 26.7556 10.7806 27.4999 11.7354 27.4999H14.2914C14.2274 27.3268 14.1921 27.1407 14.1921 26.9468V21.3476Z" fill="#D9BD94"/>
<path d="M21.7583 18.5823H18.2238C16.6325 18.5823 15.3379 19.8228 15.3379 21.3476V26.9468C15.3379 27.2523 15.5963 27.4999 15.9151 27.4999H24.067C24.3857 27.4999 24.6441 27.2523 24.6441 26.9468V21.3476C24.6441 19.8228 23.3495 18.5823 21.7583 18.5823Z" fill="#D9BD94"/>
<path d="M20.0077 11.25C18.094 11.25 16.5371 12.7419 16.5371 14.5757C16.5371 15.8196 17.2536 16.906 18.3116 17.4763C18.8135 17.7468 19.3921 17.9014 20.0077 17.9014C20.6234 17.9014 21.202 17.7468 21.7038 17.4763C22.7619 16.906 23.4783 15.8196 23.4783 14.5757C23.4783 12.7419 21.9214 11.25 20.0077 11.25Z" fill="#D9BD94"/>
<path d="M13.9081 14.3496C12.4768 14.3496 11.3125 15.4653 11.3125 16.8368C11.3125 18.2083 12.4768 19.324 13.9081 19.324C14.2711 19.324 14.6168 19.2519 14.9309 19.1224C15.4738 18.8984 15.9215 18.5019 16.1986 18.0052C16.393 17.6566 16.5036 17.2589 16.5036 16.8368C16.5036 15.4654 15.3393 14.3496 13.9081 14.3496Z" fill="#D9BD94"/>
<path d="M26.0917 14.3496C24.6604 14.3496 23.4961 15.4653 23.4961 16.8368C23.4961 17.2589 23.6067 17.6566 23.8012 18.0052C24.0782 18.5019 24.5259 18.8984 25.0689 19.1224C25.3829 19.2519 25.7286 19.324 26.0917 19.324C27.5229 19.324 28.6872 18.2083 28.6872 16.8368C28.6872 15.4653 27.5229 14.3496 26.0917 14.3496Z" fill="#D9BD94"/>
</svg>
