<svg width="24" height="19" viewBox="0 0 24 19" fill="none" xmlns="http://www.w3.org/2000/svg">
<g opacity="0.48">
<path d="M23.9514 12.693L21.3096 8.59404V1.05389L20.2342 0H3.76507L2.68968 1.05389V8.59398L0.0478516 12.693H23.9514ZM19.1588 2.10779V7.36894C17.7729 7.0176 15.3788 6.58436 11.9996 6.58436C8.62053 6.58436 6.22635 7.0176 4.84045 7.36894V2.10779H19.1588Z" fill="black"/>
<path d="M0 13.9897V16.0975H2.50584V19.0001H4.65661V16.0975H19.3433V19.0001H21.4941V16.0975H24V13.9897H0Z" fill="black"/>
<path d="M11.127 5.48766V4.25978C11.127 3.53097 10.0477 2.93994 8.71631 2.93994C7.38492 2.93994 6.30566 3.53097 6.30566 4.25978V6.10283C6.30566 6.10283 7.72763 5.75197 8.70501 5.66128C9.58492 5.57956 11.127 5.48766 11.127 5.48766Z" fill="black"/>
<path d="M17.6935 6.10283V4.25978C17.6935 3.53097 16.6142 2.93994 15.2828 2.93994C13.9514 2.93994 12.8721 3.53097 12.8721 4.25978V5.48766C12.8721 5.48766 14.4142 5.5795 15.2942 5.66128C16.2716 5.75197 17.6935 6.10283 17.6935 6.10283Z" fill="black"/>
</g>
</svg>
