<svg width="32" height="32" viewBox="0 0 32 32" fill="none" xmlns="http://www.w3.org/2000/svg">
<circle cx="16" cy="16" r="15.5" fill="white" fill-opacity="0.5" stroke="#F0EDEA"/>
<path d="M19.1629 15.4698C19.0981 15.3355 18.9557 15.25 18.7989 15.25H17.1989V10.375C17.1989 10.168 17.0197 10 16.7989 10H15.1989C14.9781 10 14.7989 10.168 14.7989 10.375V15.25H13.1989C13.0421 15.25 12.8997 15.3363 12.8349 15.4698C12.7693 15.604 12.7949 15.7607 12.8981 15.8717L15.6981 18.8717C15.7741 18.9535 15.8837 19 15.9989 19C16.1141 19 16.2237 18.9528 16.2997 18.8717L19.0997 15.8717C19.2037 15.7615 19.2277 15.604 19.1629 15.4698Z" fill="#D9BD94"/>
<path d="M20.4 18.25V20.5H11.6V18.25H10V21.25C10 21.6648 10.3584 22 10.8 22H21.2C21.6424 22 22 21.6648 22 21.25V18.25H20.4Z" fill="#D9BD94"/>
</svg>
