<svg width="14" height="14" viewBox="0 0 14 14" fill="none" xmlns="http://www.w3.org/2000/svg">
<g opacity="0.3">
<path d="M10.7688 10.8626C10.9884 10.6952 11.0307 10.3814 10.8633 10.1618C10.6959 9.9422 10.3822 9.89987 10.1625 10.0673L10.7688 10.8626ZM7.00065 11.6666V12.1667L7.00882 12.1665L7.00065 11.6666ZM0.583984 6.99992L0.143407 6.76351C0.0665896 6.90666 0.064115 7.07822 0.136771 7.22353L0.583984 6.99992ZM3.8391 3.93231C4.05857 3.76472 4.10063 3.45094 3.93304 3.23147C3.76545 3.012 3.45167 2.96994 3.2322 3.13753L3.8391 3.93231ZM5.66153 1.98643C5.39266 2.04936 5.22571 2.31835 5.28865 2.58722C5.35158 2.8561 5.62057 3.02304 5.88944 2.96011L5.66153 1.98643ZM7.00049 2.33327L6.99931 2.83327H7.00049V2.33327ZM13.4172 6.99993L13.8581 7.23564C13.9346 7.09261 13.9369 6.92138 13.8644 6.77633L13.4172 6.99993ZM11.7746 8.53884C11.5968 8.75014 11.6239 9.06555 11.8352 9.24334C12.0465 9.42114 12.3619 9.39398 12.5397 9.18269L11.7746 8.53884ZM8.60283 8.57742C8.79109 8.37539 8.77992 8.059 8.57789 7.87075C8.37586 7.6825 8.05947 7.69367 7.87122 7.8957L8.60283 8.57742ZM6.10456 6.12903C6.30658 5.94078 6.31775 5.62439 6.1295 5.42236C5.94125 5.22033 5.62486 5.20917 5.42283 5.39742L6.10456 6.12903ZM10.1625 10.0673C9.25026 10.7627 8.13941 11.1479 6.99248 11.1667L7.00882 12.1665C8.36918 12.1443 9.68673 11.6874 10.7688 10.8626L10.1625 10.0673ZM7.00065 11.1666C5.15874 11.1666 3.67758 10.1131 2.62584 8.99128C2.10453 8.43522 1.70326 7.87724 1.43239 7.45782C1.29726 7.2486 1.1954 7.07512 1.12801 6.95531C1.09433 6.89544 1.06932 6.84908 1.05312 6.81847C1.04503 6.80317 1.03914 6.79182 1.03548 6.78469C1.03365 6.78113 1.03237 6.77863 1.03166 6.77722C1.0313 6.77652 1.03108 6.77609 1.03101 6.77593C1.03097 6.77586 1.03097 6.77585 1.031 6.77591C1.03101 6.77594 1.03106 6.77604 1.03107 6.77606C1.03113 6.77618 1.0312 6.77631 0.583984 6.99992C0.136771 7.22353 0.136856 7.2237 0.136951 7.22389C0.136994 7.22397 0.137098 7.22418 0.137185 7.22435C0.137359 7.2247 0.137569 7.22512 0.137815 7.22561C0.138307 7.22658 0.138943 7.22784 0.139723 7.22938C0.141283 7.23246 0.143419 7.23665 0.146127 7.24192C0.151544 7.25246 0.159257 7.26731 0.169247 7.28619C0.189224 7.32394 0.218331 7.37784 0.256432 7.44557C0.332596 7.58097 0.444925 7.77208 0.59235 8.00035C0.88658 8.45593 1.32386 9.06462 1.8963 9.67522C3.03206 10.8867 4.75923 12.1666 7.00065 12.1666V11.1666ZM1.02456 7.23633C1.71645 5.94693 2.67609 4.82039 3.8391 3.93231L3.2322 3.13753C1.95587 4.11215 0.902719 5.34846 0.143407 6.76351L1.02456 7.23633ZM5.88944 2.96011C6.25323 2.87495 6.62569 2.83239 6.99931 2.83327L7.00166 1.83327C6.55053 1.83221 6.1008 1.88361 5.66153 1.98643L5.88944 2.96011ZM7.00049 2.83327C8.8424 2.83327 10.3236 3.88671 11.3753 5.00857C11.8966 5.56464 12.2979 6.12261 12.5687 6.54203C12.7039 6.75126 12.8057 6.92474 12.8731 7.04454C12.9068 7.10441 12.9318 7.15078 12.948 7.18138C12.9561 7.19668 12.962 7.20804 12.9657 7.21516C12.9675 7.21872 12.9688 7.22122 12.9695 7.22263C12.9698 7.22334 12.9701 7.22377 12.9701 7.22392C12.9702 7.224 12.9702 7.224 12.9701 7.22394C12.9701 7.22391 12.9701 7.22381 12.9701 7.22379C12.97 7.22368 12.9699 7.22354 13.4172 6.99993C13.8644 6.77633 13.8643 6.77615 13.8642 6.77597C13.8641 6.77588 13.864 6.77567 13.864 6.7755C13.8638 6.77515 13.8636 6.77473 13.8633 6.77425C13.8628 6.77327 13.8622 6.77201 13.8614 6.77047C13.8599 6.76739 13.8577 6.7632 13.855 6.75793C13.8496 6.7474 13.8419 6.73254 13.8319 6.71367C13.8119 6.67591 13.7828 6.62202 13.7447 6.55428C13.6685 6.41888 13.5562 6.22777 13.4088 5.9995C13.1146 5.54392 12.6773 4.93523 12.1048 4.32463C10.9691 3.11315 9.24191 1.83327 7.00049 1.83327V2.83327ZM12.9762 6.76423C12.6385 7.39597 12.2358 7.99074 11.7746 8.53884L12.5397 9.18269C13.0458 8.58132 13.4876 7.92877 13.8581 7.23564L12.9762 6.76423ZM7.87122 7.8957C7.5596 8.23012 7.0903 8.36778 6.64741 8.25467L6.39997 9.22358C7.19717 9.42717 8.04192 9.17938 8.60283 8.57742L7.87122 7.8957ZM6.64741 8.25467C6.20452 8.14157 5.85869 7.79573 5.74558 7.35284L4.77668 7.60029C4.98027 8.39749 5.60277 9.01998 6.39997 9.22358L6.64741 8.25467ZM5.74558 7.35284C5.63247 6.90996 5.77013 6.44065 6.10456 6.12903L5.42283 5.39742C4.82087 5.95833 4.57309 6.80309 4.77668 7.60029L5.74558 7.35284Z" fill="black"/>
<path d="M0.583984 0.583252L13.4173 13.4166" stroke="black" stroke-linecap="round" stroke-linejoin="round"/>
</g>
</svg>
