<svg width="14" height="11" viewBox="0 0 14 11" fill="none" xmlns="http://www.w3.org/2000/svg">
<path fill-rule="evenodd" clip-rule="evenodd" d="M9.09522 1.36193C8.06409 0.532063 6.79915 -0.0587798 5.4529 0.00466212C2.64412 -0.0901803 0.0615256 2.3911 0.0145115 5.22484C-0.165286 7.54079 1.34488 9.81252 3.47704 10.6315C5.60156 11.4562 8.32457 10.8942 9.68099 8.96919C10.4721 7.89566 10.7147 6.54975 10.6888 5.23688C10.7326 5.23735 10.7763 5.23782 10.82 5.23828C11.0304 5.24053 11.2407 5.24279 11.4505 5.2449C11.453 5.47471 11.4541 5.70467 11.4553 5.93461C11.4563 6.13901 11.4573 6.34341 11.4593 6.54768H12.7234L12.7234 6.54688C12.7254 6.11307 12.7275 5.67872 12.7322 5.24277C12.967 5.24012 13.2014 5.23828 13.4354 5.23644C13.6239 5.23497 13.8122 5.23349 14.0004 5.23159V3.93307C13.8018 3.93107 13.6027 3.93001 13.4035 3.92894C13.1795 3.92775 12.9555 3.92656 12.7322 3.92402C12.7275 3.49105 12.7254 3.05595 12.7234 2.62244L12.7234 2.61911H11.4614L11.4613 2.62408C11.4572 3.05704 11.4531 3.48947 11.4505 3.92402C11.3672 3.92454 11.284 3.92504 11.2008 3.92555C10.8608 3.9276 10.5217 3.92965 10.1823 3.93307V4.71463C8.60423 4.7051 7.02856 4.70817 5.4529 4.71282C5.45036 5.33725 5.45289 5.96167 5.45543 6.58674L5.45544 6.58788C6.08841 6.60857 6.72232 6.61071 7.35602 6.61285C7.76229 6.61422 8.16846 6.61558 8.57425 6.62184C8.11618 8.94548 4.98149 9.69909 3.32329 8.18162C1.61807 6.84998 1.69876 3.93037 3.47195 2.69357C4.71084 1.6958 6.47323 1.94252 7.71275 2.80636C8.19941 2.35201 8.65494 1.86626 9.09522 1.36193Z" fill="white"/>
</svg>
