<svg width="32" height="32" viewBox="0 0 32 32" fill="none" xmlns="http://www.w3.org/2000/svg">
<circle cx="16" cy="16" r="15.5" fill="white" fill-opacity="0.5" stroke="#F0EDEA"/>
<path d="M9.875 16.4583V22.0654C9.875 22.5813 10.2679 23 10.75 23H15.125V16.4583H9.875Z" fill="#D9BD94"/>
<path d="M22.125 12.72H19.3565C19.5551 12.5751 19.7257 12.4312 19.8448 12.3023C20.5509 11.5444 20.5509 10.3109 19.8448 9.55299C19.1588 8.81474 17.9635 8.81661 17.2784 9.55299C16.8986 9.95949 15.8924 11.6145 16.0315 12.72H15.9685C16.1068 11.6145 15.1005 9.95949 14.7216 9.55299C14.0356 8.81661 12.8404 8.81661 12.1553 9.55299C11.45 10.3109 11.45 11.5444 12.1544 12.3023C12.2743 12.4312 12.4449 12.5751 12.6435 12.72H9.875C9.39288 12.72 9 13.1396 9 13.6545V15.0562C9 15.3141 9.196 15.5235 9.4375 15.5235H15.125V13.6545H16.875V15.5235H22.5625C22.804 15.5235 23 15.3141 23 15.0562V13.6545C23 13.1396 22.608 12.72 22.125 12.72ZM15.0734 12.6891C15.0734 12.6891 15.0366 12.72 14.9115 12.72C14.3069 12.72 13.1528 12.049 12.7756 11.6435C12.409 11.2491 12.409 10.6062 12.7756 10.2118C12.9532 10.0212 13.1886 9.91651 13.4389 9.91651C13.6883 9.91651 13.9236 10.0212 14.1012 10.2118C14.691 10.8454 15.2772 12.4639 15.0734 12.6891ZM17.0876 12.72C16.9634 12.72 16.9266 12.6901 16.9266 12.6891C16.7228 12.4639 17.309 10.8454 17.8988 10.2118C18.2514 9.83147 18.8682 9.8296 19.2244 10.2118C19.5919 10.6062 19.5919 11.2491 19.2244 11.6435C18.8472 12.049 17.6931 12.72 17.0876 12.72Z" fill="#D9BD94"/>
<path d="M16.875 16.4583V23H21.25C21.733 23 22.125 22.5813 22.125 22.0654V16.4583H16.875Z" fill="#D9BD94"/>
</svg>
