<svg width="40" height="40" viewBox="0 0 40 40" fill="none" xmlns="http://www.w3.org/2000/svg">
<circle cx="20" cy="20" r="19.5" fill="white" fill-opacity="0.5" stroke="#F0EDEA"/>
<path fill-rule="evenodd" clip-rule="evenodd" d="M20.1509 12.5064C22.0398 12.4198 23.8147 13.2255 25.2614 14.3572C24.6437 15.0449 24.0045 15.7073 23.3217 16.3269C21.5825 15.1489 19.1097 14.8125 17.3715 16.1731C14.8835 17.8596 14.7703 21.8409 17.1629 23.6567C19.4895 25.726 23.8878 24.6984 24.5305 21.5298C23.073 21.5079 21.612 21.5298 20.1545 21.4835C20.1509 20.6306 20.1474 19.7786 20.1509 18.9266C22.5872 18.9196 25.0234 18.9152 27.4641 18.9336C27.6103 20.9391 27.3402 23.073 26.0833 24.7307C24.1801 27.3558 20.3595 28.1221 17.3786 26.9975C14.387 25.8807 12.2681 22.7829 12.5204 19.6248C12.5863 15.7606 16.2099 12.377 20.1509 12.5064Z" fill="#D9BD94"/>
</svg>
