<svg width="20" height="19" viewBox="0 0 20 19" fill="none" xmlns="http://www.w3.org/2000/svg">
<path d="M20 2.4853V8.30628C20 9.68451 18.9404 10.8029 17.6189 10.8029H11.1882C11.0625 10.8029 10.959 10.8022 10.8723 10.8003C10.7816 10.7983 10.6794 10.7976 10.6396 10.8022C10.5981 10.8309 10.4964 10.9281 10.3984 11.0222C10.3596 11.0595 10.3156 11.1006 10.2682 11.1457L8.44876 12.8752C8.30364 13.0133 8.08893 13.049 7.9092 12.9664C7.72948 12.8837 7.60331 12.6981 7.60331 12.4933V7.01039H2.40882C1.63405 7.01039 0.991736 7.67253 0.991736 8.48045V14.3014C0.991736 15.1094 1.6341 15.7447 2.40882 15.7447H9.59196C9.71565 15.7447 9.83135 15.8039 9.9227 15.8909L11.405 17.3162V12.4009C11.405 12.1153 11.6269 11.8838 11.9008 11.8838C12.1747 11.8838 12.3967 12.1153 12.3967 12.4009V18.4884C12.3967 18.6932 12.2843 18.8761 12.1045 18.9587C12.0402 18.9883 11.9756 19 11.908 19C11.7866 19 11.6668 18.948 11.5737 18.8593L9.39972 16.7789H2.40882C1.08727 16.7789 0 15.6797 0 14.3014V8.48045C0 7.10222 1.08727 5.97607 2.40882 5.97607H7.60331V2.4853C7.60331 1.10701 8.6989 0 10.0204 0H17.619C18.9404 0 20 1.10701 20 2.4853ZM19.0083 2.4853C19.0083 1.67732 18.3936 1.03432 17.6189 1.03432H10.0204C9.24573 1.03432 8.59504 1.67732 8.59504 2.4853V6.49806V11.3211L9.59201 10.3814C9.63818 10.3375 9.68992 10.2972 9.72766 10.2609C10.1829 9.8234 10.2994 9.75347 10.8932 9.76622C10.9742 9.768 11.0707 9.76864 11.1882 9.76864H17.6189C18.3936 9.76864 19.0083 9.11426 19.0083 8.30634V2.4853Z" fill="white"/>
</svg>
