<svg width="102" height="52" viewBox="0 0 102 52" fill="none" xmlns="http://www.w3.org/2000/svg">
<g opacity="0.33">
<path d="M51.527 18.1778H47.0179V22.1254H44.0508V22.9756H54.489V22.1254H51.527V18.1778Z" fill="white"/>
<path d="M53.2716 15.2047H51.529V0.890915H53.2313C58.7034 0.890915 60.5707 4.92931 60.5707 8.04813C60.5707 11.7907 59.0115 15.2047 53.2716 15.2047ZM53.1853 0.0350504H49.269L44.0982 2.92872V3.8609L47.0199 2.31378V14.5273V15.1429H46.8354C44.2367 15.1429 43.2789 13.7282 43.2473 12.1723V11.9522C43.2473 11.3385 42.7546 10.8106 42.1423 10.8106C41.5352 10.8106 41.0391 11.3385 41.0391 11.9522V11.9528C41.0483 13.8065 42.4608 16.2334 46.698 16.2334H47.0199H47.0475H53.5809C62.7335 16.2334 65.3143 12.5072 65.3143 8.13643C65.3143 3.4276 62.1626 0.0350504 53.1853 0.0350504Z" fill="white"/>
<path d="M18.8451 40.2995H20.5279V40.7183H14.7305V40.2995H16.4029V28.4435H14.7305V28.0449H20.6297C21.7617 28.0449 22.7523 28.1086 23.6014 28.2385C24.4563 28.3691 25.1635 28.658 25.7395 29.107C26.3104 29.5561 26.5939 30.2215 26.5939 31.1C26.5939 31.954 26.2501 32.6976 25.563 33.3214C24.8749 33.947 23.7331 34.321 22.136 34.4497V34.5349C23.061 34.6717 23.7837 34.8597 24.2988 35.1037C24.8203 35.3472 25.1991 35.6613 25.4412 36.041C25.6895 36.4207 25.8563 36.859 25.9465 37.3522C26.0379 37.8486 26.1489 38.6414 26.2702 39.7287C26.3208 40.1891 26.3921 40.5524 26.4835 40.8261C26.5732 41.0986 26.7462 41.2342 26.9883 41.2342C27.155 41.2342 27.362 41.156 27.5994 40.9977C27.838 40.84 28.0294 40.6798 28.1657 40.5215L28.4945 40.8545C28.1358 41.3231 27.7765 41.6296 27.4229 41.7722C27.0636 41.9166 26.6496 41.9854 26.1897 41.9854C25.5935 41.9854 25.1232 41.8989 24.784 41.7274C24.4454 41.5552 24.1878 41.2487 24.0108 40.8072C23.8285 40.3638 23.6923 39.7047 23.5917 38.8274C23.4847 37.8296 23.3594 37.0507 23.2174 36.49C23.0708 35.9293 22.8885 35.5263 22.6764 35.2785C22.4591 35.0293 22.2067 34.8729 21.9129 34.8124C21.6254 34.7543 21.1856 34.7241 20.609 34.7241H18.8451V40.2995ZM18.8451 34.3053H20.3715C21.0235 34.3053 21.6047 34.2327 22.1049 34.0833C22.6057 33.9332 23.0208 33.6229 23.3542 33.1467C23.6877 32.6667 23.8544 31.9818 23.8544 31.0805C23.8544 30.3905 23.7222 29.85 23.4548 29.4665C23.1875 29.0818 22.8126 28.8156 22.3326 28.663C21.8525 28.5161 21.2408 28.4435 20.4975 28.4435H18.8451V34.3053Z" fill="white"/>
<path d="M32.393 40.299V28.443H30.7148V28.0444H41.4514L41.6888 32.0008H41.1685C41.0018 30.8 40.6178 29.9069 40.036 29.3222C39.4495 28.7344 38.6309 28.443 37.5742 28.443H34.8347V34.1932H35.6177C36.2047 34.1932 36.7152 34.0412 37.1499 33.739C37.5845 33.4401 37.8576 32.7526 37.9691 31.6817H38.4038V37.1663H37.9691C37.8473 36.4706 37.7104 35.944 37.554 35.5832C37.4028 35.225 37.1901 34.9727 36.917 34.8251C36.6445 34.6845 36.2553 34.6132 35.7448 34.6132H34.8347V40.299H37.949C38.8792 40.299 39.6669 40.0385 40.3085 39.5081C40.9564 38.9764 41.4163 37.9616 41.6888 36.4485H42.2143L41.7601 40.7178H30.7148V40.299H32.393Z" fill="white"/>
<path d="M53.3713 37.2726L57.4486 28.0454H61.5627V28.444H59.8897V40.3H61.5627V40.7188H55.7698V40.3H57.4486V29.3037L52.6135 40.6191H52.2186L47.1639 29.4039V38.5649C47.1639 39.0133 47.2599 39.3962 47.4519 39.7153C47.644 40.0281 48.0987 40.2281 48.822 40.3V40.7188H44.9453V40.3C45.6519 40.3 46.1273 40.1057 46.3544 39.7153C46.5919 39.3211 46.7086 38.9339 46.7086 38.5422V29.6341C46.7086 28.8407 46.2642 28.444 45.3794 28.444H44.985L45.0057 28.0454H49.125L53.3713 37.2726Z" fill="white"/>
<path d="M66.2022 40.299V28.443H64.5234V28.0444H70.3226V28.443H68.6387V40.299H70.3226V40.7178H64.5234V40.299H66.2022Z" fill="white"/>
<path d="M74.9594 40.299V28.443H73.2812V28.0444H84.0178L84.2553 32.0008H83.7384C83.5677 30.8 83.1882 29.9069 82.6024 29.3222C82.0154 28.7344 81.1921 28.443 80.1406 28.443H77.3954V34.1932H78.1841C78.7711 34.1932 79.2817 34.0412 79.7146 33.739C80.1555 33.4401 80.4286 32.7526 80.5338 31.6817H80.9696V37.1663H80.5338C80.4131 36.4706 80.2774 35.944 80.1245 35.5832C79.9681 35.225 79.7571 34.9727 79.4829 34.8251C79.2109 34.6845 78.8211 34.6132 78.3106 34.6132H77.3954V40.299H80.5137C81.4502 40.299 82.2327 40.0385 82.8795 39.5081C83.5222 38.9764 83.9816 37.9616 84.2553 36.4485H84.7853L84.326 40.7178H73.2812V40.299H74.9594Z" fill="white"/>
<path d="M91.6271 40.3001H93.3047V40.7189H87.5078V40.3001H89.186V28.4442H87.5078V28.0456H93.4116C94.5431 28.0456 95.5348 28.1093 96.3885 28.2392C97.2388 28.3697 97.9506 28.6586 98.5215 29.1077C99.0935 29.5567 99.3804 30.2221 99.3804 31.1007C99.3804 31.9547 99.0326 32.6983 98.345 33.322C97.658 33.9477 96.5093 34.3217 94.9179 34.4503V34.5355C95.8429 34.6724 96.565 34.8603 97.0807 35.1044C97.6022 35.3478 97.9805 35.6619 98.2242 36.0416C98.4709 36.4213 98.6382 36.8596 98.7296 37.3528C98.8204 37.8492 98.9308 38.642 99.0527 39.7293C99.1033 40.1897 99.174 40.553 99.2648 40.8268C99.3563 41.0992 99.523 41.2348 99.7702 41.2348C99.9369 41.2348 100.14 41.1566 100.382 40.9983C100.62 40.8406 100.813 40.6804 100.948 40.5221L101.276 40.8551C100.918 41.3237 100.564 41.6303 100.205 41.7728C99.8461 41.9166 99.4321 41.9854 98.9716 41.9854C98.3749 41.9854 97.9052 41.8996 97.5665 41.728C97.2325 41.5558 96.9704 41.2493 96.7927 40.8078C96.611 40.3644 96.4754 39.7054 96.373 38.8281C96.2678 37.8303 96.1459 37.0514 95.9993 36.4907C95.8527 35.93 95.6716 35.527 95.4589 35.2791C95.2416 35.03 94.9892 34.8735 94.6954 34.813C94.4074 34.755 93.9676 34.7247 93.3909 34.7247H91.6271V40.3001ZM91.6271 34.3059H93.1535C93.8112 34.3059 94.3873 34.2334 94.8823 34.0839C95.3824 33.9338 95.8033 33.6235 96.1367 33.1467C96.469 32.6673 96.6363 31.9824 96.6363 31.0811C96.6363 30.3911 96.5001 29.8506 96.2373 29.4672C95.9694 29.0818 95.5952 28.8163 95.1151 28.6636C94.6339 28.5167 94.0233 28.4442 93.28 28.4442H91.6271V34.3059Z" fill="white"/>
<path d="M1.68508 40.2577V28.3229H0V27.9211H6.31488C6.82081 27.9211 7.3664 27.9647 7.95167 28.0523C8.53693 28.1406 9.136 28.3229 9.74771 28.5979C10.3588 28.8741 10.8751 29.2998 11.2937 29.8732C11.7133 30.4484 11.9232 31.1939 11.9232 32.114C11.9232 33.1875 11.5386 34.1449 10.7699 34.9831C10.0001 35.8238 8.50876 36.2433 6.29303 36.2433H4.1417V40.2577H5.83253V40.6777H0V40.2577H1.68508ZM4.1417 35.8421H5.65718C7.07952 35.8421 8.01606 35.528 8.46622 34.8986C8.9158 34.2685 9.14749 33.4612 9.16129 32.4735V31.8201C9.15439 31.1787 9.09115 30.6218 8.97444 30.1456C8.85716 29.6707 8.54211 29.2481 8.02986 28.8779C7.51703 28.5083 6.7271 28.3229 5.65718 28.3229H4.1417V35.8421Z" fill="white"/>
<path d="M15.9766 46.1369L17.488 49.4708L19 46.1369H19.8434V51.8877H18.9926V48.0379L17.7921 50.7789H17.1689L15.9915 48.0625V51.8877H15.1406V46.1369H15.9766Z" fill="white"/>
<path d="M21.5703 46.1379H24.7835V46.9799H22.4517V48.4967H24.5558V49.3305H22.4517V51.0555H24.7835V51.8887H21.5703V46.1379Z" fill="white"/>
<path d="M27.1157 48.9543H27.9287C28.7186 48.9543 29.0681 48.6213 29.0681 47.954C29.0681 47.3044 28.6881 46.9789 27.9287 46.9789H27.1157V48.9543ZM27.1157 49.7875V51.8877H26.2344V46.1369H28.0195C29.2354 46.1369 29.9495 46.7872 29.9495 47.954C29.9495 49.1214 29.2354 49.7875 28.0195 49.7875H27.1157Z" fill="white"/>
<path d="M31.3711 46.1379H34.5843V46.9799H32.2524V48.4967H34.3566V49.3305H32.2524V51.0555H34.5843V51.8887H31.3711V46.1379Z" fill="white"/>
<path d="M36.7802 51.8906H35.7695L37.3575 48.9825L36.0507 46.1399H36.993L38.0945 48.582H38.6642V46.1399H39.5456V48.582H40.1153L41.2169 46.1399H42.1586L40.8524 48.9825L42.4397 51.8906H41.4296L40.0849 49.4151H39.5456V51.8906H38.6642V49.4151H38.125L36.7802 51.8906Z" fill="white"/>
<path d="M45.7606 47.5387L45.0615 49.8641H46.4591L45.7606 47.5387ZM44.4612 51.8887H43.5195L45.3426 46.1379H46.1785L48.0016 51.8887H47.0668L46.7097 50.6973H44.8183L44.4612 51.8887Z" fill="white"/>
<path d="M54.9745 46.1379V46.9799H52.7335V51.8887H51.8516V46.1379H54.9745Z" fill="white"/>
<path d="M56.9282 49.3809C56.9282 50.5893 57.2852 51.1229 58.0073 51.1229C58.7289 51.1229 59.0939 50.5893 59.0939 49.3809V48.6473C59.0939 47.4389 58.7289 46.9053 58.0073 46.9053C57.2852 46.9053 56.9282 47.4389 56.9282 48.6473V49.3809ZM59.9747 49.3809C59.9747 51.1229 59.2302 51.9648 58.0073 51.9648C56.7839 51.9648 56.0469 51.1229 56.0469 49.3809V48.6473C56.0469 46.9053 56.7839 46.064 58.0073 46.064C59.2302 46.064 59.9747 46.9053 59.9747 48.6473V49.3809Z" fill="white"/>
<path d="M61.0781 46.1369H64.9749V46.9789H63.4709V51.8877H62.5896V46.9789H61.0781V46.1369Z" fill="white"/>
<path d="M66.3203 46.1369H69.5341V46.9789H67.2017V48.4958H69.3059V49.3296H67.2017V51.0545H69.5341V51.8877H66.3203V46.1369Z" fill="white"/>
<path d="M71.6505 46.139H74.9925V51.8898H74.1118V46.981H72.5313V47.6395C72.5313 48.5559 72.5089 49.2484 72.4709 49.7145C72.4324 50.173 72.3646 50.5477 72.2657 50.8233C72.03 51.4899 71.5517 51.8311 70.7617 51.9648V50.9229C71.1182 50.8485 71.3539 50.6479 71.4602 50.3395C71.5896 49.9731 71.6505 49.0724 71.6505 47.6395V46.139Z" fill="white"/>
<path d="M77.6631 51.8906H76.7812V46.1399H77.6631V51.8906Z" fill="white"/>
<path d="M80.3188 49.3207V51.0545H81.2381C81.9298 51.0545 82.2713 50.7625 82.2713 50.188C82.2713 49.5875 81.9142 49.3207 81.1318 49.3207H80.3188ZM80.3188 46.9707V48.4876H81.1772C81.7924 48.4876 82.104 48.2208 82.104 47.6872C82.104 47.1959 81.8533 46.9707 81.0634 46.9707H80.3188ZM79.4375 46.137H81.1237C82.3627 46.137 82.9853 46.6371 82.9853 47.6292C82.9853 48.2208 82.6812 48.6875 82.2184 48.8792C82.841 49.071 83.1526 49.5295 83.1526 50.2378C83.1526 50.7127 83.0008 51.1132 82.6967 51.421C82.4006 51.7294 81.9298 51.8877 81.291 51.8877H79.4375V46.137Z" fill="white"/>
</g>
</svg>
