<svg width="32" height="32" viewBox="0 0 32 32" fill="none" xmlns="http://www.w3.org/2000/svg">
<circle cx="15.9998" cy="15.9998" r="15.4998" fill="white" fill-opacity="0.5" stroke="#F0EDEA"/>
<path d="M17.7339 19.627H14.2672C14.0463 19.627 13.8672 19.8196 13.8672 20.0573C13.8672 20.295 14.0463 20.4877 14.2672 20.4877H17.7339C17.9548 20.4877 18.1339 20.295 18.1339 20.0573C18.1339 19.8196 17.9548 19.627 17.7339 19.627Z" fill="#D9BD94"/>
<path d="M17.7339 18.2695H14.2672C14.0463 18.2695 13.8672 18.4622 13.8672 18.6999C13.8672 18.9376 14.0463 19.1303 14.2672 19.1303H17.7339C17.9548 19.1303 18.1339 18.9376 18.1339 18.6999C18.1339 18.4622 17.9548 18.2695 17.7339 18.2695Z" fill="#D9BD94"/>
<path d="M21.0667 12.9212H19.7939V10.4304C19.7939 10.1927 19.6149 10 19.3939 10H12.6061C12.3852 10 12.2061 10.1927 12.2061 10.4304V12.9212H10.9333C10.4187 12.9212 10 13.3717 10 13.9254V18.2552C10 18.8089 10.4187 19.2594 10.9333 19.2594H12.2061V21.5696C12.2061 21.8073 12.3852 22 12.6061 22H19.3939C19.6148 22 19.7939 21.8073 19.7939 21.5696V19.2594H21.0667C21.5813 19.2594 22 18.8089 22 18.2552V13.9254C22 13.3717 21.5813 12.9212 21.0667 12.9212ZM13.006 10.8608H18.9939V12.9212H13.006V10.8608ZM18.9939 21.1392H13.0061C13.0061 21.0551 13.0061 17.7223 13.0061 17.6182H18.9939C18.9939 17.7249 18.9939 21.0584 18.9939 21.1392ZM19.3939 15.4483H18.3757C18.1548 15.4483 17.9757 15.2556 17.9757 15.0179C17.9757 14.7802 18.1548 14.5875 18.3757 14.5875H19.3939C19.6148 14.5875 19.7939 14.7802 19.7939 15.0179C19.7939 15.2556 19.6149 15.4483 19.3939 15.4483Z" fill="#D9BD94"/>
</svg>
