<svg width="10" height="11" viewBox="0 0 10 11" fill="none" xmlns="http://www.w3.org/2000/svg">
<path d="M6.2877 11H1.85615C0.832639 11 0 10.229 0 9.28125V3.45898C0 2.51124 0.832639 1.74023 1.85615 1.74023H6.2877C7.31121 1.74023 8.14385 2.51124 8.14385 3.45898V9.28125C8.14385 10.229 7.31121 11 6.2877 11ZM1.85615 2.59961C1.34444 2.59961 0.928074 2.98515 0.928074 3.45898V9.28125C0.928074 9.75508 1.34444 10.1406 1.85615 10.1406H6.2877C6.79941 10.1406 7.21578 9.75508 7.21578 9.28125V3.45898C7.21578 2.98515 6.79941 2.59961 6.2877 2.59961H1.85615ZM10 8.20703V1.71875C10 0.771003 9.16736 0 8.14385 0H2.99304C2.73673 0 2.529 0.192352 2.529 0.429687C2.529 0.667022 2.73673 0.859375 2.99304 0.859375H8.14385C8.65556 0.859375 9.07193 1.24492 9.07193 1.71875V8.20703C9.07193 8.44436 9.27966 8.63671 9.53596 8.63671C9.79227 8.63671 10 8.44436 10 8.20703Z" fill="#D9BD94"/>
</svg>
