<svg width="859" height="382" viewBox="0 0 859 382" fill="none" xmlns="http://www.w3.org/2000/svg">
<g opacity="0.02">
<path d="M255.42 230.238C257.147 230.238 258.011 234.345 258.011 242.56C258.011 246.019 257.579 249.478 256.715 252.937C256.283 256.396 255.635 258.126 254.772 258.126C241.816 257.261 223.677 256.396 200.356 255.531V358.003C200.356 362.759 198.629 365.786 195.174 367.083L167.966 380.703C165.375 381.568 164.079 382 164.079 382C162.784 382 162.136 380.271 162.136 376.812V254.883C134.928 254.018 82.888 253.586 6.01531 253.586C3.85597 253.586 2.1285 252.721 0.83289 250.992C-0.462717 249.262 -0.246782 247.533 1.48069 245.803L190.639 1.94566C191.503 1.08092 192.799 0.648534 194.526 0.648534C195.822 0.648534 197.117 1.08092 198.413 1.94566C199.708 2.37804 200.356 3.24278 200.356 4.53989V231.535C210.289 231.535 228.644 231.102 255.42 230.238ZM37.7577 234.129C74.8984 234.129 116.358 233.697 162.136 232.832V66.1528L34.5187 229.589C33.2231 230.886 32.7912 231.967 33.223 232.832C34.0868 233.697 35.5983 234.129 37.7577 234.129Z" fill="black"/>
<path d="M434.972 267.205C409.492 267.205 386.603 261.368 366.305 249.694C346.439 238.02 330.676 222.023 319.016 201.701C307.787 180.947 302.173 157.599 302.173 131.657C302.173 106.147 307.787 83.4476 319.016 63.5586C330.676 43.6695 346.655 28.1041 366.953 16.8625C387.251 5.62082 410.14 0 435.62 0C460.669 0 483.126 5.837 502.992 17.511C522.858 28.7527 538.189 44.5342 548.986 64.8557C560.214 85.1771 565.829 108.093 565.829 133.603C565.829 159.113 560.214 182.028 548.986 202.35C537.757 222.671 522.21 238.669 502.344 250.343C482.478 261.585 460.021 267.205 434.972 267.205ZM442.098 258.126C468.01 258.126 487.444 247.749 500.4 226.995C513.788 205.809 520.482 177.272 520.482 141.385C520.482 98.1483 511.629 65.288 493.922 42.8047C476.648 20.3214 454.838 9.07978 428.494 9.07978C403.014 9.07978 382.932 19.8891 368.249 41.5076C353.997 63.1262 346.871 91.4465 346.871 126.469C346.871 164.95 355.509 196.513 372.783 221.158C390.058 245.803 413.163 258.126 442.098 258.126Z" fill="black"/>
<path d="M856.409 230.238C858.136 230.238 859 234.345 859 242.56C859 246.019 858.568 249.478 857.704 252.937C857.273 256.396 856.625 258.126 855.761 258.126C842.805 257.261 824.666 256.396 801.346 255.531V358.003C801.346 362.759 799.618 365.786 796.163 367.083L768.955 380.703C766.364 381.568 765.069 382 765.069 382C763.773 382 763.125 380.271 763.125 376.812V254.883C735.917 254.018 683.877 253.586 607.005 253.586C604.845 253.586 603.118 252.721 601.822 250.992C600.527 249.262 600.742 247.533 602.47 245.803L791.628 1.94566C792.492 1.08092 793.788 0.648534 795.515 0.648534C796.811 0.648534 798.107 1.08092 799.402 1.94566C800.698 2.37804 801.346 3.24278 801.346 4.53989V231.535C811.279 231.535 829.633 231.102 856.409 230.238ZM638.747 234.129C675.888 234.129 717.347 233.697 763.125 232.832V66.1528L635.508 229.589C634.212 230.886 633.78 231.967 634.212 232.832C635.076 233.697 636.588 234.129 638.747 234.129Z" fill="black"/>
</g>
</svg>
