<svg width="16" height="15" viewBox="0 0 16 15" fill="none" xmlns="http://www.w3.org/2000/svg">
<path opacity="0.48" d="M16 1.96208V6.55759C16 7.64567 15.1523 8.52861 14.0951 8.52861H8.95057C8.84998 8.52861 8.76716 8.52802 8.69787 8.52652C8.62528 8.52498 8.54356 8.52439 8.51169 8.52802C8.4785 8.5507 8.39713 8.62741 8.31872 8.70176C8.28765 8.7312 8.25247 8.76359 8.21452 8.79925L6.75901 10.1646C6.64291 10.2737 6.47114 10.3019 6.32736 10.2366C6.18358 10.1714 6.08264 10.0248 6.08264 9.8631V5.53452H1.92705C1.30724 5.53452 0.793388 6.05726 0.793388 6.69509V11.2906C0.793388 11.9285 1.30728 12.43 1.92705 12.43H7.67356C7.77252 12.43 7.86508 12.4768 7.93816 12.5454L9.12397 13.6707V9.7902C9.12397 9.56469 9.30155 9.38192 9.52066 9.38192C9.73977 9.38192 9.91735 9.56469 9.91735 9.7902V14.5961C9.91735 14.7578 9.82744 14.9022 9.68361 14.9674C9.63218 14.9908 9.58052 15 9.52643 15C9.42929 15 9.33347 14.9589 9.25893 14.8889L7.51978 13.2465H1.92705C0.869818 13.2465 0 12.3787 0 11.2906V6.69509C0 5.60701 0.869818 4.71795 1.92705 4.71795H6.08264V1.96208C6.08264 0.873955 6.95912 0 8.01635 0H14.0952C15.1523 0 16 0.873955 16 1.96208ZM15.2066 1.96208C15.2066 1.3242 14.7148 0.816569 14.0951 0.816569H8.01635C7.39658 0.816569 6.87603 1.3242 6.87603 1.96208V5.13005V8.93771L7.67361 8.19585C7.71055 8.16115 7.75193 8.12939 7.78213 8.10072C8.14634 7.75531 8.23952 7.70011 8.71458 7.71018C8.77937 7.71158 8.85655 7.71208 8.95057 7.71208H14.0951C14.7148 7.71208 15.2066 7.19547 15.2066 6.55764V1.96208Z" fill="black"/>
</svg>
