<svg width="10" height="12" viewBox="0 0 10 12" fill="none" xmlns="http://www.w3.org/2000/svg">
<path d="M0.728907 3.91211H0.698875C0.313894 3.91211 0 4.23443 0 4.62746V7.74198C0 8.13656 0.313894 8.45783 0.698875 8.45783H0.729418C1.1144 8.45783 1.42829 8.13552 1.42829 7.74198V4.62744C1.42778 4.23442 1.1134 3.91211 0.728907 3.91211Z" fill="white"/>
<path d="M1.76172 8.9451C1.76172 9.30687 2.05057 9.60151 2.40401 9.60151H3.09038V11.2838C3.09038 11.6789 3.40527 12.0002 3.78926 12.0002H3.81929C4.20478 12.0002 4.51917 11.6784 4.51917 11.2838V9.60151H5.47837V11.2838C5.47837 11.6789 5.79426 12.0002 6.17825 12.0002H6.20779C6.59326 12.0002 6.90716 11.6784 6.90716 11.2838V9.60151H7.59401C7.94694 9.60151 8.23582 9.30687 8.23582 8.9451V4.02734H1.76172V8.9451Z" fill="white"/>
<path d="M6.61328 1.04483L7.15847 0.183458C7.19351 0.129129 7.17799 0.0548454 7.12442 0.0194734C7.07137 -0.0163975 6.99877 -0.0015265 6.96421 0.0543228L6.39902 0.945441C5.975 0.767631 5.5014 0.667715 5.00126 0.667715C4.50063 0.667715 4.02804 0.767631 3.60302 0.945441L3.03882 0.0543228C3.00429 -0.0015265 2.93118 -0.0163975 2.87762 0.0194734C2.82405 0.0548217 2.80852 0.129129 2.84357 0.183458L3.38925 1.04483C2.40551 1.53831 1.74219 2.46836 1.74219 3.53523C1.74219 3.60081 1.7462 3.66538 1.7517 3.72943H8.25131C8.25681 3.66538 8.26031 3.60081 8.26031 3.53523C8.26034 2.46836 7.5965 1.53831 6.61328 1.04483ZM3.49438 2.58724C3.32166 2.58724 3.18148 2.44477 3.18148 2.26749C3.18148 2.0902 3.32166 1.94824 3.49438 1.94824C3.6681 1.94824 3.80728 2.09017 3.80728 2.26749C3.80728 2.4448 3.6671 2.58724 3.49438 2.58724ZM6.50766 2.58724C6.33494 2.58724 6.19476 2.44477 6.19476 2.26749C6.19476 2.0902 6.33494 1.94824 6.50766 1.94824C6.68086 1.94824 6.82004 2.09017 6.82004 2.26749C6.82004 2.44477 6.68086 2.58724 6.50766 2.58724Z" fill="white"/>
<path d="M9.29922 3.91309H9.27019C8.88521 3.91309 8.57031 4.2354 8.57031 4.62844V7.74296C8.57031 8.13754 8.88572 8.45881 9.27019 8.45881H9.29973C9.6852 8.45881 9.99861 8.13649 9.99861 7.74296V4.62841C9.99861 4.2354 9.6842 3.91309 9.29922 3.91309Z" fill="white"/>
</svg>
