<svg width="9" height="11" viewBox="0 0 9 11" fill="none" xmlns="http://www.w3.org/2000/svg">
<path d="M0.464456 4.04375C-0.466595 5.65749 0.125292 8.10642 1.15488 9.59129C1.66881 10.3337 2.18913 11 2.9018 11C2.91523 11 2.9287 10.9998 2.94249 10.9992C3.27733 10.9859 3.51929 10.8829 3.75323 10.7834C4.01588 10.6716 4.28753 10.556 4.7136 10.556C5.11896 10.556 5.37763 10.6679 5.62779 10.776C5.87434 10.8825 6.12829 10.9927 6.50353 10.9857C7.30628 10.9708 7.79916 10.2517 8.23401 9.61737C8.68779 8.95503 8.91541 8.31195 8.99222 8.06621L8.99532 8.05643C9.00994 8.01276 8.98929 7.96508 8.94737 7.94586C8.94621 7.94532 8.94195 7.94355 8.94076 7.94304C8.7994 7.8853 7.55937 7.33585 7.54633 5.83828C7.53424 4.62159 8.47659 3.97729 8.66558 3.86051L8.67439 3.85503C8.69486 3.84186 8.70913 3.82098 8.71397 3.7971C8.7188 3.77327 8.71375 3.74845 8.70003 3.7284C8.04957 2.77765 7.05262 2.63437 6.65125 2.61713C6.593 2.61132 6.53288 2.6084 6.47251 2.6084C6.00108 2.6084 5.54947 2.78624 5.18666 2.92913C4.93621 3.02776 4.71989 3.11295 4.57069 3.11295C4.40304 3.11295 4.18548 3.02672 3.93356 2.92689C3.59667 2.79334 3.21482 2.64201 2.81059 2.64201C2.80095 2.64201 2.79145 2.64212 2.7821 2.6423C1.8422 2.65611 0.954084 3.19319 0.464456 4.04375Z" fill="white"/>
<path d="M6.6537 6.92968e-05C6.08452 0.0232231 5.40175 0.373163 4.99365 0.850594C4.64683 1.25189 4.30803 1.92097 4.39729 2.59539C4.40289 2.63759 4.43726 2.67015 4.47976 2.67343C4.51818 2.67643 4.55739 2.67794 4.59646 2.67798C5.153 2.67798 5.75337 2.37045 6.16338 1.87528C6.59491 1.3524 6.81311 0.681376 6.74711 0.0803142C6.74191 0.0332132 6.70042 -0.00177003 6.6537 6.92968e-05Z" fill="white"/>
</svg>
