<svg width="14" height="11" viewBox="0 0 14 11" fill="none" xmlns="http://www.w3.org/2000/svg">
<path fill-rule="evenodd" clip-rule="evenodd" d="M9.09522 1.36193C8.06409 0.532063 6.79915 -0.0587798 5.4529 0.00466212C2.64412 -0.0901803 0.0615256 2.3911 0.0145115 5.22484C-0.165286 7.54079 1.34488 9.81252 3.47704 10.6315C5.60156 11.4562 8.32457 10.8942 9.68099 8.96919C10.4721 7.89566 10.7147 6.54977 10.6888 5.23691C10.7326 5.23738 10.7763 5.23785 10.8201 5.23831C11.0305 5.24056 11.2408 5.24282 11.4506 5.24493C11.4531 5.47474 11.4542 5.7047 11.4554 5.93464C11.4564 6.13904 11.4574 6.34344 11.4594 6.54771H12.7235L12.7235 6.54691C12.7255 6.1131 12.7276 5.67875 12.7323 5.2428C12.9671 5.24015 13.2015 5.23831 13.4355 5.23647C13.624 5.235 13.8123 5.23352 14.0005 5.23162V3.9331C13.8019 3.9311 13.6028 3.93004 13.4036 3.92897C13.1796 3.92778 12.9556 3.92659 12.7323 3.92405C12.7276 3.49108 12.7255 3.05598 12.7235 2.62247L12.7235 2.61914H11.4615L11.4614 2.62411C11.4573 3.05707 11.4532 3.4895 11.4506 3.92405C11.3673 3.92457 11.2841 3.92507 11.2009 3.92558C10.8609 3.92763 10.5218 3.92968 10.1824 3.9331V4.71463C8.6043 4.7051 7.0286 4.70817 5.4529 4.71282C5.45036 5.33725 5.45289 5.96167 5.45543 6.58674L5.45544 6.58788C6.08841 6.60857 6.72232 6.61071 7.35602 6.61285C7.76229 6.61422 8.16846 6.61558 8.57425 6.62184C8.11618 8.94548 4.98149 9.69909 3.32329 8.18162C1.61807 6.84998 1.69876 3.93037 3.47195 2.69357C4.71084 1.6958 6.47323 1.94252 7.71275 2.80636C8.19941 2.35201 8.65494 1.86626 9.09522 1.36193Z" fill="white"/>
</svg>
