<svg width="40" height="40" viewBox="0 0 40 40" fill="none" xmlns="http://www.w3.org/2000/svg">
<ellipse cx="12.9408" cy="37.6471" rx="2.35295" ry="2.35289" transform="rotate(-90 12.9408 37.6471)" fill="#D3D1CE"/>
<path d="M12.9408 35.5441C14.1022 35.5441 15.0437 36.4856 15.0437 37.6471C15.0437 38.8085 14.1022 39.75 12.9408 39.75C11.7794 39.75 10.8379 38.8085 10.8379 37.6471C10.8379 36.4856 11.7794 35.5441 12.9408 35.5441Z" stroke="black" stroke-opacity="0.16" stroke-width="0.5"/>
<ellipse cx="19.9994" cy="37.6471" rx="2.35295" ry="2.35289" transform="rotate(-90 19.9994 37.6471)" fill="#D3D1CE"/>
<path d="M19.9994 35.5441C21.1608 35.5441 22.1023 36.4856 22.1023 37.6471C22.1023 38.8085 21.1608 39.75 19.9994 39.75C18.838 39.75 17.8965 38.8085 17.8965 37.6471C17.8965 36.4856 18.838 35.5441 19.9994 35.5441Z" stroke="black" stroke-opacity="0.16" stroke-width="0.5"/>
<ellipse cx="27.058" cy="37.6471" rx="2.35295" ry="2.35289" transform="rotate(-90 27.058 37.6471)" fill="#D3D1CE"/>
<path d="M27.058 35.5441C28.2194 35.5441 29.1609 36.4856 29.1609 37.6471C29.1609 38.8085 28.2194 39.75 27.058 39.75C25.8966 39.75 24.9551 38.8085 24.9551 37.6471C24.9551 36.4856 25.8966 35.5441 27.058 35.5441Z" stroke="black" stroke-opacity="0.16" stroke-width="0.5"/>
<ellipse cx="37.6468" cy="12.9411" rx="2.35289" ry="2.35295" fill="#D3D1CE"/>
<path d="M39.7497 12.9411C39.7497 14.1025 38.8082 15.044 37.6468 15.044C36.4854 15.044 35.5439 14.1025 35.5439 12.9411C35.5439 11.7797 36.4854 10.8381 37.6468 10.8381C38.8082 10.8381 39.7497 11.7797 39.7497 12.9411Z" stroke="black" stroke-opacity="0.16" stroke-width="0.5"/>
<ellipse cx="37.6468" cy="19.9997" rx="2.35289" ry="2.35295" fill="#D3D1CE"/>
<path d="M39.7497 19.9997C39.7497 21.1611 38.8082 22.1026 37.6468 22.1026C36.4854 22.1026 35.5439 21.1611 35.5439 19.9997C35.5439 18.8382 36.4854 17.8967 37.6468 17.8967C38.8082 17.8967 39.7497 18.8382 39.7497 19.9997Z" stroke="black" stroke-opacity="0.16" stroke-width="0.5"/>
<ellipse cx="37.6468" cy="27.0585" rx="2.35289" ry="2.35295" fill="#D3D1CE"/>
<path d="M39.7497 27.0585C39.7497 28.2199 38.8082 29.1615 37.6468 29.1615C36.4854 29.1615 35.5439 28.2199 35.5439 27.0585C35.5439 25.8971 36.4854 24.9556 37.6468 24.9556C38.8082 24.9556 39.7497 25.8971 39.7497 27.0585Z" stroke="black" stroke-opacity="0.16" stroke-width="0.5"/>
<ellipse cx="2.35289" cy="12.9411" rx="2.35289" ry="2.35295" fill="#D3D1CE"/>
<path d="M4.45579 12.9411C4.45579 14.1025 3.51429 15.044 2.35289 15.044C1.1915 15.044 0.25 14.1025 0.25 12.9411C0.25 11.7797 1.1915 10.8381 2.35289 10.8381C3.51429 10.8381 4.45579 11.7797 4.45579 12.9411Z" stroke="black" stroke-opacity="0.16" stroke-width="0.5"/>
<ellipse cx="2.35289" cy="19.9997" rx="2.35289" ry="2.35295" fill="#D3D1CE"/>
<path d="M4.45579 19.9997C4.45579 21.1611 3.51429 22.1026 2.35289 22.1026C1.1915 22.1026 0.25 21.1611 0.25 19.9997C0.25 18.8382 1.1915 17.8967 2.35289 17.8967C3.51429 17.8967 4.45579 18.8382 4.45579 19.9997Z" stroke="black" stroke-opacity="0.16" stroke-width="0.5"/>
<ellipse cx="2.35289" cy="27.0585" rx="2.35289" ry="2.35295" fill="#D3D1CE"/>
<path d="M4.45579 27.0585C4.45579 28.2199 3.51429 29.1615 2.35289 29.1615C1.1915 29.1615 0.25 28.2199 0.25 27.0585C0.25 25.8971 1.1915 24.9556 2.35289 24.9556C3.51429 24.9556 4.45579 25.8971 4.45579 27.0585Z" stroke="black" stroke-opacity="0.16" stroke-width="0.5"/>
<ellipse cx="12.9408" cy="2.35286" rx="2.35295" ry="2.35289" transform="rotate(-90 12.9408 2.35286)" fill="#D3D1CE"/>
<path d="M12.9408 0.249916C14.1022 0.249916 15.0437 1.19143 15.0437 2.35286C15.0437 3.51429 14.1022 4.45581 12.9408 4.45581C11.7794 4.45581 10.8379 3.51429 10.8379 2.35286C10.8379 1.19143 11.7794 0.249917 12.9408 0.249916Z" stroke="black" stroke-opacity="0.16" stroke-width="0.5"/>
<ellipse cx="19.9994" cy="2.35311" rx="2.35295" ry="2.35289" transform="rotate(-90 19.9994 2.35311)" fill="#D3D1CE"/>
<path d="M19.9994 0.250161C21.1608 0.250161 22.1023 1.19168 22.1023 2.35311C22.1023 3.51454 21.1608 4.45605 19.9994 4.45605C18.838 4.45605 17.8965 3.51454 17.8965 2.35311C17.8965 1.19168 18.838 0.250161 19.9994 0.250161Z" stroke="black" stroke-opacity="0.16" stroke-width="0.5"/>
<ellipse cx="27.058" cy="2.35311" rx="2.35295" ry="2.35289" transform="rotate(-90 27.058 2.35311)" fill="#D3D1CE"/>
<path d="M27.058 0.250161C28.2194 0.250161 29.1609 1.19168 29.1609 2.35311C29.1609 3.51454 28.2194 4.45605 27.058 4.45605C25.8966 4.45605 24.9551 3.51454 24.9551 2.35311C24.9551 1.19168 25.8966 0.250161 27.058 0.250161Z" stroke="black" stroke-opacity="0.16" stroke-width="0.5"/>
<mask id="path-25-inside-1" fill="white">
<path fill-rule="evenodd" clip-rule="evenodd" d="M9 8C8.86193 8 8.73039 8.02798 8.61075 8.07859L8.02032 8.79847C8.007 8.86356 8 8.93096 8 9V9V14V26V31C8 31.5523 8.44772 32 9 32H14H26H31C31.5523 32 32 31.5523 32 31V26V14V9C32 8.44772 31.5523 8 31 8H26H14H9ZM25 25V15H15V25L25 25Z"/>
</mask>
<path fill-rule="evenodd" clip-rule="evenodd" d="M9 8C8.86193 8 8.73039 8.02798 8.61075 8.07859L8.02032 8.79847C8.007 8.86356 8 8.93096 8 9V9V14V26V31C8 31.5523 8.44772 32 9 32H14H26H31C31.5523 32 32 31.5523 32 31V26V14V9C32 8.44772 31.5523 8 31 8H26H14H9ZM25 25V15H15V25L25 25Z" fill="#D3D1CE"/>
<path d="M8.21362 8.95701L8.80405 8.23713L8.41746 7.92004L7.82702 8.63992L8.21362 8.95701ZM8.61075 8.07859L8.41598 7.61808L8.30238 7.66613L8.22416 7.7615L8.61075 8.07859ZM8.02032 8.79847L7.63372 8.48138L7.55527 8.57703L7.53047 8.69823L8.02032 8.79847ZM25 25V25.5H25.5V25H25ZM25 15H25.5V14.5H25V15ZM15 15V14.5H14.5V15H15ZM15 25H14.5V25.5H15V25ZM8.80553 8.53909C8.86466 8.51408 8.93004 8.5 9 8.5V7.5C8.79382 7.5 8.59613 7.54188 8.41598 7.61808L8.80553 8.53909ZM8.40691 9.11555L8.99735 8.39567L8.22416 7.7615L7.63372 8.48138L8.40691 9.11555ZM8.5 9C8.5 8.96483 8.50356 8.931 8.51017 8.8987L7.53047 8.69823C7.51044 8.79612 7.5 8.8971 7.5 9H8.5ZM8.5 9V9H7.5V9H8.5ZM8.5 14V9H7.5V14H8.5ZM8.5 26V14H7.5V26H8.5ZM8.5 31V26H7.5V31H8.5ZM9 31.5C8.72386 31.5 8.5 31.2761 8.5 31H7.5C7.5 31.8284 8.17157 32.5 9 32.5V31.5ZM14 31.5H9V32.5H14V31.5ZM26 31.5H14V32.5H26V31.5ZM31 31.5H26V32.5H31V31.5ZM31.5 31C31.5 31.2761 31.2761 31.5 31 31.5V32.5C31.8284 32.5 32.5 31.8284 32.5 31H31.5ZM31.5 26V31H32.5V26H31.5ZM31.5 14V26H32.5V14H31.5ZM31.5 9V14H32.5V9H31.5ZM31 8.5C31.2761 8.5 31.5 8.72386 31.5 9H32.5C32.5 8.17157 31.8284 7.5 31 7.5V8.5ZM26 8.5H31V7.5H26V8.5ZM14 8.5H26V7.5H14V8.5ZM9 8.5H14V7.5H9V8.5ZM25.5 25V15H24.5V25H25.5ZM25 14.5H15V15.5H25V14.5ZM14.5 15V25H15.5V15H14.5ZM15 25.5L25 25.5V24.5L15 24.5V25.5Z" fill="black" fill-opacity="0.16" mask="url(#path-25-inside-1)"/>
</svg>
