<svg width="52" height="36" viewBox="0 0 52 36" fill="none" xmlns="http://www.w3.org/2000/svg">
<rect x="8.27344" width="7.09099" height="36" rx="1" fill="#D3D1CE"/>
<rect x="8.52344" y="0.25" width="6.59099" height="35.5" rx="0.75" stroke="black" stroke-opacity="0.16" stroke-width="0.5"/>
<ellipse cx="2.36366" cy="7.20054" rx="2.36366" ry="2.4" fill="#D3D1CE"/>
<path d="M4.47733 7.20054C4.47733 8.39156 3.52743 9.35054 2.36366 9.35054C1.1999 9.35054 0.25 8.39156 0.25 7.20054C0.25 6.00952 1.1999 5.05054 2.36366 5.05054C3.52743 5.05054 4.47733 6.00952 4.47733 7.20054Z" stroke="black" stroke-opacity="0.16" stroke-width="0.5"/>
<ellipse cx="2.36366" cy="14.4" rx="2.36366" ry="2.4" fill="#D3D1CE"/>
<path d="M4.47733 14.4C4.47733 15.591 3.52743 16.55 2.36366 16.55C1.1999 16.55 0.25 15.591 0.25 14.4C0.25 13.209 1.1999 12.25 2.36366 12.25C3.52743 12.25 4.47733 13.209 4.47733 14.4Z" stroke="black" stroke-opacity="0.16" stroke-width="0.5"/>
<ellipse cx="2.36366" cy="21.6002" rx="2.36366" ry="2.4" fill="#D3D1CE"/>
<path d="M4.47733 21.6002C4.47733 22.7912 3.52743 23.7502 2.36366 23.7502C1.1999 23.7502 0.25 22.7912 0.25 21.6002C0.25 20.4092 1.1999 19.4502 2.36366 19.4502C3.52743 19.4502 4.47733 20.4092 4.47733 21.6002Z" stroke="black" stroke-opacity="0.16" stroke-width="0.5"/>
<ellipse cx="2.36366" cy="28.8004" rx="2.36366" ry="2.4" fill="#D3D1CE"/>
<path d="M4.47733 28.8004C4.47733 29.9914 3.52743 30.9504 2.36366 30.9504C1.1999 30.9504 0.25 29.9914 0.25 28.8004C0.25 27.6094 1.1999 26.6504 2.36366 26.6504C3.52743 26.6504 4.47733 27.6094 4.47733 28.8004Z" stroke="black" stroke-opacity="0.16" stroke-width="0.5"/>
<ellipse cx="24.8178" cy="8.40024" rx="2.36366" ry="2.4" fill="#D3D1CE"/>
<path d="M26.9314 8.40024C26.9314 9.59127 25.9815 10.5502 24.8178 10.5502C23.654 10.5502 22.7041 9.59127 22.7041 8.40024C22.7041 7.20922 23.654 6.25024 24.8178 6.25024C25.9815 6.25024 26.9314 7.20922 26.9314 8.40024Z" stroke="black" stroke-opacity="0.16" stroke-width="0.5"/>
<ellipse cx="24.8168" cy="18.0001" rx="2.36366" ry="2.4" fill="#D3D1CE"/>
<path d="M26.9305 18.0001C26.9305 19.1911 25.9806 20.1501 24.8168 20.1501C23.653 20.1501 22.7031 19.1911 22.7031 18.0001C22.7031 16.8091 23.653 15.8501 24.8168 15.8501C25.9806 15.8501 26.9305 16.8091 26.9305 18.0001Z" stroke="black" stroke-opacity="0.16" stroke-width="0.5"/>
<ellipse cx="24.8168" cy="27.6002" rx="2.36366" ry="2.4" fill="#D3D1CE"/>
<path d="M26.9305 27.6002C26.9305 28.7912 25.9806 29.7502 24.8168 29.7502C23.653 29.7502 22.7031 28.7912 22.7031 27.6002C22.7031 26.4092 23.653 25.4502 24.8168 25.4502C25.9806 25.4502 26.9305 26.4092 26.9305 27.6002Z" stroke="black" stroke-opacity="0.16" stroke-width="0.5"/>
<ellipse cx="33.0922" cy="8.40024" rx="2.36366" ry="2.4" fill="#D3D1CE"/>
<path d="M35.2058 8.40024C35.2058 9.59127 34.2559 10.5502 33.0922 10.5502C31.9284 10.5502 30.9785 9.59127 30.9785 8.40024C30.9785 7.20922 31.9284 6.25024 33.0922 6.25024C34.2559 6.25024 35.2058 7.20922 35.2058 8.40024Z" stroke="black" stroke-opacity="0.16" stroke-width="0.5"/>
<ellipse cx="33.0922" cy="18.0001" rx="2.36366" ry="2.4" fill="#D3D1CE"/>
<path d="M35.2058 18.0001C35.2058 19.1911 34.2559 20.1501 33.0922 20.1501C31.9284 20.1501 30.9785 19.1911 30.9785 18.0001C30.9785 16.8091 31.9284 15.8501 33.0922 15.8501C34.2559 15.8501 35.2058 16.8091 35.2058 18.0001Z" stroke="black" stroke-opacity="0.16" stroke-width="0.5"/>
<ellipse cx="33.0922" cy="27.6002" rx="2.36366" ry="2.4" fill="#D3D1CE"/>
<path d="M35.2058 27.6002C35.2058 28.7912 34.2559 29.7502 33.0922 29.7502C31.9284 29.7502 30.9785 28.7912 30.9785 27.6002C30.9785 26.4092 31.9284 25.4502 33.0922 25.4502C34.2559 25.4502 35.2058 26.4092 35.2058 27.6002Z" stroke="black" stroke-opacity="0.16" stroke-width="0.5"/>
<ellipse cx="41.3627" cy="8.40024" rx="2.36366" ry="2.4" fill="#D3D1CE"/>
<path d="M43.4764 8.40024C43.4764 9.59127 42.5265 10.5502 41.3627 10.5502C40.1989 10.5502 39.249 9.59127 39.249 8.40024C39.249 7.20922 40.1989 6.25024 41.3627 6.25024C42.5265 6.25024 43.4764 7.20922 43.4764 8.40024Z" stroke="black" stroke-opacity="0.16" stroke-width="0.5"/>
<ellipse cx="41.3627" cy="18.0001" rx="2.36366" ry="2.4" fill="#D3D1CE"/>
<path d="M43.4764 18.0001C43.4764 19.1911 42.5265 20.1501 41.3627 20.1501C40.1989 20.1501 39.249 19.1911 39.249 18.0001C39.249 16.8091 40.1989 15.8501 41.3627 15.8501C42.5265 15.8501 43.4764 16.8091 43.4764 18.0001Z" stroke="black" stroke-opacity="0.16" stroke-width="0.5"/>
<ellipse cx="41.3627" cy="27.6002" rx="2.36366" ry="2.4" fill="#D3D1CE"/>
<path d="M43.4764 27.6002C43.4764 28.7912 42.5265 29.7502 41.3627 29.7502C40.1989 29.7502 39.249 28.7912 39.249 27.6002C39.249 26.4092 40.1989 25.4502 41.3627 25.4502C42.5265 25.4502 43.4764 26.4092 43.4764 27.6002Z" stroke="black" stroke-opacity="0.16" stroke-width="0.5"/>
<ellipse cx="49.6361" cy="8.40024" rx="2.36366" ry="2.4" fill="#D3D1CE"/>
<path d="M51.7498 8.40024C51.7498 9.59127 50.7999 10.5502 49.6361 10.5502C48.4724 10.5502 47.5225 9.59127 47.5225 8.40024C47.5225 7.20922 48.4724 6.25024 49.6361 6.25024C50.7999 6.25024 51.7498 7.20922 51.7498 8.40024Z" stroke="black" stroke-opacity="0.16" stroke-width="0.5"/>
<ellipse cx="49.6361" cy="18.0001" rx="2.36366" ry="2.4" fill="#D3D1CE"/>
<path d="M51.7498 18.0001C51.7498 19.1911 50.7999 20.1501 49.6361 20.1501C48.4724 20.1501 47.5225 19.1911 47.5225 18.0001C47.5225 16.8091 48.4724 15.8501 49.6361 15.8501C50.7999 15.8501 51.7498 16.8091 51.7498 18.0001Z" stroke="black" stroke-opacity="0.16" stroke-width="0.5"/>
<ellipse cx="49.6361" cy="27.6002" rx="2.36366" ry="2.4" fill="#D3D1CE"/>
<path d="M51.7498 27.6002C51.7498 28.7912 50.7999 29.7502 49.6361 29.7502C48.4724 29.7502 47.5225 28.7912 47.5225 27.6002C47.5225 26.4092 48.4724 25.4502 49.6361 25.4502C50.7999 25.4502 51.7498 26.4092 51.7498 27.6002Z" stroke="black" stroke-opacity="0.16" stroke-width="0.5"/>
</svg>
