<svg width="58" height="36" viewBox="0 0 58 36" fill="none" xmlns="http://www.w3.org/2000/svg">
<rect x="8.28613" width="7.10188" height="36" rx="1" fill="#D3D1CE"/>
<rect x="8.53613" y="0.25" width="6.60188" height="35.5" rx="0.75" stroke="black" stroke-opacity="0.16" stroke-width="0.5"/>
<ellipse cx="2.36924" cy="7.20029" rx="2.36729" ry="2.4" fill="#D3D1CE"/>
<path d="M4.48654 7.20029C4.48654 8.39095 3.53537 9.35029 2.36924 9.35029C1.20312 9.35029 0.251953 8.39095 0.251953 7.20029C0.251953 6.00964 1.20312 5.05029 2.36924 5.05029C3.53537 5.05029 4.48654 6.00964 4.48654 7.20029Z" stroke="black" stroke-opacity="0.16" stroke-width="0.5"/>
<ellipse cx="2.36729" cy="14.3998" rx="2.36729" ry="2.4" fill="#D3D1CE"/>
<path d="M4.48458 14.3998C4.48458 15.5904 3.53342 16.5498 2.36729 16.5498C1.20117 16.5498 0.25 15.5904 0.25 14.3998C0.25 13.2091 1.20117 12.2498 2.36729 12.2498C3.53342 12.2498 4.48458 13.2091 4.48458 14.3998Z" stroke="black" stroke-opacity="0.16" stroke-width="0.5"/>
<ellipse cx="2.36729" cy="21.6" rx="2.36729" ry="2.4" fill="#D3D1CE"/>
<path d="M4.48458 21.6C4.48458 22.7906 3.53342 23.75 2.36729 23.75C1.20117 23.75 0.25 22.7906 0.25 21.6C0.25 20.4093 1.20117 19.45 2.36729 19.45C3.53342 19.45 4.48458 20.4093 4.48458 21.6Z" stroke="black" stroke-opacity="0.16" stroke-width="0.5"/>
<ellipse cx="2.36729" cy="28.8001" rx="2.36729" ry="2.4" fill="#D3D1CE"/>
<path d="M4.48458 28.8001C4.48458 29.9908 3.53342 30.9501 2.36729 30.9501C1.20117 30.9501 0.25 29.9908 0.25 28.8001C0.25 27.6095 1.20117 26.6501 2.36729 26.6501C3.53342 26.6501 4.48458 27.6095 4.48458 28.8001Z" stroke="black" stroke-opacity="0.16" stroke-width="0.5"/>
<rect x="22.4893" width="7.10188" height="16.8" rx="1" fill="#D3D1CE"/>
<rect x="22.7393" y="0.25" width="6.60188" height="16.3" rx="0.75" stroke="black" stroke-opacity="0.16" stroke-width="0.5"/>
<ellipse cx="35.5118" cy="4.79966" rx="2.36729" ry="2.4" fill="#D3D1CE"/>
<path d="M37.6291 4.79966C37.6291 5.99032 36.6779 6.94966 35.5118 6.94966C34.3457 6.94966 33.3945 5.99032 33.3945 4.79966C33.3945 3.609 34.3457 2.64966 35.5118 2.64966C36.6779 2.64966 37.6291 3.609 37.6291 4.79966Z" stroke="black" stroke-opacity="0.16" stroke-width="0.5"/>
<ellipse cx="35.5108" cy="11.9999" rx="2.36729" ry="2.4" fill="#D3D1CE"/>
<path d="M37.6281 11.9999C37.6281 13.1905 36.677 14.1499 35.5108 14.1499C34.3447 14.1499 33.3936 13.1905 33.3936 11.9999C33.3936 10.8092 34.3447 9.84985 35.5108 9.84985C36.677 9.84985 37.6281 10.8092 37.6281 11.9999Z" stroke="black" stroke-opacity="0.16" stroke-width="0.5"/>
<rect x="22.4893" y="19.2" width="7.10188" height="16.8" rx="1" fill="#D3D1CE"/>
<rect x="22.7393" y="19.45" width="6.60188" height="16.3" rx="0.75" stroke="black" stroke-opacity="0.16" stroke-width="0.5"/>
<ellipse cx="35.5118" cy="24.0001" rx="2.36729" ry="2.4" fill="#D3D1CE"/>
<path d="M37.6291 24.0001C37.6291 25.1908 36.6779 26.1501 35.5118 26.1501C34.3457 26.1501 33.3945 25.1908 33.3945 24.0001C33.3945 22.8094 34.3457 21.8501 35.5118 21.8501C36.6779 21.8501 37.6291 22.8094 37.6291 24.0001Z" stroke="black" stroke-opacity="0.16" stroke-width="0.5"/>
<ellipse cx="35.5108" cy="31.2003" rx="2.36729" ry="2.4" fill="#D3D1CE"/>
<path d="M37.6281 31.2003C37.6281 32.391 36.677 33.3503 35.5108 33.3503C34.3447 33.3503 33.3936 32.391 33.3936 31.2003C33.3936 30.0096 34.3447 29.0503 35.5108 29.0503C36.677 29.0503 37.6281 30.0096 37.6281 31.2003Z" stroke="black" stroke-opacity="0.16" stroke-width="0.5"/>
<rect x="42.6104" width="7.10188" height="16.8" rx="1" fill="#D3D1CE"/>
<rect x="42.8604" y="0.25" width="6.60188" height="16.3" rx="0.75" stroke="black" stroke-opacity="0.16" stroke-width="0.5"/>
<ellipse cx="55.6319" cy="4.7999" rx="2.36729" ry="2.4" fill="#D3D1CE"/>
<path d="M57.7492 4.7999C57.7492 5.99056 56.7981 6.9499 55.6319 6.9499C54.4658 6.9499 53.5146 5.99056 53.5146 4.7999C53.5146 3.60924 54.4658 2.6499 55.6319 2.6499C56.7981 2.6499 57.7492 3.60924 57.7492 4.7999Z" stroke="black" stroke-opacity="0.16" stroke-width="0.5"/>
<ellipse cx="55.6319" cy="12.0001" rx="2.36729" ry="2.4" fill="#D3D1CE"/>
<path d="M57.7492 12.0001C57.7492 13.1908 56.7981 14.1501 55.6319 14.1501C54.4658 14.1501 53.5146 13.1908 53.5146 12.0001C53.5146 10.8094 54.4658 9.8501 55.6319 9.8501C56.7981 9.8501 57.7492 10.8094 57.7492 12.0001Z" stroke="black" stroke-opacity="0.16" stroke-width="0.5"/>
<rect x="42.6104" y="19.2" width="7.10188" height="16.8" rx="1" fill="#D3D1CE"/>
<rect x="42.8604" y="19.45" width="6.60188" height="16.3" rx="0.75" stroke="black" stroke-opacity="0.16" stroke-width="0.5"/>
<ellipse cx="55.6319" cy="23.9999" rx="2.36729" ry="2.4" fill="#D3D1CE"/>
<path d="M57.7492 23.9999C57.7492 25.1905 56.7981 26.1499 55.6319 26.1499C54.4658 26.1499 53.5146 25.1905 53.5146 23.9999C53.5146 22.8092 54.4658 21.8499 55.6319 21.8499C56.7981 21.8499 57.7492 22.8092 57.7492 23.9999Z" stroke="black" stroke-opacity="0.16" stroke-width="0.5"/>
<ellipse cx="55.6319" cy="31.2" rx="2.36729" ry="2.4" fill="#D3D1CE"/>
<path d="M57.7492 31.2C57.7492 32.3907 56.7981 33.35 55.6319 33.35C54.4658 33.35 53.5146 32.3907 53.5146 31.2C53.5146 30.0094 54.4658 29.05 55.6319 29.05C56.7981 29.05 57.7492 30.0094 57.7492 31.2Z" stroke="black" stroke-opacity="0.16" stroke-width="0.5"/>
</svg>
