<svg width="12" height="12" viewBox="0 0 12 12" fill="none" xmlns="http://www.w3.org/2000/svg">
<path fill-rule="evenodd" clip-rule="evenodd" d="M8.62502 2.58821C8.62502 3.00904 8.96693 3.35022 9.38873 3.35022C9.81052 3.35022 10.1524 3.00904 10.1524 2.58821C10.1524 2.16735 9.81052 1.82617 9.38873 1.82617C8.96693 1.82617 8.62502 2.16735 8.62502 2.58821ZM3.86981 5.97807C3.86981 4.80902 4.81963 3.86133 5.99126 3.86133C7.16289 3.86133 8.11271 4.80902 8.11271 5.97807C8.11271 7.1471 7.16289 8.09479 5.99126 8.09479C4.81963 8.09479 3.86981 7.1471 3.86981 5.97807ZM5.99147 9.23959C4.18652 9.23959 2.72333 7.77962 2.72333 5.97867C2.72333 4.17772 4.18652 2.71777 5.99147 2.71777C7.79642 2.71777 9.25964 4.17772 9.25964 5.97867C9.25964 7.77962 7.79642 9.23959 5.99147 9.23959ZM11.1578 0.84213C10.9018 0.586029 10.658 0.427422 10.3164 0.294671C10.0584 0.194426 9.67092 0.0752169 8.95735 0.0426567C8.18563 0.00745224 7.95416 0 5.99999 0C4.04582 0 3.81434 0.00745224 3.0426 0.0426567C2.32905 0.0752169 1.94154 0.194426 1.68365 0.294671C1.34202 0.427422 1.09823 0.586029 0.84213 0.84213C0.586029 1.09823 0.427422 1.34204 0.294644 1.68365C0.194426 1.94154 0.0752169 2.32908 0.0426567 3.04262C0.00745224 3.81434 0 4.04582 0 5.99999C0 7.95418 0.00745224 8.18563 0.0426567 8.95738C0.0752169 9.67092 0.194426 10.0585 0.294644 10.3164C0.427422 10.658 0.586029 10.9018 0.84213 11.1579C1.09823 11.414 1.34202 11.5726 1.68365 11.7053C1.94154 11.8055 2.32905 11.9248 3.04262 11.9573C3.81424 11.9925 4.04568 12 5.99999 12C7.95429 12 8.18574 11.9925 8.95735 11.9573C9.67092 11.9248 10.0584 11.8055 10.3164 11.7053C10.658 11.5726 10.9018 11.414 11.1579 11.1578C11.4139 10.9018 11.5726 10.658 11.7053 10.3164C11.8055 10.0585 11.9248 9.67092 11.9573 8.95738C11.9925 8.18563 12 7.95418 12 5.99999C12 4.04582 11.9925 3.81434 11.9573 3.04262C11.9248 2.32908 11.8055 1.94154 11.7053 1.68365C11.5726 1.34204 11.4139 1.09823 11.1578 0.84213Z" fill="black"/>
</svg>
