<svg width="15" height="15" viewBox="0 0 15 15" fill="none" xmlns="http://www.w3.org/2000/svg">
<path d="M9.00469 7.18314C9.79342 6.83772 10.4392 6.23144 10.8336 5.46615C11.228 4.70087 11.3469 3.82321 11.1704 2.98061C10.9939 2.13801 10.5327 1.38181 9.86432 0.839041C9.19594 0.29627 8.36109 0 7.5 0C6.63891 0 5.80406 0.29627 5.13568 0.839041C4.46731 1.38181 4.00613 2.13801 3.82963 2.98061C3.65312 3.82321 3.77205 4.70087 4.16642 5.46615C4.56079 6.23144 5.20658 6.83772 5.99531 7.18314C4.30213 7.5298 2.78066 8.45047 1.68823 9.78942C0.595788 11.1284 -0.000573177 12.8035 4.1338e-07 14.5314C4.1338e-07 14.6557 0.0493864 14.7749 0.137294 14.8627C0.225202 14.9506 0.34443 15 0.46875 15C0.593071 15 0.712299 14.9506 0.800207 14.8627C0.888114 14.7749 0.9375 14.6557 0.9375 14.5314C0.9375 12.7913 1.6289 11.1225 2.85961 9.8921C4.09032 8.66169 5.75952 7.97045 7.5 7.97045C9.24048 7.97045 10.9097 8.66169 12.1404 9.8921C13.3711 11.1225 14.0625 12.7913 14.0625 14.5314C14.0625 14.6557 14.1119 14.7749 14.1998 14.8627C14.2877 14.9506 14.4069 15 14.5312 15C14.6556 15 14.7748 14.9506 14.8627 14.8627C14.9506 14.7749 15 14.6557 15 14.5314C15.0006 12.8035 14.4042 11.1284 13.3118 9.78942C12.2193 8.45047 10.6979 7.5298 9.00469 7.18314ZM4.6875 3.75272C4.6875 3.1966 4.85245 2.65296 5.16149 2.19056C5.47053 1.72816 5.90979 1.36776 6.4237 1.15494C6.93762 0.942121 7.50312 0.886438 8.04869 0.994933C8.59426 1.10343 9.0954 1.37123 9.48874 1.76447C9.88207 2.15771 10.1499 2.65873 10.2585 3.20416C10.367 3.7496 10.3113 4.31497 10.0984 4.82876C9.88554 5.34255 9.52505 5.7817 9.06254 6.09067C8.60003 6.39963 8.05626 6.56454 7.5 6.56454C6.75408 6.56454 6.03871 6.2683 5.51126 5.74098C4.98382 5.21366 4.6875 4.49846 4.6875 3.75272Z" fill="white"/>
</svg>
