<svg width="23" height="15" viewBox="0 0 23 15" fill="none" xmlns="http://www.w3.org/2000/svg">
<path d="M5.7573 5.99146C4.1635 5.99146 2.875 7.33593 2.875 8.99426C2.875 10.6526 4.1635 11.9971 5.75281 11.9971C7.34212 11.9971 8.63062 10.6526 8.63062 8.99426C8.63511 7.33593 7.34661 5.99146 5.7573 5.99146ZM5.7573 11.1445C4.62144 11.1445 3.69659 10.1841 3.69659 8.99426C3.69659 7.80438 4.61695 6.84405 5.7573 6.84405C6.89765 6.84405 7.81352 7.80907 7.81352 8.99426C7.81352 10.1795 6.89316 11.1445 5.7573 11.1445Z" fill="black"/>
<path d="M5.7642 10.4839C6.55517 10.4839 7.19638 9.81483 7.19638 8.9895C7.19638 8.16418 6.55517 7.49512 5.7642 7.49512C4.97324 7.49512 4.33203 8.16418 4.33203 8.9895C4.33203 9.81483 4.97324 10.4839 5.7642 10.4839Z" fill="black"/>
<path d="M17.2489 5.99146C15.6596 5.99146 14.3711 7.33593 14.3711 8.99426C14.3711 10.6526 15.6596 11.9971 17.2489 11.9971C18.8382 11.9971 20.1267 10.6526 20.1267 8.99426C20.1267 7.33593 18.8382 5.99146 17.2489 5.99146ZM17.2489 11.1445C16.113 11.1445 15.1882 10.1841 15.1882 8.99426C15.1882 7.80438 16.1086 6.84405 17.2489 6.84405C18.3893 6.84405 19.3051 7.80907 19.3051 8.99426C19.3051 10.1795 18.3848 11.1445 17.2489 11.1445Z" fill="black"/>
<path d="M17.2564 10.4839C18.0474 10.4839 18.6886 9.81483 18.6886 8.9895C18.6886 8.16418 18.0474 7.49512 17.2564 7.49512C16.4654 7.49512 15.8242 8.16418 15.8242 8.9895C15.8242 9.81483 16.4654 10.4839 17.2564 10.4839Z" fill="black"/>
<path d="M21.2985 4.74079L22.991 2.98876H19.561C17.6395 1.35853 14.4474 0 11.4888 0C8.52567 0 5.36053 1.35853 3.439 2.98876H0L1.69256 4.74079C0.646496 5.82761 0 7.33136 0 8.99438C0 12.3111 2.57701 15 5.75561 15C7.21472 15 8.54812 14.4332 9.56276 13.4963L11.5112 14.9906L13.4372 13.529L13.4148 13.4728C14.4339 14.4191 15.7718 14.9953 17.2444 14.9953C20.423 14.9953 23 12.3064 23 8.98969C22.9955 7.33135 22.3445 5.82761 21.2985 4.74079ZM16.5216 3.0356C13.7964 3.39163 11.6594 5.73392 11.4978 8.63367C11.3316 5.72923 9.19012 3.38226 6.45598 3.0356C7.82979 2.005 9.58071 1.49906 11.4888 1.49906C13.3968 1.49906 15.1478 2.005 16.5216 3.0356ZM5.75561 13.5009C3.36717 13.5009 1.43666 11.4819 1.43666 8.99438C1.43666 6.50687 3.37166 4.48782 5.75561 4.48782C8.13957 4.48782 10.0746 6.50687 10.0746 8.99438C10.0701 11.4819 8.13957 13.5009 5.75561 13.5009ZM17.2489 13.5009C14.8649 13.5009 12.9299 11.4819 12.9299 8.99438C12.9299 6.50687 14.8649 4.48782 17.2489 4.48782C19.6328 4.48782 21.5678 6.50687 21.5678 8.99438C21.5633 11.4819 19.6328 13.5009 17.2489 13.5009Z" fill="black"/>
</svg>
