<svg width="24" height="24" viewBox="0 0 24 24" fill="none" xmlns="http://www.w3.org/2000/svg">
<circle cx="12" cy="12" r="12" fill="black" fill-opacity="0.04"/>
<circle cx="12" cy="12" r="11.5" stroke="black" stroke-opacity="0.04"/>
<g opacity="0.6">
<mask id="path-3-inside-1" fill="white">
<path fill-rule="evenodd" clip-rule="evenodd" d="M16.7992 10.9091C16.7992 14.7273 11.9992 18 11.9992 18C11.9992 18 7.19922 14.7273 7.19922 10.9091C7.19922 8.19788 9.34825 6 11.9992 6C14.6502 6 16.7992 8.19788 16.7992 10.9091ZM12.0016 12.5452C12.8852 12.5452 13.6016 11.8126 13.6016 10.9088C13.6016 10.0051 12.8852 9.27246 12.0016 9.27246C11.1179 9.27246 10.4016 10.0051 10.4016 10.9088C10.4016 11.8126 11.1179 12.5452 12.0016 12.5452Z"/>
</mask>
<path fill-rule="evenodd" clip-rule="evenodd" d="M16.7992 10.9091C16.7992 14.7273 11.9992 18 11.9992 18C11.9992 18 7.19922 14.7273 7.19922 10.9091C7.19922 8.19788 9.34825 6 11.9992 6C14.6502 6 16.7992 8.19788 16.7992 10.9091ZM12.0016 12.5452C12.8852 12.5452 13.6016 11.8126 13.6016 10.9088C13.6016 10.0051 12.8852 9.27246 12.0016 9.27246C11.1179 9.27246 10.4016 10.0051 10.4016 10.9088C10.4016 11.8126 11.1179 12.5452 12.0016 12.5452Z" fill="black"/>
<path d="M11.9992 18L11.4359 18.8262C11.7757 19.0579 12.2227 19.0579 12.5626 18.8262L11.9992 18ZM7.19922 10.9091H6.19922H7.19922ZM15.7992 10.9091C15.7992 12.4246 14.8242 13.9561 13.6656 15.2068C13.1054 15.8115 12.5421 16.308 12.1177 16.6536C11.9064 16.8257 11.7314 16.9588 11.6113 17.0476C11.5513 17.0919 11.5052 17.125 11.4751 17.1463C11.4601 17.1569 11.4491 17.1646 11.4425 17.1692C11.4392 17.1715 11.4369 17.173 11.4358 17.1738C11.4353 17.1742 11.435 17.1744 11.435 17.1744C11.435 17.1744 11.4351 17.1743 11.4352 17.1742C11.4353 17.1742 11.4355 17.1741 11.4355 17.174C11.4357 17.1739 11.4359 17.1738 11.9992 18C12.5626 18.8262 12.5628 18.8261 12.563 18.8259C12.5632 18.8258 12.5634 18.8256 12.5637 18.8255C12.5641 18.8252 12.5646 18.8248 12.5652 18.8244C12.5664 18.8236 12.5678 18.8226 12.5696 18.8214C12.5731 18.819 12.5777 18.8158 12.5835 18.8118C12.595 18.8038 12.611 18.7926 12.6311 18.7783C12.6714 18.7498 12.7284 18.7089 12.7996 18.6563C12.942 18.5511 13.1421 18.3987 13.3807 18.2044C13.8564 17.817 14.493 17.2567 15.1328 16.5659C16.3743 15.2257 17.7992 13.2117 17.7992 10.9091H15.7992ZM11.9992 18C12.5626 17.1738 12.5628 17.1739 12.5629 17.174C12.563 17.1741 12.5631 17.1742 12.5632 17.1742C12.5634 17.1743 12.5634 17.1744 12.5634 17.1744C12.5635 17.1744 12.5632 17.1742 12.5626 17.1738C12.5615 17.173 12.5593 17.1715 12.556 17.1692C12.5493 17.1646 12.5383 17.1569 12.5233 17.1463C12.4933 17.125 12.4471 17.0919 12.3871 17.0476C12.267 16.9588 12.0921 16.8257 11.8807 16.6536C11.4564 16.308 10.893 15.8115 10.3328 15.2068C9.17429 13.9561 8.19922 12.4246 8.19922 10.9091H6.19922C6.19922 13.2117 7.62415 15.2257 8.8656 16.5659C9.50544 17.2567 10.1421 17.817 10.6177 18.2044C10.8564 18.3987 11.0564 18.5511 11.1988 18.6563C11.2701 18.7089 11.327 18.7498 11.3673 18.7783C11.3874 18.7926 11.4034 18.8038 11.4149 18.8118C11.4207 18.8158 11.4254 18.819 11.4289 18.8214C11.4306 18.8226 11.4321 18.8236 11.4332 18.8244C11.4338 18.8248 11.4343 18.8252 11.4348 18.8255C11.435 18.8256 11.4353 18.8258 11.4354 18.8259C11.4356 18.8261 11.4359 18.8262 11.9992 18ZM8.19922 10.9091C8.19922 8.72886 9.9216 7 11.9992 7V5C8.7749 5 6.19922 7.66689 6.19922 10.9091H8.19922ZM11.9992 7C14.0768 7 15.7992 8.72886 15.7992 10.9091H17.7992C17.7992 7.66689 15.2235 5 11.9992 5V7ZM12.0016 13.5452C13.4586 13.5452 14.6016 12.3435 14.6016 10.9088H12.6016C12.6016 11.2816 12.3119 11.5452 12.0016 11.5452V13.5452ZM14.6016 10.9088C14.6016 9.47411 13.4586 8.27246 12.0016 8.27246V10.2725C12.3119 10.2725 12.6016 10.5361 12.6016 10.9088H14.6016ZM12.0016 8.27246C10.5446 8.27246 9.40156 9.47411 9.40156 10.9088H11.4016C11.4016 10.5361 11.6913 10.2725 12.0016 10.2725V8.27246ZM9.40156 10.9088C9.40156 12.3435 10.5446 13.5452 12.0016 13.5452V11.5452C11.6913 11.5452 11.4016 11.2816 11.4016 10.9088H9.40156Z" fill="black" mask="url(#path-3-inside-1)"/>
</g>
</svg>
