<svg width="20" height="20" viewBox="0 0 20 20" fill="none" xmlns="http://www.w3.org/2000/svg">
<circle cx="10" cy="10" r="10" fill="white" fill-opacity="0.1"/>
<circle cx="10" cy="10" r="9.5" stroke="white" stroke-opacity="0.1"/>
<mask id="path-3-inside-1" fill="white">
<path fill-rule="evenodd" clip-rule="evenodd" d="M14 9.09091C14 12.2727 10 15 10 15C10 15 6 12.2727 6 9.09091C6 6.83156 7.79086 5 10 5C12.2091 5 14 6.83156 14 9.09091ZM10 10.4543C10.7364 10.4543 11.3333 9.8438 11.3333 9.09069C11.3333 8.33757 10.7364 7.72705 10 7.72705C9.26362 7.72705 8.66667 8.33757 8.66667 9.09069C8.66667 9.8438 9.26362 10.4543 10 10.4543Z"/>
</mask>
<path fill-rule="evenodd" clip-rule="evenodd" d="M14 9.09091C14 12.2727 10 15 10 15C10 15 6 12.2727 6 9.09091C6 6.83156 7.79086 5 10 5C12.2091 5 14 6.83156 14 9.09091ZM10 10.4543C10.7364 10.4543 11.3333 9.8438 11.3333 9.09069C11.3333 8.33757 10.7364 7.72705 10 7.72705C9.26362 7.72705 8.66667 8.33757 8.66667 9.09069C8.66667 9.8438 9.26362 10.4543 10 10.4543Z" fill="#F0EDEA"/>
<path d="M10 15L9.43666 15.8262C9.77649 16.0579 10.2235 16.0579 10.5633 15.8262L10 15ZM6 9.09091H5H6ZM13 9.09091C13 10.2883 12.2249 11.5243 11.2664 12.5591C10.8062 13.0558 10.3428 13.4643 9.99352 13.7488C9.81963 13.8904 9.67597 13.9997 9.57774 14.0722C9.52867 14.1085 9.49109 14.1354 9.4669 14.1526C9.45482 14.1611 9.44609 14.1672 9.44097 14.1708C9.4384 14.1726 9.43674 14.1737 9.43602 14.1742C9.43565 14.1745 9.43552 14.1746 9.43563 14.1745C9.43568 14.1744 9.43579 14.1744 9.43597 14.1742C9.43605 14.1742 9.43623 14.1741 9.43627 14.174C9.43646 14.1739 9.43666 14.1738 10 15C10.5633 15.8262 10.5636 15.8261 10.5638 15.8259C10.5639 15.8258 10.5642 15.8256 10.5644 15.8255C10.5648 15.8252 10.5653 15.8249 10.5658 15.8245C10.5669 15.8238 10.5682 15.8229 10.5698 15.8218C10.5729 15.8197 10.577 15.8168 10.582 15.8134C10.592 15.8064 10.6057 15.7968 10.6229 15.7846C10.6573 15.7602 10.7057 15.7255 10.766 15.681C10.8865 15.5919 11.0554 15.4633 11.2565 15.2995C11.6572 14.9732 12.1938 14.501 12.7336 13.9182C13.7751 12.7939 15 11.0754 15 9.09091H13ZM10 15C10.5633 14.1738 10.5635 14.1739 10.5637 14.174C10.5638 14.1741 10.5639 14.1742 10.564 14.1742C10.5642 14.1744 10.5643 14.1744 10.5644 14.1745C10.5645 14.1746 10.5643 14.1745 10.564 14.1742C10.5633 14.1737 10.5616 14.1726 10.559 14.1708C10.5539 14.1672 10.5452 14.1611 10.5331 14.1526C10.5089 14.1354 10.4713 14.1085 10.4223 14.0722C10.324 13.9997 10.1804 13.8904 10.0065 13.7488C9.65716 13.4643 9.19377 13.0558 8.73362 12.5591C7.77507 11.5243 7 10.2883 7 9.09091H5C5 11.0754 6.22493 12.7939 7.26638 13.9182C7.80623 14.501 8.34284 14.9732 8.74352 15.2995C8.94463 15.4633 9.11347 15.5919 9.23399 15.681C9.2943 15.7255 9.34265 15.7602 9.37706 15.7846C9.39427 15.7968 9.408 15.8064 9.41802 15.8134C9.42302 15.8168 9.4271 15.8197 9.43022 15.8218C9.43178 15.8229 9.4331 15.8238 9.43417 15.8245C9.43471 15.8249 9.43519 15.8252 9.4356 15.8255C9.43581 15.8256 9.43607 15.8258 9.43618 15.8259C9.43643 15.8261 9.43666 15.8262 10 15ZM7 9.09091C7 7.36254 8.36421 6 10 6V4C7.21751 4 5 6.30058 5 9.09091H7ZM10 6C11.6358 6 13 7.36254 13 9.09091H15C15 6.30058 12.7825 4 10 4V6ZM10 11.4543C11.3097 11.4543 12.3333 10.3748 12.3333 9.09069H10.3333C10.3333 9.31282 10.163 9.45432 10 9.45432V11.4543ZM12.3333 9.09069C12.3333 7.80659 11.3097 6.72705 10 6.72705V8.72705C10.163 8.72705 10.3333 8.86855 10.3333 9.09069H12.3333ZM10 6.72705C8.69027 6.72705 7.66667 7.80659 7.66667 9.09069H9.66667C9.66667 8.86855 9.83697 8.72705 10 8.72705V6.72705ZM7.66667 9.09069C7.66667 10.3748 8.69027 11.4543 10 11.4543V9.45432C9.83697 9.45432 9.66667 9.31282 9.66667 9.09069H7.66667Z" fill="#F0EDEA" mask="url(#path-3-inside-1)"/>
</svg>
