<svg width="85" height="40" viewBox="0 0 85 40" fill="none" xmlns="http://www.w3.org/2000/svg">
<path d="M43.2454 13.9751H39.461V17.0158H36.9707V17.6707H45.7313V17.0158H43.2454V13.9751Z" fill="white"/>
<path d="M44.708 11.6847H43.2454V0.659192H44.6742C49.2668 0.659192 50.834 3.76984 50.834 6.17218C50.834 9.05499 49.5254 11.6847 44.708 11.6847ZM44.6356 -5.52052e-05H41.3487L37.0089 2.22885V2.94688L39.4611 1.75518V11.1629V11.6371H39.3062C37.1252 11.6371 36.3213 10.5474 36.2948 9.34891V9.17936C36.2948 8.70666 35.8812 8.30004 35.3674 8.30004C34.8578 8.30004 34.4414 8.70666 34.4414 9.17936V9.17985C34.4491 10.6076 35.6347 12.4771 39.1908 12.4771H39.4611H39.4842H44.9676C52.6493 12.4771 54.8153 9.60687 54.8153 6.2402C54.8153 2.61313 52.1701 -5.52052e-05 44.6356 -5.52052e-05Z" fill="white"/>
<path d="M15.8167 31.0147H17.229V31.3372H12.3633V31.0147H13.7669V21.8824H12.3633V21.5753H17.3144C18.2645 21.5753 19.0959 21.6244 19.8086 21.7245C20.5261 21.825 21.1196 22.0475 21.603 22.3934C22.0822 22.7393 22.3201 23.2519 22.3201 23.9286C22.3201 24.5864 22.0315 25.1592 21.4549 25.6396C20.8773 26.1216 19.919 26.4096 18.5786 26.5088V26.5743C19.355 26.6798 19.9615 26.8245 20.3938 27.0125C20.8315 27.2001 21.1495 27.442 21.3526 27.7345C21.5611 28.0269 21.701 28.3646 21.7767 28.7445C21.8535 29.1268 21.9466 29.7375 22.0484 30.575C22.0909 30.9296 22.1507 31.2095 22.2274 31.4203C22.3027 31.6302 22.4479 31.7346 22.6511 31.7346C22.791 31.7346 22.9647 31.6744 23.164 31.5525C23.3642 31.431 23.5249 31.3076 23.6393 31.1857L23.9153 31.4422C23.6142 31.8031 23.3126 32.0392 23.0159 32.149C22.7143 32.2603 22.3669 32.3132 21.9809 32.3132C21.4805 32.3132 21.0858 32.2467 20.8011 32.1145C20.5169 31.9819 20.3007 31.7458 20.1521 31.4057C19.9991 31.0642 19.8848 30.5565 19.8003 29.8808C19.7106 29.1122 19.6054 28.5122 19.4862 28.0804C19.3632 27.6485 19.2102 27.338 19.0322 27.1471C18.8498 26.9552 18.638 26.8347 18.3914 26.7881C18.1501 26.7434 17.781 26.7201 17.297 26.7201H15.8167V31.0147ZM15.8167 26.3975H17.0978C17.6449 26.3975 18.1328 26.3416 18.5526 26.2265C18.9728 26.1109 19.3212 25.8719 19.6011 25.5051C19.8809 25.1354 20.0209 24.6078 20.0209 23.9135C20.0209 23.3821 19.9099 22.9657 19.6855 22.6704C19.4611 22.374 19.1465 22.169 18.7436 22.0514C18.3407 21.9382 17.8273 21.8824 17.2034 21.8824H15.8167V26.3975Z" fill="white"/>
<path d="M27.1858 31.0146V21.8823H25.7773V21.5753H34.7884L34.9877 24.6228H34.551C34.4111 23.6978 34.0887 23.0099 33.6004 22.5595C33.1083 22.1067 32.4211 21.8823 31.5343 21.8823H29.2351V26.3114H29.8923C30.3849 26.3114 30.8134 26.1944 31.1782 25.9617C31.543 25.7314 31.7722 25.2018 31.8658 24.3769H32.2306V28.6016H31.8658C31.7635 28.0657 31.6486 27.6601 31.5174 27.3822C31.3905 27.1062 31.212 26.9119 30.9828 26.7982C30.754 26.6899 30.4274 26.635 29.9989 26.635H29.2351V31.0146H31.8489C32.6296 31.0146 33.2906 30.8139 33.8291 30.4054C34.3729 29.9958 34.759 29.2142 34.9877 28.0487H35.4287L35.0475 31.3372H25.7773V31.0146H27.1858Z" fill="white"/>
<path d="M44.7925 28.6829L48.2145 21.5755H51.6674V21.8825H50.2633V31.0148H51.6674V31.3374H46.8056V31.0148H48.2145V22.5447L44.1565 31.2606H43.8251L39.5827 22.6219V29.6784C39.5827 30.0238 39.6633 30.3187 39.8245 30.5645C39.9856 30.8054 40.3673 30.9594 40.9743 31.0148V31.3374H37.7207V31.0148C38.3137 31.0148 38.7128 30.8652 38.9034 30.5645C39.1026 30.2608 39.2006 29.9626 39.2006 29.6609V22.7993C39.2006 22.1881 38.8276 21.8825 38.085 21.8825H37.754L37.7714 21.5755H41.2286L44.7925 28.6829Z" fill="white"/>
<path d="M55.5623 31.0146V21.8823H54.1533V21.5753H59.0205V21.8823H57.6072V31.0146H59.0205V31.3372H54.1533V31.0146H55.5623Z" fill="white"/>
<path d="M62.9143 31.0146V21.8823H61.5059V21.5753H70.5169L70.7162 24.6228H70.2824C70.1391 23.6978 69.8206 23.0099 69.3289 22.5595C68.8363 22.1067 68.1453 21.8823 67.2628 21.8823H64.9588V26.3114H65.6208C66.1134 26.3114 66.5419 26.1944 66.9053 25.9617C67.2753 25.7314 67.5045 25.2018 67.5928 24.3769H67.9586V28.6016H67.5928C67.4915 28.0657 67.3776 27.6601 67.2493 27.3822C67.118 27.1062 66.941 26.9119 66.7108 26.7982C66.4826 26.6899 66.1554 26.635 65.7269 26.635H64.9588V31.0146H67.576C68.362 31.0146 69.0187 30.8139 69.5615 30.4054C70.101 29.9958 70.4865 29.2142 70.7162 28.0487H71.1611L70.7755 31.3372H61.5059V31.0146H62.9143Z" fill="white"/>
<path d="M76.9016 31.0149H78.3096V31.3375H73.4443V31.0149H74.8528V21.8826H73.4443V21.5756H78.3993C79.3489 21.5756 80.1813 21.6246 80.8978 21.7247C81.6114 21.8253 82.2088 22.0478 82.6879 22.3937C83.1681 22.7396 83.4088 23.2521 83.4088 23.9289C83.4088 24.5866 83.1169 25.1594 82.5398 25.6399C81.9632 26.1218 80.9991 26.4099 79.6635 26.509V26.5746C80.4399 26.68 81.0459 26.8248 81.4788 27.0128C81.9164 27.2003 82.2339 27.4422 82.4385 27.7347C82.6455 28.0272 82.7859 28.3648 82.8626 28.7447C82.9389 29.127 83.0315 29.7377 83.1338 30.5752C83.1763 30.9299 83.2356 31.2097 83.3118 31.4206C83.3886 31.6304 83.5285 31.7349 83.736 31.7349C83.8759 31.7349 84.0462 31.6746 84.2494 31.5527C84.4491 31.4312 84.6108 31.3078 84.7247 31.1859L85.0002 31.4424C84.6991 31.8034 84.4019 32.0395 84.1012 32.1493C83.7997 32.26 83.4523 32.313 83.0658 32.313C82.5649 32.313 82.1707 32.2469 81.8865 32.1148C81.6061 31.9822 81.3861 31.746 81.237 31.406C81.0845 31.0645 80.9707 30.5568 80.8848 29.881C80.7965 29.1125 80.6942 28.5125 80.5711 28.0806C80.4481 27.6487 80.2961 27.3383 80.1176 27.1474C79.9352 26.9555 79.7234 26.835 79.4768 26.7883C79.235 26.7436 78.8659 26.7203 78.382 26.7203H76.9016V31.0149ZM76.9016 26.3977H78.1827C78.7347 26.3977 79.2182 26.3419 79.6336 26.2267C80.0534 26.1111 80.4066 25.8721 80.6865 25.5048C80.9654 25.1356 81.1058 24.608 81.1058 23.9138C81.1058 23.3823 80.9914 22.966 80.7709 22.6706C80.546 22.3738 80.2319 22.1692 79.829 22.0517C79.4252 21.9385 78.9127 21.8826 78.2888 21.8826H76.9016V26.3977Z" fill="white"/>
<path d="M1.41426 30.9826V21.7896H0V21.4801H5.29999C5.72461 21.4801 6.18252 21.5136 6.67372 21.5812C7.16492 21.6492 7.66771 21.7896 8.18111 22.0014C8.69403 22.2142 9.12733 22.5421 9.4786 22.9837C9.83084 23.4268 10.007 24.001 10.007 24.7098C10.007 25.5367 9.68416 26.2741 9.03903 26.9198C8.39294 27.5673 7.14128 27.8904 5.28165 27.8904H3.47607V30.9826H4.89516V31.3062H0V30.9826H1.41426ZM3.47607 27.5814H4.74799C5.94174 27.5814 6.72776 27.3395 7.10558 26.8547C7.48291 26.3693 7.67736 25.7475 7.68894 24.9867V24.4834C7.68315 23.9893 7.63007 23.5604 7.53212 23.1936C7.43369 22.8278 7.16927 22.5023 6.73934 22.2171C6.30894 21.9324 5.64596 21.7896 4.74799 21.7896H3.47607V27.5814Z" fill="white"/>
<path d="M13.4106 35.512L14.6791 38.08L15.9481 35.512H16.656V39.9417H15.9419V36.9763L14.9344 39.0876H14.4113L13.4231 36.9952V39.9417H12.709V35.512H13.4106Z" fill="white"/>
<path d="M18.1035 35.512H20.8003V36.1606H18.8432V37.329H20.6092V37.9712H18.8432V39.2999H20.8003V39.9417H18.1035V35.512Z" fill="white"/>
<path d="M22.7592 37.6821H23.4415C24.1045 37.6821 24.3979 37.4256 24.3979 36.9116C24.3979 36.4113 24.0789 36.1606 23.4415 36.1606H22.7592V37.6821ZM22.7592 38.3239V39.9417H22.0195V35.512H23.5178C24.5383 35.512 25.1376 36.0129 25.1376 36.9116C25.1376 37.8109 24.5383 38.3239 23.5178 38.3239H22.7592Z" fill="white"/>
<path d="M26.3281 35.512H29.0249V36.1606H27.0678V37.329H28.8339V37.9712H27.0678V39.2999H29.0249V39.9417H26.3281V35.512Z" fill="white"/>
<path d="M30.8688 39.9419H30.0205L31.3532 37.7018L30.2565 35.5123H31.0473L31.9718 37.3933H32.45V35.5123H33.1897V37.3933H33.6679L34.5924 35.5123H35.3827L34.2865 37.7018L35.6187 39.9419H34.7709L33.6423 38.0351H33.1897V39.9419H32.45V38.0351H31.9974L30.8688 39.9419Z" fill="white"/>
<path d="M38.4043 36.591L37.8176 38.3822H38.9906L38.4043 36.591ZM37.3138 39.9417H36.5234L38.0535 35.512H38.7551L40.2852 39.9417H39.5006L39.2009 39.024H37.6134L37.3138 39.9417Z" fill="white"/>
<path d="M46.1396 35.512V36.1606H44.2587V39.9417H43.5186V35.512H46.1396Z" fill="white"/>
<path d="M47.7797 38.0096C47.7797 38.9404 48.0794 39.3514 48.6854 39.3514C49.291 39.3514 49.5974 38.9404 49.5974 38.0096V37.4446C49.5974 36.5138 49.291 36.1028 48.6854 36.1028C48.0794 36.1028 47.7797 36.5138 47.7797 37.4446V38.0096ZM50.3366 38.0096C50.3366 39.3514 49.7117 40 48.6854 40C47.6586 40 47.04 39.3514 47.04 38.0096V37.4446C47.04 36.1028 47.6586 35.4547 48.6854 35.4547C49.7117 35.4547 50.3366 36.1028 50.3366 37.4446V38.0096Z" fill="white"/>
<path d="M51.2598 35.512H54.5303V36.1606H53.268V39.9417H52.5283V36.1606H51.2598V35.512Z" fill="white"/>
<path d="M55.6631 35.512H58.3604V36.1606H56.4028V37.329H58.1688V37.9712H56.4028V39.2999H58.3604V39.9417H55.6631V35.512Z" fill="white"/>
<path d="M60.1346 35.5123H62.9395V39.9419H62.2003V36.1609H60.8739V36.6681C60.8739 37.3739 60.855 37.9074 60.8232 38.2664C60.7909 38.6196 60.7339 38.9081 60.6509 39.1204C60.4531 39.6339 60.0517 39.8968 59.3887 39.9998V39.1972C59.6878 39.1399 59.8857 38.9854 59.9749 38.7478C60.0835 38.4656 60.1346 37.7718 60.1346 36.6681V35.5123Z" fill="white"/>
<path d="M65.1796 39.9421H64.4404V35.5125H65.1796V39.9421Z" fill="white"/>
<path d="M67.4077 37.9644V39.2999H68.1792C68.7597 39.2999 69.0463 39.075 69.0463 38.6324C69.0463 38.1699 68.7467 37.9644 68.09 37.9644H67.4077ZM67.4077 36.1543V37.3226H68.1281C68.6444 37.3226 68.9059 37.1171 68.9059 36.7061C68.9059 36.3277 68.6955 36.1543 68.0325 36.1543H67.4077ZM66.668 35.512H68.0832C69.123 35.512 69.6456 35.8973 69.6456 36.6615C69.6456 37.1171 69.3903 37.4766 69.0019 37.6243C69.5245 37.772 69.786 38.1252 69.786 38.6708C69.786 39.0366 69.6586 39.3451 69.4034 39.5822C69.1549 39.8197 68.7597 39.9417 68.2236 39.9417H66.668V35.512Z" fill="white"/>
</svg>
