<svg width="18" height="18" viewBox="0 0 18 18" fill="none" xmlns="http://www.w3.org/2000/svg">
<circle opacity="0.5" cx="9" cy="9" r="9" fill="#837663"/>
<path d="M8.81534 4.44399C8.88366 4.27973 9.11634 4.27973 9.18466 4.44399L10.2756 7.06692C10.3044 7.13617 10.3695 7.18348 10.4443 7.18947L13.276 7.41649C13.4533 7.4307 13.5252 7.65201 13.3901 7.76774L11.2327 9.61582C11.1757 9.66461 11.1508 9.74116 11.1682 9.81411L11.8274 12.5774C11.8686 12.7504 11.6804 12.8872 11.5286 12.7944L9.10425 11.3137C9.04025 11.2746 8.95975 11.2746 8.89575 11.3137L6.47144 12.7944C6.31962 12.8872 6.13137 12.7504 6.17265 12.5774L6.83178 9.81411C6.84918 9.74116 6.82431 9.66461 6.76735 9.61582L4.60991 7.76774C4.4748 7.65201 4.54671 7.4307 4.72404 7.41649L7.55571 7.18947C7.63047 7.18348 7.69559 7.13617 7.7244 7.06692L8.81534 4.44399Z" fill="white"/>
</svg>
