<svg width="32" height="32" viewBox="0 0 32 32" fill="none" xmlns="http://www.w3.org/2000/svg">
<circle cx="16" cy="16" r="15.5" fill="white" fill-opacity="0.5" stroke="#F0EDEA"/>
<path fill-rule="evenodd" clip-rule="evenodd" d="M17.1571 10.668H21.2386C21.3442 10.988 22.9745 15.9229 23 16C23 17.1307 22.0803 18.0508 20.95 18.0508C19.8197 18.0508 18.9 17.1307 18.9 16C18.8041 16.2929 20.3509 11.5676 20.3778 11.4855H17.1572C17.0333 11.833 16.76 12.1091 16.4127 12.2331V17.2305H16.8227V20.5391H15.1827V17.2305H15.5927V12.2331C15.2453 12.1091 14.9721 11.8358 14.8482 11.4883H11.6242L13.1053 16C13.1053 17.1307 12.1856 18.0508 11.0553 18.0508C9.92505 18.0508 9.00534 17.1307 9.00537 16C8.88826 16.3567 10.7252 10.7503 10.7523 10.668H14.8481C14.972 10.3205 15.2453 10.0471 15.5926 9.92321V9H16.4126V9.92321C16.76 10.0471 17.0333 10.3205 17.1571 10.668ZM11.0554 12.3671L9.98386 15.5899H12.1268L11.0554 12.3671ZM20.95 12.3671L19.8785 15.5899H22.0215L20.95 12.3671ZM15.1832 21.365L16.8232 21.3594L19.6932 21.8324V23H12.3132V21.8324L15.1832 21.365Z" fill="#7C7B7B"/>
</svg>
