<svg width="81" height="26" viewBox="0 0 81 26" fill="none" xmlns="http://www.w3.org/2000/svg">
<path d="M34.9026 22.9316H38.9064L38.8911 22.8403L38.3126 22.7946C38.1147 22.7946 37.9625 22.7794 37.8407 22.7642C37.7189 22.749 37.6428 22.7337 37.5819 22.7033C37.521 22.6881 37.4753 22.6728 37.4753 22.6576C37.4601 22.6424 37.4601 22.6119 37.4601 22.5815L39.3783 13.5539H40.7484C41.266 13.6148 41.6466 13.7518 41.8598 13.9954C42.0729 14.2389 42.2403 14.7413 42.3621 15.5025L42.3926 15.6852H42.4535L42.6818 13.4169H35.1918L34.4915 15.6852H34.5676L34.6894 15.4873C35.07 14.8631 35.4202 14.3912 35.7246 14.0867C36.0291 13.7822 36.4097 13.6148 36.8512 13.5539H38.404L36.5163 22.5358C36.4858 22.6576 36.227 22.749 35.7246 22.7794L34.9482 22.8403L34.9026 22.9316ZM46.2658 23.1143C46.7377 23.1143 47.3467 22.3836 48.0926 20.9221L48.0013 20.8765L46.8595 22.6119L46.1288 22.5206L47.301 19.5977C47.8338 18.2732 48.1079 17.4968 48.1079 17.2837C48.1079 17.0401 48.0013 16.827 47.8034 16.6138C47.6055 16.4007 47.4228 16.2941 47.2401 16.2941C46.8747 16.2941 46.5398 16.4616 46.2201 16.7965C45.9157 17.101 45.5046 17.6338 44.9718 18.4102C44.439 19.2019 43.967 19.9783 43.5712 20.7547L43.4799 20.7242C43.967 19.5368 44.6978 17.2228 45.7025 13.8127L45.9918 12.8384L43.7235 13.0972L43.693 13.1885L44.9109 13.2342C45.0175 13.2342 45.0479 13.356 44.987 13.5843L44.6673 14.7109C44.4542 15.4721 44.1649 16.4159 43.83 17.5425C43.4799 18.6842 43.1754 19.6433 42.9318 20.4045L42.0641 22.9012L42.8253 22.9773L43.3733 21.5311C43.9975 20.1914 44.6521 19.0648 45.3219 18.1514C45.9918 17.238 46.4637 16.7813 46.7225 16.7813C46.89 16.7813 47.027 16.8422 47.1488 16.9335C47.2706 17.0401 47.3315 17.1619 47.3315 17.3141C47.3315 17.4664 47.0574 18.2275 46.5398 19.5977C46.418 19.9326 46.2506 20.3436 46.0374 20.846C45.8243 21.3484 45.6721 21.7442 45.5655 22.0334C45.4437 22.3227 45.3981 22.4902 45.3981 22.5358C45.3981 22.6424 45.5046 22.7642 45.7178 22.9012C45.9309 23.0534 46.1136 23.1143 46.2658 23.1143ZM50.3343 23.1143C51.1564 23.1143 51.9785 22.3988 52.8005 20.9526L52.694 20.9069C52.3286 21.5158 51.9937 21.9421 51.6892 22.1857C51.3847 22.4445 51.0346 22.5663 50.6692 22.5663C50.2734 22.5663 49.9689 22.3988 49.7558 22.0639C49.5427 21.729 49.4361 21.2875 49.4361 20.7394C49.4361 20.2675 49.5122 19.7651 49.6797 19.2171C50.9737 19.0192 51.9328 18.7604 52.557 18.4407C53.1659 18.1362 53.4856 17.7252 53.4856 17.238C53.4856 16.964 53.3486 16.7356 53.0898 16.5529C52.8158 16.3703 52.4961 16.2789 52.1155 16.2789C51.5674 16.2789 51.0194 16.5225 50.4713 16.9792C49.9233 17.4511 49.4818 18.0601 49.1469 18.7908C48.7967 19.5215 48.6293 20.2675 48.6293 21.0135C48.6293 21.6072 48.7815 22.1096 49.086 22.5054C49.3905 22.9164 49.8015 23.1143 50.3343 23.1143ZM49.771 19.0648L49.7406 19.0496C50.0451 18.1514 50.4257 17.4664 50.9128 16.9792C51.3086 16.6138 51.6435 16.4159 51.948 16.4159C52.1764 16.4159 52.3591 16.492 52.4961 16.6443C52.6179 16.7965 52.694 16.9792 52.694 17.1923C52.694 17.7099 52.4808 18.1058 52.0698 18.3798C51.6588 18.6538 50.8976 18.8822 49.771 19.0648ZM55.7532 22.9316H62.4212L63.4107 20.298L63.3041 20.2827L63.1976 20.4806C62.7561 21.2418 62.3298 21.8203 61.934 22.2009C61.523 22.5815 60.9901 22.7794 60.3355 22.7794L58.0672 22.7185L59.9549 13.8127C59.9702 13.6909 60.229 13.6148 60.7466 13.5691L61.66 13.5082L61.7209 13.4169H57.778L57.7932 13.5082L58.1585 13.5539C58.5848 13.6148 58.8284 13.6452 58.9045 13.6605C58.9806 13.6909 59.0111 13.7213 59.0111 13.767L57.1538 22.5206C57.1233 22.6424 56.8645 22.7185 56.3622 22.7794L55.7989 22.8403L55.7532 22.9316ZM67.9069 23.1295C68.5006 23.1295 69.1705 22.3988 69.9012 20.9221L69.8099 20.8765L68.6985 22.6119L68.0135 22.5358L68.9269 19.6281L70.0687 16.3246L69.3075 16.2637L68.866 17.7252H68.8508C68.8508 16.8117 68.5615 16.355 67.983 16.355C67.5568 16.355 67.1457 16.5682 66.7195 16.9944C66.0953 17.6186 65.5168 18.3798 64.9992 19.278C64.4816 20.1762 64.2228 20.9982 64.2228 21.7442C64.2228 22.1552 64.3293 22.4902 64.5729 22.7337C64.8013 22.9773 65.0905 23.0991 65.4255 23.0991C65.7908 23.0991 66.1562 22.886 66.5368 22.4293C66.9174 21.9878 67.4197 21.2266 68.0439 20.1609H68.0744C67.6481 21.2266 67.4502 21.8812 67.4502 22.1248C67.4502 22.3836 67.4806 22.6119 67.572 22.8251C67.6633 23.0382 67.7699 23.1295 67.9069 23.1295ZM65.8365 22.4749C65.6234 22.4749 65.4255 22.3988 65.2732 22.2161C65.121 22.0334 65.0449 21.7746 65.0449 21.4093C65.0449 20.7547 65.2123 19.9935 65.5777 19.1257C65.9278 18.258 66.3084 17.6186 66.7347 17.1923C67.0087 16.9183 67.2827 16.7813 67.5568 16.7813C67.8765 16.7813 68.1353 16.9335 68.3484 17.2076C68.5463 17.4968 68.6529 17.7861 68.6529 18.0753C68.6529 18.4407 68.5311 18.8669 68.2875 19.3541C67.2523 21.4397 66.4302 22.4749 65.8365 22.4749ZM72.0515 23.1143C72.5387 23.1143 73.0106 22.9469 73.4369 22.5815C73.8631 22.2161 74.0611 21.7899 74.0611 21.2875C74.0611 21.0287 73.9697 20.7547 73.8175 20.4654C73.6652 20.1914 73.3151 19.7803 72.767 19.2475C72.1277 18.6386 71.7927 18.121 71.7927 17.7252C71.7775 17.3598 71.8841 17.0553 72.1277 16.7965C72.356 16.5377 72.6757 16.4007 73.0715 16.4007C73.4673 16.4007 73.8175 16.5986 74.1067 16.9792C73.7718 17.0858 73.6043 17.2837 73.6043 17.5729C73.6043 17.7252 73.6348 17.8469 73.7261 17.9383C73.8175 18.0296 73.924 18.0753 74.0763 18.0753C74.2133 18.0753 74.3351 18.0296 74.4416 17.9078C74.5482 17.8013 74.5939 17.649 74.5939 17.4664C74.5787 17.101 74.4416 16.8117 74.1828 16.5986C73.9088 16.3855 73.5435 16.2789 73.0715 16.2789C72.6148 16.2789 72.1733 16.4616 71.7775 16.8117C71.3665 17.1771 71.1686 17.5881 71.1838 18.0601C71.1838 18.3037 71.2447 18.532 71.3665 18.7604C71.4883 19.0039 71.61 19.1866 71.7318 19.3236C71.8536 19.4759 72.0668 19.6738 72.3408 19.9478C72.3408 19.963 72.4017 20.0239 72.5235 20.1457C72.6453 20.2675 72.7062 20.3436 72.7366 20.3741C72.767 20.4045 72.8279 20.4806 72.9193 20.5872C73.0106 20.6938 73.0867 20.7699 73.1172 20.8308C73.1476 20.8917 73.1933 20.983 73.2542 21.0744C73.3151 21.1657 73.3455 21.257 73.376 21.3484C73.3912 21.4397 73.4064 21.5311 73.4064 21.6224C73.4064 21.9726 73.2999 22.2922 73.0715 22.5815C72.8432 22.8707 72.5082 23.0078 72.0515 23.0078C71.5339 23.0078 71.0772 22.7794 70.6814 22.3075C70.8184 22.2618 70.9402 22.1857 71.0468 22.0639C71.1381 21.9573 71.199 21.8355 71.199 21.6985C71.199 21.5615 71.1533 21.4397 71.062 21.3484C70.9707 21.257 70.8489 21.1961 70.7119 21.1961C70.5748 21.1961 70.4531 21.257 70.3617 21.3788C70.2551 21.5006 70.2095 21.6529 70.2095 21.8355C70.2095 22.2314 70.3769 22.5358 70.7423 22.7642C71.0924 23.0078 71.5339 23.1143 72.0515 23.1143ZM75.8152 23.1143C76.2872 23.1143 76.8809 22.3836 77.6116 20.9221L77.5203 20.8765L76.4242 22.6119L75.6173 22.5206L77.3071 16.9335H78.6468L78.7686 16.5225L77.4441 16.5073L78.0835 14.4369H77.3376L76.6982 16.5073L75.6173 16.5225L75.4803 16.9183L76.5612 16.9335L74.8866 22.4902C74.8409 22.6119 74.9475 22.7337 75.1911 22.886C75.4346 23.0382 75.6478 23.1143 75.8152 23.1143ZM78.8794 23.1448C79.0621 23.1448 79.2144 23.0839 79.3362 22.9469C79.4579 22.8099 79.5341 22.6424 79.5341 22.4597C79.5341 22.2922 79.4732 22.14 79.3514 22.003C79.2296 21.8812 79.0774 21.8051 78.8947 21.8051C78.6968 21.8051 78.5293 21.8812 78.3923 22.003C78.2553 22.14 78.1944 22.2922 78.1944 22.4597C78.1944 22.6424 78.2553 22.8099 78.3923 22.9469C78.5141 23.0839 78.6815 23.1448 78.8794 23.1448Z" fill="white"/>
<path d="M3.94546 10H5.74692L7.05361 2.62923H11.367L11.6461 1.11955H1.2052L0.926104 2.62923H5.25215L3.94546 10ZM11.2997 10H13.1011L13.4183 8.22391V8.24928C13.7862 6.16872 14.8899 4.81128 16.26 4.81128C17.4906 4.81128 17.8712 5.54709 17.5414 7.46273L17.0847 10H18.8861L19.3809 7.24706C19.863 4.48143 19.1906 3.47921 17.4018 3.45384C15.4862 3.45384 14.3571 4.58293 13.7862 6.27021H13.6847L14.8519 1.11955H12.8728L11.2997 10ZM23.9499 10.203C25.5483 10.203 26.2968 10.0507 27.6035 9.58135L27.8573 8.13511C27.0834 8.43958 26.373 8.83286 24.8252 8.83286C23.1506 8.83286 22.3894 8.41421 22.3641 7.37392H28.2632L28.4535 6.33364C28.7326 4.6083 27.4132 3.45384 25.1424 3.45384C22.8461 3.45384 21.0827 4.79859 20.7275 6.82841C20.3723 8.85823 21.6536 10.203 23.9499 10.203ZM22.4782 6.49857C22.8081 5.29336 23.5693 4.83665 24.9013 4.83665C26.2715 4.83665 26.8804 5.2553 26.7282 6.39707L22.4782 6.49857ZM33.0616 10H34.8631L35.5355 6.19409H41.7137L41.9548 4.78591H35.7765L36.1571 2.62923H42.4495L42.716 1.11955H34.6347L33.0616 10ZM44.8528 2.5658C45.5506 2.5658 46.0326 2.23595 46.1595 1.5382C46.2737 0.853137 45.8931 0.523292 45.208 0.523292C44.5356 0.523292 44.0409 0.853137 43.9267 1.5382C43.7998 2.23595 44.1677 2.5658 44.8528 2.5658ZM42.6581 10H44.4595L45.5759 3.65682H43.7745L42.6581 10ZM46.2913 10H48.0928L48.4861 7.75452C48.8793 5.78813 50.0972 4.96352 52.7106 4.96352L52.9643 3.45384C50.592 3.45384 49.4883 4.18965 48.7905 6.27021H48.6637L49.3868 3.65682H47.4077L46.2913 10ZM55.8855 10.203C58.1183 10.203 59.7294 9.58135 59.9832 8.10973C60.4653 5.34411 54.5788 6.76498 54.8071 5.5344C54.8833 5.09038 55.5683 4.87471 57.0653 4.87471C58.0168 4.87471 59.1205 5.01426 59.9832 5.20456L60.2369 3.80906C59.1712 3.59339 57.8899 3.45384 57.1287 3.45384C54.8959 3.45384 53.2721 4.1389 53.0184 5.55978C52.5363 8.31271 58.4481 6.75229 58.2198 8.10973C58.1183 8.64256 57.4078 8.80748 55.8474 8.80748C54.731 8.80748 53.8176 8.66793 52.8281 8.26197L52.5743 9.70821C53.5766 10.0127 54.9086 10.203 55.8855 10.203ZM62.8355 10.1269C63.5206 10.1269 64.0407 10.0507 64.5989 9.87314L64.7638 8.92166C62.9116 9.02315 62.9497 8.84554 63.2161 7.33587L63.6348 4.96352H65.4616L65.7026 3.65682H63.8631L64.1803 1.88073L62.5945 2.13446L62.3154 3.65682H61.1609L60.9199 4.96352H61.8333L61.3512 7.71646C61.0341 9.5306 61.1863 10.1269 62.8355 10.1269Z" fill="white"/>
</svg>
