<svg width="13" height="10" viewBox="0 0 13 10" fill="none" xmlns="http://www.w3.org/2000/svg">
<path id="twi_red copy" fill-rule="evenodd" clip-rule="evenodd" d="M0 8.86563C1.1804 9.5825 2.5818 10 4.0885 10C8.9947 10 11.6772 6.1525 11.6772 2.81625C11.6772 2.70687 11.6747 2.59875 11.6694 2.49063C12.1908 2.13438 12.6432 1.69 13 1.18375C12.5223 1.385 12.0081 1.52 11.4686 1.58C12.0192 1.26937 12.441 0.773125 12.6412 0.184375C12.1257 0.473125 11.5544 0.683125 10.9473 0.79625C10.4611 0.30625 9.76755 0 9.00055 0C7.52765 0 6.33295 1.12937 6.33295 2.52313C6.33295 2.72188 6.357 2.91375 6.4025 3.09875C4.186 2.99375 2.21975 1.98875 0.90545 0.46125C0.676 0.835 0.54405 1.2675 0.54405 1.73063C0.54405 2.60625 1.01465 3.37937 1.7303 3.83187C1.29285 3.82 0.88205 3.70563 0.52195 3.51625C0.52195 3.52688 0.52195 3.5375 0.52195 3.54813C0.52195 4.77063 1.44235 5.79188 2.6611 6.02375C2.43815 6.08188 2.2022 6.11188 1.9591 6.11188C1.78685 6.11188 1.6198 6.09688 1.4573 6.06687C1.79595 7.07062 2.78135 7.80062 3.9481 7.82C3.0355 8.4975 1.88695 8.9 0.63635 8.9C0.4212 8.9 0.2093 8.89 0 8.86563Z" fill="black"/>
</svg>
