<svg width="12" height="12" viewBox="0 0 12 12" fill="none" xmlns="http://www.w3.org/2000/svg">
<path d="M10.3805 5.03565C10.3953 3.3438 8.91564 1.79283 7.08207 1.57836C7.0456 1.57414 7.00588 1.56773 6.96382 1.56095C6.87305 1.54631 6.77917 1.53125 6.68446 1.53125C6.30866 1.53125 6.2082 1.78832 6.18176 1.94163C6.15604 2.0907 6.18057 2.21588 6.25455 2.31386C6.379 2.47865 6.59797 2.50791 6.77385 2.53135C6.8254 2.53828 6.87404 2.54473 6.91476 2.55363C8.56215 2.9121 9.11685 3.47569 9.38795 5.06632C9.39457 5.10519 9.39755 5.15308 9.40073 5.20387C9.41256 5.39401 9.4372 5.7896 9.87392 5.7896H9.87396C9.91032 5.7896 9.94939 5.78654 9.99007 5.7805C10.3968 5.72032 10.384 5.35872 10.3779 5.18498C10.3762 5.13605 10.3745 5.08976 10.3788 5.05898C10.3799 5.05123 10.3805 5.04344 10.3805 5.03565Z" fill="white"/>
<path d="M6.57499 0.957314C6.62379 0.960742 6.66998 0.964022 6.70844 0.969761C9.41361 1.37489 10.6577 2.62304 11.0025 5.27801C11.0083 5.32314 11.0092 5.37818 11.0102 5.43647C11.0136 5.6439 11.0207 6.07541 11.4966 6.08435L11.5114 6.0845C11.6606 6.0845 11.7793 6.04068 11.8642 5.95414C12.0124 5.80325 12.002 5.57909 11.9937 5.39894C11.9917 5.35474 11.9897 5.31311 11.9902 5.27667C12.0246 2.56132 9.611 0.0990556 6.82516 0.00749066C6.8136 0.00711799 6.80258 0.00771426 6.79144 0.00924221C6.78597 0.0100248 6.77583 0.0109938 6.75845 0.0109938C6.73067 0.0109938 6.6965 0.00864593 6.66026 0.00626085C6.61644 0.00335403 6.56677 0 6.51641 0C6.07276 0 5.98841 0.30708 5.97762 0.490135C5.95275 0.91319 6.37301 0.942966 6.57499 0.957314Z" fill="white"/>
<path d="M10.8737 8.70935C10.8162 8.66657 10.7567 8.6223 10.701 8.57862C10.4057 8.34715 10.0915 8.1338 9.78757 7.92745C9.7245 7.88467 9.66144 7.84185 9.5986 7.79892C9.20933 7.53265 8.85936 7.40326 8.52872 7.40326C8.08339 7.40326 7.69511 7.64288 7.37465 8.11539C7.23267 8.32487 7.06043 8.42672 6.84815 8.42672C6.72263 8.42672 6.58 8.39184 6.42429 8.32301C5.16781 7.76814 4.2706 6.91741 3.75753 5.79444C3.50951 5.25169 3.58992 4.8969 4.02641 4.60816C4.27427 4.44433 4.73564 4.13934 4.70296 3.55529C4.66595 2.89205 3.16322 0.896445 2.53006 0.669787C2.26199 0.573788 1.98033 0.572893 1.69141 0.667551C0.963534 0.905836 0.441205 1.32431 0.180748 1.87765C-0.070945 2.41232 -0.0595793 3.04012 0.213621 3.69318C1.00341 5.58135 2.11382 7.22758 3.51411 8.58607C4.88474 9.91591 6.56936 11.0052 8.52114 11.8236C8.69706 11.8974 8.8816 11.9376 9.01634 11.9669C9.06226 11.977 9.10191 11.9855 9.1308 11.9932C9.14668 11.9975 9.16306 11.9997 9.17948 11.9999L9.1949 12C9.19494 12 9.1949 12 9.19498 12C10.113 12 11.2152 11.1831 11.5537 10.2518C11.8503 9.43628 11.3088 9.0332 10.8737 8.70935Z" fill="white"/>
<path d="M6.98265 3.1141C6.82548 3.11797 6.4984 3.12587 6.38363 3.45028C6.32994 3.60188 6.33637 3.73351 6.40277 3.84151C6.5002 3.99997 6.68687 4.04853 6.85667 4.07517C7.47245 4.1714 7.78871 4.503 7.85196 5.11865C7.88135 5.40571 8.07985 5.60617 8.33472 5.60617H8.33476C8.35359 5.60617 8.37284 5.60509 8.39201 5.60282C8.69854 5.5673 8.84714 5.34799 8.83371 4.95102C8.83861 4.53672 8.61596 4.06638 8.23729 3.69173C7.85732 3.31593 7.39928 3.10429 6.98265 3.1141Z" fill="white"/>
</svg>
